<svg version="1.1" id="Layer_1" xmlns="http://www.w3.org/2000/svg" xmlns:xlink="http://www.w3.org/1999/xlink" x="0px" y="0px"
	 width="100%" viewBox="0 0 512 512" enable-background="new 0 0 512 512" xml:space="preserve">
<path fill="#000000" opacity="1.000000" stroke="none" 
	d="
M286.000000,513.000000 
	C192.022812,513.000000 98.545601,512.979492 5.068528,513.085144 
	C1.795423,513.088867 0.894715,512.634766 0.897218,509.070312 
	C1.015182,341.111359 1.016859,173.152328 0.891708,5.193420 
	C0.888907,1.434828 1.850453,0.913581 5.304635,0.915568 
	C173.096985,1.012110 340.889374,1.011540 508.681732,0.918693 
	C512.098999,0.916803 513.113953,1.383421 513.111023,5.179763 
	C512.982544,173.138687 512.985168,341.097717 513.101257,509.056671 
	C513.103699,512.593262 512.247681,513.092896 508.945099,513.087830 
	C434.796844,512.973389 360.648407,513.000000 286.000000,513.000000 
z"/>
<path fill="#FEB7C6" opacity="1.000000" stroke="none" 
	d="
M34.693893,321.805664 
	C38.756153,304.176422 45.484329,287.923309 53.497593,272.215057 
	C74.755936,230.542786 104.978935,196.846832 144.091751,171.134125 
	C146.252518,169.713623 148.355759,168.941101 151.006592,168.947357 
	C184.321762,169.025970 217.637192,169.012833 250.952499,168.969864 
	C253.354691,168.966766 255.364197,169.447113 257.454468,170.819733 
	C282.322174,187.149414 303.854156,207.051422 321.996399,230.624832 
	C322.380219,231.123581 322.713135,231.661499 323.632599,233.001083 
	C318.735840,233.001083 314.517151,233.000732 310.298492,233.001129 
	C303.468842,233.001785 296.637878,232.919693 289.809998,233.029724 
	C284.191376,233.120270 281.239532,236.112549 281.015137,241.662842 
	C280.954620,243.159637 281.001434,244.660843 281.001251,246.160019 
	C280.992035,320.453125 280.983063,394.746246 280.897400,469.500000 
	C276.074493,473.918121 270.085480,473.064362 264.652740,473.689728 
	C239.726929,476.559174 214.995468,475.146698 190.585327,469.082275 
	C188.628113,468.596069 186.707718,468.148529 185.060135,466.218201 
	C185.799271,462.494324 188.704178,463.218353 190.974747,463.153412 
	C198.468536,462.938995 205.969925,463.137268 213.467529,463.048187 
	C221.170975,462.956696 222.933487,461.226776 223.044540,453.676605 
	C223.130341,447.845367 223.332764,441.997070 222.998566,436.185242 
	C222.650284,430.128265 224.970917,426.553436 230.381500,423.487213 
	C251.902405,411.291199 262.993835,392.411255 262.940399,367.723694 
	C262.870544,335.453033 235.962173,308.230347 203.702850,306.956635 
	C202.038086,306.890900 200.368607,306.883362 198.718369,306.622986 
	C189.931213,305.236542 183.227646,297.595184 183.243927,288.993256 
	C183.260208,280.403870 190.176529,272.549622 198.748154,271.386536 
	C207.241928,270.234009 215.641510,275.910065 218.167236,284.509003 
	C221.266830,295.061768 221.266846,295.072876 232.235931,295.067413 
	C239.734039,295.063660 247.233704,295.182953 254.729828,295.010101 
	C261.009552,294.865295 263.317017,292.734802 262.949677,286.417542 
	C261.631927,263.757599 251.191177,246.314346 231.464462,235.155701 
	C225.158279,231.588547 222.489059,227.565475 222.983139,220.551315 
	C223.391769,214.750305 223.186386,208.891907 223.003418,203.062744 
	C222.820053,197.220413 220.870667,195.132919 215.199280,195.014008 
	C205.704193,194.814911 196.203384,194.809647 186.708496,195.017166 
	C181.239349,195.136688 179.211914,197.200287 179.016052,202.658142 
	C178.777008,209.318970 178.768555,215.993622 178.982864,222.649857 
	C179.158844,228.115402 177.045654,231.471878 172.156830,234.181808 
	C150.475372,246.200134 139.342606,265.011963 139.044525,289.637268 
	C138.657928,321.573975 165.155167,349.176178 197.136719,351.002655 
	C199.966446,351.164246 202.798340,351.238861 205.551895,352.018494 
	C213.620316,354.302887 219.246628,361.934570 218.732803,369.909058 
	C218.201569,378.153748 211.028214,385.659210 202.734772,386.647675 
	C194.835510,387.589172 186.903687,382.309082 184.246292,374.338806 
	C184.140961,374.022858 184.063431,373.698242 183.970978,373.378052 
	C180.959015,362.946930 180.958786,362.938141 170.143555,362.932129 
	C162.811996,362.928040 155.479721,362.855927 148.149048,362.963806 
	C140.677628,363.073761 138.469589,365.149078 139.057556,372.691681 
	C140.771133,394.674438 150.981903,411.785400 170.203064,422.628998 
	C176.878387,426.394867 179.471725,430.666077 179.047821,438.053650 
	C178.591309,446.009674 178.631058,454.030029 179.388245,462.384460 
	C177.279373,465.165192 174.737625,464.565552 172.389389,463.750824 
	C158.694519,458.999237 145.416809,453.291595 132.794937,446.117645 
	C131.172592,445.195526 129.874756,443.934143 128.410431,442.256836 
	C126.208298,437.503326 123.926414,433.235596 119.870300,430.339355 
	C118.130699,429.097198 118.262253,428.079529 118.928917,426.241577 
	C125.312714,408.642242 114.231773,393.071075 95.378227,393.004547 
	C88.225342,392.979279 81.072327,392.990417 73.455414,392.910583 
	C70.536659,391.991211 68.779373,390.338379 67.220879,388.284637 
	C53.509922,370.216553 43.116558,350.390991 35.495762,329.057220 
	C34.673508,326.755402 35.171642,324.437805 34.693893,321.805664 
z"/>
<path fill="#3C4F9D" opacity="1.000000" stroke="none" 
	d="
M297.493958,471.310028 
	C297.097351,466.975372 297.007202,462.980530 297.006683,458.985657 
	C296.998047,390.867615 297.048218,322.749420 296.894836,254.631744 
	C296.884460,250.026077 298.132446,248.886536 302.667511,248.899277 
	C361.791382,249.065369 420.915802,249.027313 480.502991,249.101624 
	C482.644135,250.586731 482.951019,252.517487 483.011169,254.565506 
	C483.578979,273.894867 482.195312,293.049591 477.669830,311.894348 
	C477.004120,314.666443 476.952667,318.034241 472.968903,319.003296 
	C470.757660,316.884918 470.961395,314.489288 470.950775,312.174438 
	C470.898773,300.853302 470.957092,289.531952 470.919922,278.210815 
	C470.888245,268.562958 469.485931,267.093842 460.010529,267.087128 
	C415.225037,267.055328 370.439575,267.055237 325.654083,267.087708 
	C316.756165,267.094177 315.107697,268.719849 315.093170,277.563141 
	C315.040039,309.861908 315.075470,342.160736 315.071991,374.459564 
	C315.068939,402.596161 315.078491,430.732788 315.060852,458.869385 
	C315.059204,461.527527 315.240356,464.198700 314.588593,467.302002 
	C310.915619,472.426636 303.934174,474.061768 297.493958,471.310028 
z"/>
<path fill="#384282" opacity="1.000000" stroke="none" 
	d="
M297.089294,471.437500 
	C302.526825,471.130646 307.828674,470.830414 312.996033,467.976501 
	C320.380341,471.956329 328.285492,470.916473 336.023376,470.920349 
	C376.522919,470.940582 417.022430,470.930817 457.521973,470.928314 
	C459.521790,470.928192 461.525696,471.000488 463.520233,470.852631 
	C468.429260,470.488647 470.391724,468.585297 470.823547,463.748962 
	C471.016296,461.590271 470.927368,459.418060 470.927612,457.251740 
	C470.932373,414.252228 470.915375,371.252747 470.957886,328.253265 
	C470.960815,325.308960 470.348083,322.203217 472.742737,319.264587 
	C476.303467,313.032196 476.718018,306.372040 477.968170,299.949585 
	C481.176056,283.469269 481.226471,266.777008 480.975800,249.619614 
	C481.629242,249.112091 482.301453,249.113907 482.954437,249.002609 
	C487.596375,248.211441 489.132050,249.786057 489.120514,254.804672 
	C488.945587,330.891907 488.951569,406.979736 489.111237,483.067047 
	C489.121368,487.893921 487.899170,489.126343 483.068817,489.112427 
	C422.965088,488.939148 362.860596,488.954102 302.756653,489.091125 
	C298.322815,489.101227 296.399506,488.139374 296.919617,483.383636 
	C297.333588,479.598480 297.022217,475.734039 297.089294,471.437500 
z"/>
<path fill="#FD909B" opacity="1.000000" stroke="none" 
	d="
M228.983734,84.013885 
	C225.958542,95.157433 222.900787,105.871536 220.118683,116.656738 
	C219.305679,119.808395 218.282455,121.296768 214.567917,121.121635 
	C206.420410,120.737503 198.231232,120.749962 190.081253,121.107002 
	C185.876312,121.291222 184.373550,120.263382 184.240509,115.819656 
	C183.717010,98.334229 182.791397,80.860786 182.006149,63.383297 
	C181.699539,56.558849 181.449173,49.730289 181.006897,42.914391 
	C180.851929,40.525925 181.715195,39.105186 183.441788,37.428875 
	C191.400391,29.701990 200.314346,24.410233 211.835281,25.059912 
	C223.202423,25.700918 232.111191,30.812849 238.773865,40.025749 
	C240.110260,41.873657 240.063644,43.533184 239.480621,45.611408 
	C235.932831,58.257633 232.516525,70.940750 228.983734,84.013885 
z"/>
<path fill="#FFA0AF" opacity="1.000000" stroke="none" 
	d="
M128.138367,442.375061 
	C137.673828,446.223541 146.455475,452.013824 156.279755,455.624817 
	C163.535736,458.291779 170.332047,462.378418 179.008942,462.775696 
	C180.123337,462.624908 180.526093,462.643799 181.229919,462.759644 
	C182.740768,463.171478 183.917191,463.584717 184.895752,464.862793 
	C193.244232,468.389618 201.965836,469.584473 210.614151,470.914825 
	C223.596039,472.911865 236.715225,473.627228 249.821640,472.906067 
	C259.890106,472.352051 269.913635,470.980835 280.388947,469.966827 
	C280.809692,476.093811 280.798584,482.226990 280.787476,488.360199 
	C274.917938,489.765137 268.957397,488.939514 263.049805,488.950928 
	C217.132935,489.039764 171.215790,488.974335 125.298874,489.048096 
	C121.566185,489.054077 118.450073,489.190643 120.806427,484.036011 
	C120.937057,483.750214 120.865334,483.376923 120.915810,483.048706 
	C121.676956,478.099823 117.689369,473.124359 118.861549,469.266144 
	C120.004028,465.505646 125.204948,462.856415 127.024940,458.390656 
	C129.101349,453.295654 129.649078,448.123413 128.138367,442.375061 
z"/>
<path fill="#FC9EAD" opacity="1.000000" stroke="none" 
	d="
M111.961380,55.061016 
	C107.768303,47.682938 103.733040,40.635815 99.010880,32.389099 
	C105.355377,34.736267 110.506393,36.759613 115.736809,38.551147 
	C125.138016,41.771282 134.109634,46.229393 143.971298,48.137165 
	C150.140274,49.330570 156.243408,49.033440 162.288269,47.701054 
	C164.436661,47.227509 165.253403,47.364063 165.359100,49.755653 
	C166.372711,72.688713 167.438660,95.619576 168.568542,118.547180 
	C168.674286,120.692871 167.742371,121.048149 165.957352,121.024384 
	C161.299728,120.962357 156.632233,120.834572 151.985565,121.068596 
	C149.290665,121.204315 148.710052,119.349640 147.746582,117.665474 
	C135.871384,96.907295 123.995163,76.149712 111.961380,55.061016 
z"/>
<path fill="#FC9EAD" opacity="1.000000" stroke="none" 
	d="
M242.703308,94.630753 
	C246.803848,79.649666 250.850388,65.076897 254.690170,50.449860 
	C255.310440,48.087090 256.291870,46.755131 258.594879,45.910912 
	C270.897980,41.400963 283.149261,36.749699 295.466400,32.129311 
	C296.542206,33.720272 295.172485,34.725208 294.670044,35.735313 
	C281.124176,62.968239 267.467102,90.145981 253.978867,117.407295 
	C252.584564,120.225372 250.968872,121.389633 247.878571,121.045204 
	C243.952927,120.607674 238.363907,122.742805 236.482620,120.218742 
	C234.596451,117.688141 237.823120,112.820038 238.816315,108.979919 
	C240.022995,104.314522 241.321732,99.672935 242.703308,94.630753 
z"/>
<path fill="#FE9FAE" opacity="1.000000" stroke="none" 
	d="
M34.482452,321.742371 
	C41.597130,342.430634 50.941353,362.220490 63.643948,380.347321 
	C66.501694,384.425385 69.632530,388.312073 72.814545,392.561523 
	C57.123672,393.606293 41.207134,392.036163 25.026941,393.837494 
	C24.721117,369.458466 27.920731,345.563080 34.482452,321.742371 
z"/>
<path fill="#F68088" opacity="1.000000" stroke="none" 
	d="
M172.000580,152.999420 
	C166.343964,152.998993 161.183716,152.886444 156.032028,153.047501 
	C153.612717,153.123154 153.042755,152.281265 152.937119,149.937744 
	C152.353851,136.997406 152.283295,137.000565 165.124313,137.000580 
	C191.573395,137.000595 218.023041,137.085281 244.470886,136.905136 
	C248.237061,136.879486 249.160416,137.852264 249.097260,141.563095 
	C248.902664,152.996521 249.073212,152.999435 237.874619,152.999435 
	C216.083237,152.999435 194.291840,152.999420 172.000580,152.999420 
z"/>
<path fill="#F3B146" opacity="1.000000" stroke="none" 
	d="
M104.363747,415.633575 
	C104.656219,422.009796 102.014015,424.949249 96.101189,424.971771 
	C75.460197,425.050385 54.818626,425.037689 34.177498,424.980438 
	C28.339043,424.964233 26.043253,422.753448 25.161655,416.335693 
	C26.543261,414.622253 28.161169,414.561920 29.872227,414.601532 
	C53.297184,415.144226 76.722878,415.150146 100.147858,414.599487 
	C101.500542,414.567657 102.804298,414.594940 104.363747,415.633575 
z"/>
<path fill="#F3B146" opacity="1.000000" stroke="none" 
	d="
M112.363747,447.633575 
	C112.656204,454.009827 110.014046,456.949219 104.101166,456.971741 
	C83.460182,457.050354 62.818619,457.037720 42.177498,456.980469 
	C36.339024,456.964264 34.043255,454.753479 33.161659,448.335693 
	C34.543255,446.622253 36.161186,446.561798 37.872231,446.601410 
	C61.297188,447.144196 84.722885,447.150116 108.147865,446.599457 
	C109.500549,446.567657 110.804298,446.594940 112.363747,447.633575 
z"/>
<path fill="#F3B146" opacity="1.000000" stroke="none" 
	d="
M104.364609,479.633667 
	C104.659630,486.005585 102.013466,488.949188 96.101913,488.971741 
	C75.460732,489.050354 54.818970,489.037689 34.177650,488.980438 
	C28.339106,488.964233 26.043278,486.753448 25.161661,480.335693 
	C26.543289,478.622253 28.161219,478.561829 29.872292,478.601501 
	C53.297508,479.144043 76.723465,479.150360 100.148697,478.599335 
	C101.501366,478.567535 102.805183,478.594849 104.364609,479.633667 
z"/>
<path fill="#FDBF5E" opacity="1.000000" stroke="none" 
	d="
M104.748352,415.605835 
	C80.332832,418.272339 55.881744,416.451385 31.461927,416.923431 
	C29.677763,416.957947 27.880381,416.308655 25.678480,415.968018 
	C26.010324,410.928986 29.296068,409.016937 33.985470,409.010712 
	C54.589828,408.983368 75.194298,409.022766 95.798599,408.979950 
	C100.339684,408.970520 103.434570,410.797211 104.748352,415.605835 
z"/>
<path fill="#FDBF5E" opacity="1.000000" stroke="none" 
	d="
M112.748352,447.605835 
	C88.332832,450.272339 63.881744,448.451355 39.461926,448.923431 
	C37.677769,448.957916 35.880390,448.308655 33.678490,447.968018 
	C34.007759,442.926483 37.297169,441.017426 41.984501,441.011047 
	C62.589127,440.982941 83.193871,441.022797 103.798439,440.979950 
	C108.339577,440.970520 111.434540,442.797150 112.748352,447.605835 
z"/>
<path fill="#FDBF5E" opacity="1.000000" stroke="none" 
	d="
M104.748871,479.605774 
	C80.333458,482.272278 55.882092,480.451477 31.461996,480.923492 
	C29.677807,480.957977 27.880404,480.308685 25.678484,479.968018 
	C26.010319,474.928986 29.296066,473.016937 33.985462,473.010712 
	C54.589806,472.983337 75.194260,473.022797 95.798546,472.979950 
	C100.339691,472.970490 103.434433,474.797363 104.748871,479.605774 
z"/>
<path fill="#030202" opacity="1.000000" stroke="none" 
	d="
M185.469131,465.090698 
	C183.708298,464.760498 182.411926,464.363617 180.778000,463.928192 
	C180.013229,463.811676 179.649033,463.616241 179.193970,463.024536 
	C179.040039,462.745819 179.069580,462.816406 179.100616,462.794006 
	C177.494614,460.350433 176.897110,457.716370 176.951599,454.766785 
	C177.086990,447.436096 176.840851,440.096375 177.067703,432.770233 
	C177.167160,429.557861 176.257950,428.002838 173.192474,426.435730 
	C150.719742,414.947601 138.660370,396.405121 137.088699,371.209625 
	C136.642227,364.052277 139.702438,361.043762 146.748703,361.008179 
	C156.248276,360.960205 165.748444,360.963684 175.248062,361.007538 
	C181.755112,361.037598 184.354080,363.402679 185.030853,369.718933 
	C186.044601,379.180084 193.191711,385.550171 202.111862,384.942902 
	C210.390640,384.379303 216.972107,377.312439 216.969788,368.989197 
	C216.967285,360.085052 210.128113,353.407166 200.596817,353.002319 
	C163.361435,351.420746 135.633987,322.843170 137.246323,286.662140 
	C138.367340,261.505981 150.805557,242.922424 173.353699,231.487854 
	C176.193558,230.047699 177.163422,228.635391 177.071289,225.549759 
	C176.842575,217.890076 176.952713,210.218628 177.009857,202.552536 
	C177.058853,195.978897 179.917099,193.057129 186.408813,193.013519 
	C196.074875,192.948593 205.741913,192.955292 215.408096,193.010574 
	C222.156891,193.049164 224.953354,195.953568 224.994400,202.880005 
	C225.036850,210.046280 225.205750,217.221039 224.921219,224.376251 
	C224.772446,228.117447 225.795685,230.050583 229.375671,231.896088 
	C251.667343,243.387558 263.374146,261.995758 264.910858,286.948273 
	C265.342529,293.957825 262.178986,296.963379 255.073776,296.993744 
	C245.574142,297.034332 236.073944,297.043762 226.574432,296.989380 
	C220.215515,296.952942 217.642090,294.507507 216.971481,288.103027 
	C216.017212,278.989532 208.944443,272.623810 200.218201,273.024567 
	C191.716476,273.415009 184.944534,280.592224 185.014679,289.137939 
	C185.086060,297.833862 191.895676,304.579895 201.022446,304.996246 
	C232.517853,306.433044 256.279724,325.414825 263.148376,354.624451 
	C269.908234,383.371155 256.026001,413.050446 229.405762,426.081421 
	C225.814651,427.839294 224.756378,429.807617 224.914474,433.590637 
	C225.220413,440.911041 225.057037,448.253845 224.987091,455.586365 
	C224.925308,462.062988 221.993271,464.948425 215.432175,464.989349 
	C205.599625,465.050659 195.766479,465.017151 185.469131,465.090698 
z"/>
<path fill="#000000" opacity="1.000000" stroke="none" 
	d="
M473.083008,318.510620 
	C473.087860,355.111938 473.040497,391.248413 473.001984,427.384888 
	C472.989349,439.209198 473.023865,451.033569 472.990814,462.857788 
	C472.970428,470.148102 470.258514,472.982666 463.159485,472.986450 
	C416.361847,473.011505 369.564209,472.984802 322.766602,473.025421 
	C318.791229,473.028870 315.529999,472.061127 313.487427,467.924683 
	C313.164886,465.504211 313.010895,463.342804 313.010437,461.181366 
	C312.997498,399.721863 312.999054,338.262329 313.000946,276.802826 
	C313.001251,267.210327 315.185303,265.001709 324.676575,265.001160 
	C370.313171,264.998535 415.949768,264.997925 461.586365,265.001770 
	C470.712067,265.002533 472.990875,267.321777 472.999603,276.573486 
	C473.012604,290.397583 473.022766,304.221680 473.083008,318.510620 
z"/>
<path fill="#FEB7C6" opacity="1.000000" stroke="none" 
	d="
M179.219070,462.997620 
	C179.407364,462.941956 179.774689,463.138123 180.291229,463.611969 
	C180.093018,463.676208 179.745560,463.462799 179.219070,462.997620 
z"/>
<path fill="#EB609E" opacity="1.000000" stroke="none" 
	d="
M171.159302,380.582520 
	C178.025635,395.076935 190.976135,402.715546 204.935364,400.805817 
	C219.090866,398.869232 229.774475,388.620789 232.536545,374.328888 
	C236.197571,355.385498 221.214798,337.546417 201.185211,337.000824 
	C178.342316,336.378571 160.269180,322.420166 154.579742,301.006104 
	C147.764053,275.353058 163.457092,248.993912 189.473740,242.395630 
	C214.729584,235.990326 241.122025,251.778976 247.494659,276.998962 
	C248.220947,279.873260 248.183868,281.555206 244.591064,281.005554 
	C244.265472,280.955780 243.919098,280.956360 243.593338,281.005829 
	C236.322708,282.109802 231.782288,280.404144 228.035965,272.680084 
	C221.383881,258.964996 204.632202,253.753067 190.201340,258.922089 
	C175.875641,264.053436 166.823685,279.115753 169.302567,293.697357 
	C171.977005,309.429443 184.593826,320.505402 200.393250,320.991028 
	C229.006714,321.870453 249.764786,343.208069 248.957535,370.911102 
	C248.269882,394.509796 229.541504,414.318542 205.547195,416.825592 
	C182.449921,419.238953 160.069824,403.439362 154.452652,380.911865 
	C153.687363,377.842743 154.107208,376.659485 157.509613,376.944763 
	C160.653229,377.208344 163.850845,377.187561 166.997543,376.942963 
	C169.599060,376.740753 170.602585,377.988281 171.159302,380.582520 
z"/>
<path fill="#EE61A0" opacity="1.000000" stroke="none" 
	d="
M193.006805,443.884399 
	C193.268906,439.962128 191.517136,435.445740 193.776276,433.399658 
	C195.591187,431.755890 200.062134,433.304962 203.283844,432.889404 
	C207.486908,432.347321 209.322601,433.066315 209.130203,438.045319 
	C208.706284,449.016296 209.008499,448.900818 197.949432,449.066376 
	C194.367462,449.119965 192.154541,448.582672 193.006805,443.884399 
z"/>
<path fill="#EE61A0" opacity="1.000000" stroke="none" 
	d="
M193.006775,215.083252 
	C192.252075,210.221237 193.785767,208.710083 198.474304,208.882309 
	C208.989731,209.268539 208.724960,209.005844 209.116562,219.483704 
	C209.295258,224.265427 208.132629,226.234741 203.263412,225.041000 
	C202.949692,224.964096 202.602631,225.023605 202.271103,225.018753 
	C193.006790,224.883194 193.006790,224.883148 193.006775,215.083252 
z"/>
<path fill="#68FBFA" opacity="1.000000" stroke="none" 
	d="
M428.371155,312.690826 
	C396.025848,312.893524 364.031189,312.905426 332.037262,313.067200 
	C329.059387,313.082245 328.938324,311.756805 328.964447,309.483337 
	C329.056458,301.484833 329.236572,293.474579 328.897644,285.489410 
	C328.734558,281.647491 329.911957,280.897308 333.568298,280.911713 
	C371.398895,281.060760 409.230286,281.010803 447.523956,281.090820 
	C449.562378,282.645538 449.356812,284.459991 448.845245,286.260742 
	C446.094788,295.942963 440.974884,304.122162 433.245911,310.618835 
	C431.943390,311.713654 430.382629,312.259216 428.371155,312.690826 
z"/>
<path fill="#EE61A0" opacity="1.000000" stroke="none" 
	d="
M438.009979,456.999939 
	C433.545197,456.904419 428.299500,458.318176 425.943726,456.321777 
	C423.155426,453.958862 425.071747,448.530304 425.050507,444.448761 
	C424.941528,423.491577 425.096741,402.532684 424.909180,381.576599 
	C424.876221,377.892609 425.716827,376.747864 429.523163,376.902191 
	C437.493988,377.225311 445.489960,377.124573 453.469360,376.934662 
	C456.343353,376.866241 457.071747,377.764740 457.059692,380.570129 
	C456.955109,404.854095 456.955658,429.138855 457.059113,453.422821 
	C457.071014,456.217804 456.365967,457.196167 453.475037,457.062958 
	C448.495667,456.833527 443.498077,456.999756 438.009979,456.999939 
z"/>
<path fill="#EE61A0" opacity="1.000000" stroke="none" 
	d="
M397.978394,456.999939 
	C391.668457,456.999451 385.853241,456.898438 380.044373,457.047028 
	C377.650391,457.108246 376.919434,456.332428 376.953217,453.949890 
	C377.075684,445.315674 377.076538,436.677551 376.952789,428.043365 
	C376.918518,425.651703 377.668671,424.919464 380.050568,424.953217 
	C388.684814,425.075623 397.322906,425.076599 405.957092,424.952789 
	C408.349365,424.918488 409.080475,425.669739 409.046753,428.051025 
	C408.924469,436.685272 408.923401,445.323364 409.047272,453.957550 
	C409.081604,456.350525 408.335358,457.206940 405.946350,457.037750 
	C403.467682,456.862183 400.966827,456.999481 397.978394,456.999939 
z"/>
<path fill="#EE61A0" opacity="1.000000" stroke="none" 
	d="
M360.999939,451.870361 
	C361.600861,455.893799 360.498688,457.280487 356.555573,457.105286 
	C348.598175,456.751587 340.612183,456.901001 332.642029,457.054626 
	C329.954254,457.106445 328.862976,456.511292 328.932617,453.549164 
	C329.127869,445.248413 329.097168,436.938354 328.944916,428.635803 
	C328.895508,425.940277 329.504211,424.864075 332.457001,424.933014 
	C340.757782,425.126862 349.071747,425.178650 357.368591,424.913483 
	C360.727386,424.806183 361.113861,426.163452 361.054108,428.961029 
	C360.894501,436.432404 360.999878,443.909485 360.999939,451.870361 
z"/>
<path fill="#EE61A0" opacity="1.000000" stroke="none" 
	d="
M385.059814,360.999939 
	C377.000183,360.999451 376.999939,360.999451 377.000122,353.506989 
	C377.000275,346.364929 377.082489,339.221436 376.954926,332.081665 
	C376.913086,329.739136 377.579620,328.914612 380.013092,328.951080 
	C388.648041,329.080383 397.287048,329.072205 405.922363,328.954834 
	C408.268860,328.922943 409.084900,329.588715 409.048737,332.016937 
	C408.920135,340.651917 408.878296,349.292572 409.065369,357.925446 
	C409.128876,360.855377 407.782440,361.071350 405.481140,361.035767 
	C398.838959,360.932983 392.194122,360.999756 385.059814,360.999939 
z"/>
<path fill="#EE61A0" opacity="1.000000" stroke="none" 
	d="
M394.994019,377.000061 
	C399.786407,377.091278 405.494324,375.540466 408.006012,377.702637 
	C410.934784,380.223816 408.805084,386.099182 408.958160,390.511322 
	C409.136597,395.653442 408.890778,400.809753 409.046417,405.953369 
	C409.118805,408.345490 408.337372,409.080872 405.951996,409.046936 
	C397.317902,408.924072 388.679871,408.923767 380.045776,409.047089 
	C377.657410,409.081177 376.919128,408.337036 376.953064,405.951843 
	C377.075897,397.317749 377.076263,388.679718 376.952942,380.045624 
	C376.918854,377.657043 377.659668,376.875092 380.049133,376.954041 
	C384.860046,377.113007 389.679932,377.000519 394.994019,377.000061 
z"/>
<path fill="#EE61A0" opacity="1.000000" stroke="none" 
	d="
M360.999939,383.102081 
	C360.999725,390.897369 360.866852,398.209564 361.064911,405.512787 
	C361.143799,408.421631 360.130035,409.109589 357.394196,409.057129 
	C349.092041,408.897980 340.782074,408.877136 332.481140,409.065460 
	C329.565125,409.131653 328.891418,408.116394 328.943298,405.388397 
	C329.101105,397.086212 329.123840,388.776245 328.934174,380.475372 
	C328.867340,377.550598 329.896606,376.885834 332.617523,376.943726 
	C340.254852,377.106323 347.917053,377.326965 355.531677,376.880188 
	C360.263885,376.602509 361.742676,378.250793 360.999939,383.102081 
z"/>
<path fill="#EE61A0" opacity="1.000000" stroke="none" 
	d="
M456.999939,347.990021 
	C456.908752,352.450439 458.324677,357.679321 456.335388,360.046417 
	C453.980927,362.848022 448.564606,360.812256 444.485260,360.953033 
	C439.011353,361.141907 433.523132,360.894928 428.046906,361.046661 
	C425.655823,361.112915 424.919037,360.338226 424.953003,357.952362 
	C425.075958,349.318298 425.076141,340.680298 424.952942,332.046234 
	C424.918884,329.658508 425.661804,328.919098 428.047638,328.953064 
	C436.681702,329.075989 445.319702,329.076172 453.953766,328.952972 
	C456.341522,328.918884 457.118500,329.658661 457.046417,332.048401 
	C456.891205,337.192017 456.999481,342.343567 456.999939,347.990021 
z"/>
<path fill="#EE61A0" opacity="1.000000" stroke="none" 
	d="
M345.000031,360.999939 
	C339.431183,360.652069 332.640381,363.195435 329.774689,359.933807 
	C327.276276,357.090149 329.058929,350.457275 329.009583,345.498077 
	C328.964966,341.014557 329.117493,336.525970 328.954407,332.047943 
	C328.867249,329.656067 329.660156,328.919006 332.046936,328.953033 
	C340.680969,329.076111 349.318939,329.076080 357.952972,328.953033 
	C360.339630,328.919006 361.080994,329.659943 361.046936,332.046844 
	C360.923859,340.680878 360.923950,349.318848 361.046967,357.952881 
	C361.080963,360.339417 360.344879,361.141418 357.952087,361.045013 
	C353.806976,360.877991 349.650269,360.999481 345.000031,360.999939 
z"/>
<path fill="#40E9EE" opacity="1.000000" stroke="none" 
	d="
M428.481628,312.914368 
	C438.280548,304.872467 445.792023,295.127777 447.986816,281.556274 
	C456.999603,280.695709 456.999695,280.695709 456.999634,289.523804 
	C456.999573,296.184723 456.856750,302.850159 457.065399,309.504517 
	C457.156158,312.399139 456.186798,313.118286 453.420441,313.059692 
	C445.264435,312.886871 437.102509,312.991882 428.481628,312.914368 
z"/>
</svg>