<svg version="1.1" id="Layer_1" xmlns="http://www.w3.org/2000/svg" xmlns:xlink="http://www.w3.org/1999/xlink" x="0px" y="0px"
	 width="100%" viewBox="0 0 512 512" enable-background="new 0 0 512 512" xml:space="preserve">
<path fill="#FFFFFF" opacity="1.000000" stroke="none" 
	d="
M1.465739,437.088745 
	C1.000000,293.212067 1.013194,149.424149 0.921891,5.636285 
	C0.919669,2.137548 1.308438,0.884105 5.361011,0.887284 
	C173.141251,1.018904 340.921631,1.012371 508.701904,0.914160 
	C512.172729,0.912128 513.110596,1.458142 513.107300,5.199366 
	C512.980591,148.820389 513.000000,292.441559 513.000000,436.531342 
	C496.724823,432.047363 480.024597,435.276947 463.533966,434.497406 
	C455.103424,434.098846 454.573761,433.904633 454.571411,425.295441 
	C454.557678,375.169769 454.547302,325.044067 454.609833,274.918488 
	C454.613159,272.244293 453.476074,268.481384 456.538025,267.324036 
	C459.189209,266.321960 460.950531,269.661987 462.890045,271.380676 
	C464.258881,272.593628 465.466919,273.986847 466.868317,275.168884 
	C471.987579,279.486847 475.949493,279.528076 481.143311,275.318848 
	C489.164398,268.818390 496.949493,262.035889 504.844696,255.385757 
	C512.354431,249.060349 512.251160,245.536957 505.301605,238.730850 
	C490.913055,224.639313 476.492584,210.581909 461.531677,197.096771 
	C457.910706,193.832962 456.458466,190.082321 456.496246,185.209244 
	C456.653595,164.893829 456.525787,144.576202 456.591400,124.259781 
	C456.608276,119.026421 455.451874,114.672150 449.786255,112.199203 
	C447.635712,105.973053 448.615601,99.957748 448.870697,93.567085 
	C449.097534,92.848091 449.177368,92.402115 449.425720,92.288780 
	C456.696411,88.970848 457.113342,82.708931 456.781097,75.897720 
	C456.497314,70.079559 456.843323,64.234894 456.680847,58.406815 
	C456.487793,51.481697 453.736877,48.405037 446.973969,48.363453 
	C416.984436,48.179050 386.993378,48.195782 357.003662,48.354549 
	C350.452698,48.389233 347.597748,51.376934 347.352753,57.931679 
	C347.085236,65.089691 347.361481,72.259331 347.227203,79.422401 
	C347.196747,81.047104 347.442505,83.081741 345.682465,83.857178 
	C344.137970,84.537636 342.943817,83.036407 341.807434,82.104828 
	C339.232758,79.994171 336.604248,77.954941 334.246552,75.578484 
	C316.300720,57.490032 297.264191,40.535717 279.125885,22.640625 
	C274.402466,17.980518 269.434875,13.515310 264.566467,8.974006 
	C259.268341,4.031832 254.952698,3.947994 249.632462,8.850356 
	C244.491547,13.587498 239.268433,18.265882 234.309570,23.168249 
	C216.070892,41.199089 197.222992,58.589817 178.750717,76.372849 
	C157.524780,96.806808 136.068954,117.005966 114.776413,137.375061 
	C101.184052,150.377930 87.537529,163.327423 73.899879,176.283798 
	C51.811420,197.268814 29.642466,218.167664 7.784859,239.394791 
	C1.835843,245.172195 1.562022,248.915802 7.753379,254.326248 
	C16.402920,261.884857 25.201242,269.280334 34.084373,276.566803 
	C37.528629,279.391998 41.414619,279.403198 45.186398,276.911407 
	C47.850426,275.151459 49.852421,272.647949 52.199726,270.532501 
	C53.865761,269.031036 55.373020,266.184631 57.846195,267.271393 
	C59.964306,268.202118 59.241375,271.134033 59.251270,273.247986 
	C59.302750,284.244293 59.591106,295.253296 59.162098,306.233002 
	C58.881981,313.402008 60.057217,319.430298 66.840065,323.726440 
	C67.737328,329.894623 67.970985,335.669220 66.613258,341.845337 
	C60.571140,345.586761 59.434338,350.879089 59.482323,357.126587 
	C59.657215,379.898376 59.578785,402.672485 59.537888,425.445618 
	C59.522961,433.758759 58.736347,434.515381 50.385387,434.542725 
	C39.746906,434.577576 29.106543,434.665192 18.470369,434.506042 
	C12.760098,434.420624 7.198477,434.754425 1.465739,437.088745 
z"/>
<path fill="#020101" opacity="1.000000" stroke="none" 
	d="
M66.459488,323.132050 
	C59.968323,321.078979 58.015961,318.443542 58.005203,311.999908 
	C57.980492,297.196106 57.997375,282.392242 57.997375,267.131409 
	C52.908447,270.510010 49.912285,275.620605 45.014484,278.632111 
	C41.143181,281.012421 37.161327,280.889893 34.076653,278.377441 
	C24.050377,270.211090 14.316292,261.676849 4.653050,253.078186 
	C0.350282,249.249466 0.909816,243.566818 5.443232,239.843704 
	C6.591313,238.900818 7.632967,237.825836 8.700858,236.788223 
	C20.726078,225.104004 32.559258,213.214066 44.817883,201.780228 
	C59.109398,188.450317 73.143387,174.858871 87.281670,161.372543 
	C101.419434,147.886719 115.547508,134.388763 129.719971,120.940285 
	C143.652100,107.719879 157.522049,94.435715 171.445663,81.208359 
	C185.611664,67.750732 199.880280,54.406635 213.846664,40.735664 
	C225.188141,29.634089 236.961655,18.975147 248.451797,8.023632 
	C254.214676,2.530904 259.723480,2.383658 265.423370,7.929209 
	C275.290894,17.529526 285.068939,27.229517 295.161469,36.589077 
	C309.613281,49.991329 324.013947,63.438267 337.945953,77.384933 
	C340.220734,79.662094 342.938385,81.496849 345.997406,83.979225 
	C345.997406,75.224998 345.985565,66.841133 346.000793,58.457325 
	C346.015594,50.301857 349.350708,47.002342 357.595490,47.000282 
	C387.258698,46.992874 416.921936,46.990608 446.585144,47.001862 
	C454.558258,47.004887 457.971405,50.339325 457.996674,58.138027 
	C458.023132,66.303658 458.134644,74.472412 457.951538,82.634026 
	C457.846741,87.304451 456.308624,91.257919 450.437012,92.064651 
	C444.654877,92.523933 441.196167,89.529427 440.737122,83.747177 
	C440.368286,79.101173 440.513367,74.425331 440.643951,69.770699 
	C440.747620,66.075058 439.593079,64.321281 435.539856,64.342247 
	C413.068451,64.458519 390.595947,64.423004 368.124084,64.367340 
	C364.764374,64.359024 363.308350,65.557892 363.359222,69.038872 
	C363.490509,78.025681 363.389099,87.015694 363.408752,96.004478 
	C363.414551,98.658707 364.359772,100.831680 366.215424,102.706734 
	C377.569611,114.179482 389.613922,124.929970 401.193787,136.165359 
	C412.417267,147.054977 423.982178,157.586578 435.102234,168.584717 
	C436.478302,169.945694 437.557739,171.742004 439.709229,172.316559 
	C441.218964,170.762939 440.561005,168.845490 440.569641,167.137512 
	C440.646118,151.990036 440.493134,136.841248 440.664490,121.694733 
	C440.743591,114.702576 443.424164,111.742561 449.706604,111.644974 
	C455.679901,112.374992 457.984344,115.229874 457.992859,121.907761 
	C458.019379,142.724823 458.444031,163.556519 457.756775,184.350906 
	C457.524597,191.377274 461.020111,195.055878 465.465637,198.668777 
	C466.835938,199.782410 468.305939,200.844818 469.563721,202.097610 
	C482.580597,215.062897 495.883514,227.725952 509.464874,240.098389 
	C513.026978,243.343445 513.156555,249.716370 509.388824,253.050766 
	C499.708344,261.617950 489.910553,270.056061 480.027496,278.389069 
	C476.348450,281.491058 470.258209,280.526672 465.934509,276.412567 
	C462.811737,273.441132 459.869690,270.279846 456.789490,267.144623 
	C455.319702,268.489868 456.043884,270.063690 456.042694,271.406860 
	C455.995483,323.699371 456.052917,375.992065 455.902527,428.284180 
	C455.891083,432.267578 456.980133,433.154236 460.797028,433.090271 
	C474.782166,432.855835 488.773743,433.026825 502.762665,432.977814 
	C506.508881,432.964722 509.843536,433.736176 512.647217,436.910614 
	C513.000000,459.687561 513.000000,482.375122 513.000000,505.531342 
	C511.937592,510.063171 509.025635,511.459167 505.138031,511.471680 
	C503.805420,511.475952 502.472656,511.490997 501.139923,511.491028 
	C338.377106,511.492371 175.614304,511.492462 12.851501,511.489288 
	C11.019552,511.489258 9.174375,511.620056 7.359365,511.366058 
	C4.587892,510.978271 2.144546,510.057526 1.235851,506.436279 
	C1.000000,483.312439 1.000000,460.624878 1.000000,437.468658 
	C4.354820,433.753906 8.371053,432.862518 12.981670,432.929352 
	C26.275398,433.122070 39.581394,432.740265 52.866089,433.136658 
	C57.524723,433.275696 58.123341,431.737549 58.091896,427.638611 
	C57.901913,402.875305 58.007153,378.109802 57.989639,353.345032 
	C57.985847,347.982513 59.343616,343.552673 65.627617,341.977600 
	C71.096588,342.022247 74.017021,344.319672 75.146255,349.214874 
	C75.713142,351.672333 75.587265,354.186554 75.588501,356.683228 
	C75.599854,379.509644 75.575790,402.336121 75.604889,425.162506 
	C75.613808,432.156525 75.849541,432.339844 82.975182,432.405823 
	C96.097382,432.527344 98.558563,435.028503 98.587791,448.378204 
	C98.613686,460.207916 98.592987,472.037689 98.594116,483.867432 
	C98.594215,484.867126 98.460297,485.889587 98.626831,486.861847 
	C98.986382,488.960876 97.656433,492.538971 100.871979,492.548035 
	C104.446465,492.558167 103.343224,488.829468 103.345901,486.621643 
	C103.423355,422.807709 103.403366,358.993683 103.408333,295.179657 
	C103.408539,292.514343 103.313904,289.844055 103.546265,287.185638 
	C104.259613,279.024353 107.865570,275.550140 116.055450,275.449341 
	C127.384125,275.309875 138.714905,275.409729 150.044769,275.407654 
	C177.203217,275.402679 204.361664,275.403900 231.520111,275.409180 
	C233.851654,275.409637 236.192810,275.300751 238.508911,275.629852 
	C244.102859,276.424683 247.069275,279.597565 247.498001,285.239075 
	C247.674850,287.566101 247.592072,289.902466 247.592163,292.234741 
	C247.594635,356.048767 247.592331,419.862762 247.595734,483.676788 
	C247.596252,493.412872 247.606018,493.412872 257.206360,493.405304 
	C257.872833,493.404785 258.539398,493.410156 259.205750,493.399231 
	C265.851013,493.290497 266.351013,492.868561 266.384125,486.307220 
	C266.452240,472.811554 266.370270,459.315369 266.418030,445.819580 
	C266.455627,435.202240 269.191925,432.425262 279.739502,432.418884 
	C328.558044,432.389374 377.376617,432.407928 426.195160,432.405945 
	C427.361481,432.405884 428.527771,432.407745 429.694092,432.405396 
	C438.396057,432.387665 438.399017,432.387451 438.405365,423.487610 
	C438.441406,373.003967 438.335938,322.520264 438.464935,271.612366 
	C438.686432,268.865173 438.404022,266.453186 438.866852,264.218750 
	C441.177063,253.065933 435.298340,245.904022 427.266693,239.755142 
	C424.607910,237.719666 422.214264,235.423447 419.861664,233.064651 
	C401.288544,214.442444 381.814331,196.757751 362.988495,178.393555 
	C349.175354,164.919174 335.094666,151.705002 321.080841,138.433578 
	C300.661804,119.096336 280.434052,99.560020 260.055176,80.181732 
	C257.667023,77.910805 256.026855,78.019333 253.844742,80.309105 
	C245.343216,89.230049 236.022690,97.306564 227.169662,105.870529 
	C203.608109,128.662781 179.740051,151.137955 156.123184,173.876556 
	C143.300552,186.222321 130.388321,198.485703 117.415733,210.676300 
	C104.926392,222.412781 92.924797,234.665466 80.092667,246.031158 
	C76.426743,249.278137 74.684464,252.916580 75.133850,257.855713 
	C75.494797,261.822723 75.083191,265.844879 75.407684,270.247620 
	C75.599403,284.414185 75.588028,298.171387 75.458199,311.926666 
	C75.390594,319.088531 72.978378,322.060272 66.459488,323.132050 
z"/>
<path fill="#FFFFFF" opacity="1.000000" stroke="none" 
	d="
M1.000000,506.497925 
	C3.051043,509.044250 5.800226,510.078949 9.553743,510.076996 
	C174.599152,509.990875 339.644592,510.001984 504.690033,510.006897 
	C507.865387,510.006989 511.025787,510.041992 512.638367,506.109253 
	C513.000000,513.000000 513.000000,513.000000 506.013214,513.000000 
	C339.670258,513.000000 173.327271,512.969360 6.984506,513.143433 
	C1.838460,513.148804 -0.117125,512.098877 1.000000,506.497925 
z"/>
<path fill="#E8E9EE" opacity="1.000000" stroke="none" 
	d="
M66.005707,323.497925 
	C72.464684,321.175568 74.327187,316.833527 74.127327,310.308502 
	C73.715569,296.865997 74.022568,283.401459 74.111862,269.484558 
	C80.155571,262.514893 86.330048,256.235352 93.025208,250.449142 
	C101.593369,243.044220 109.398163,234.803864 117.557892,226.966507 
	C130.046616,214.971207 142.572205,202.996277 155.045319,190.983292 
	C177.469269,169.386612 199.992813,147.885788 222.622330,126.506065 
	C232.538696,117.137375 241.807281,107.071434 252.368790,98.363983 
	C256.801941,94.709076 257.347687,94.459465 261.444000,98.265106 
	C276.937286,112.659004 292.077515,127.421371 307.359619,142.035782 
	C322.159668,156.189224 336.962769,170.340988 351.789062,184.466843 
	C366.736694,198.708267 381.629639,213.006104 396.578003,227.244812 
	C409.716766,239.759811 422.937805,252.190308 435.976257,264.811920 
	C437.170502,265.967987 438.451935,267.052002 439.583801,268.750397 
	C439.873413,283.013367 439.982269,297.003845 439.991272,310.994354 
	C440.016327,349.980499 439.915680,388.967041 440.111877,427.952209 
	C440.135162,432.573517 439.314301,434.016479 434.301849,433.995209 
	C382.654480,433.775818 331.005829,433.859131 279.357513,433.861938 
	C269.617310,433.862488 267.744995,435.739410 267.740204,445.510345 
	C267.732910,460.338409 267.568756,475.169617 267.847046,489.992462 
	C267.924957,494.143311 266.548340,495.123291 262.765656,494.839355 
	C258.789490,494.540802 254.747391,494.488159 250.782288,494.852570 
	C246.826080,495.216156 245.694809,493.619507 246.243454,490.037140 
	C246.368118,489.223175 246.261810,488.373871 246.261810,487.540833 
	C246.261810,421.397675 246.262756,355.254547 246.260864,289.111389 
	C246.260574,278.692261 244.542206,276.986084 234.073990,276.985809 
	C194.921249,276.984772 155.768494,276.982422 116.615746,276.987793 
	C107.683678,276.989014 105.390617,279.247711 105.388954,288.193756 
	C105.376472,355.336548 105.346375,422.479431 105.470085,489.622009 
	C105.477585,493.692688 104.525871,495.122650 100.286995,494.910461 
	C97.164917,494.754211 96.875702,493.526703 96.889526,490.988861 
	C96.973900,475.494843 96.946884,460.000092 96.925179,444.505615 
	C96.913628,436.261902 94.494316,433.994141 86.165428,433.819427 
	C82.228279,433.736877 76.865440,435.628357 74.748619,433.002625 
	C72.764542,430.541656 74.021263,425.391510 74.015724,421.424500 
	C73.983620,398.432739 74.016777,375.440857 73.988922,352.449066 
	C73.981270,346.138031 72.505577,344.271820 66.238297,342.234192 
	C66.006866,335.959381 66.005524,329.961792 66.005707,323.497925 
z"/>
<path fill="#9DB0B6" opacity="1.000000" stroke="none" 
	d="
M450.042450,111.391167 
	C443.670593,113.376129 442.034637,115.312569 442.020203,121.829330 
	C441.980438,139.769272 442.006470,157.709381 442.006470,175.666306 
	C440.026489,176.009735 439.423340,174.558365 438.558685,173.736481 
	C414.056091,150.446014 389.612335,127.093536 365.066254,103.849091 
	C362.828308,101.729820 361.828308,99.653145 361.895020,96.524956 
	C362.104340,86.703789 362.049683,76.874336 361.922241,67.050362 
	C361.886475,64.293365 362.197510,62.928986 365.592438,62.950989 
	C389.905670,63.108574 414.220642,63.085388 438.534363,62.970512 
	C441.496399,62.956520 442.158691,63.993614 442.058899,66.697067 
	C441.874725,71.686340 442.146637,76.692284 441.968597,81.682007 
	C441.774536,87.121078 443.902740,90.642082 449.722656,91.966217 
	C450.042938,98.389923 450.029846,104.661484 450.042450,111.391167 
z"/>
<path fill="#C87523" opacity="1.000000" stroke="none" 
	d="
M231.079529,325.000000 
	C231.079529,380.148010 231.020615,434.796173 231.188721,489.443665 
	C231.202515,493.925903 229.987091,494.927856 225.641022,494.902985 
	C192.486771,494.713104 159.330414,494.709900 126.176224,494.905090 
	C121.750755,494.931152 120.644394,493.765198 120.654526,489.367859 
	C120.801834,425.390045 120.787811,361.411743 120.677040,297.433777 
	C120.670258,293.522156 121.332619,291.976410 125.750771,292.002167 
	C159.238190,292.197479 192.727615,292.179626 226.215363,292.015533 
	C230.198181,291.996002 231.287964,293.104553 231.168701,297.012329 
	C230.889313,306.167267 231.079453,315.336548 231.079529,325.000000 
z"/>
<path fill="#E84655" opacity="1.000000" stroke="none" 
	d="
M232.833511,44.831612 
	C239.872009,38.178471 246.780045,31.895777 253.374008,25.299112 
	C256.113892,22.558102 257.816193,22.623657 260.613159,25.301497 
	C291.544769,54.915421 322.600403,84.399734 353.619629,113.922150 
	C398.760284,156.884537 443.869476,199.880081 489.101227,242.746353 
	C492.216217,245.698471 493.013214,247.335098 488.995209,250.065704 
	C485.020081,252.767197 481.383423,256.032074 477.891876,259.358032 
	C475.348297,261.780945 473.739655,261.855194 471.072449,259.261383 
	C455.663696,244.276520 440.038879,229.513901 424.492676,214.670303 
	C371.225830,163.810715 317.960938,112.949120 264.696320,62.087257 
	C258.450989,56.123646 255.503235,56.162369 249.094055,62.282452 
	C181.006989,127.298309 112.918732,192.312912 44.829601,257.326630 
	C39.639492,262.282288 39.640770,262.271515 34.031429,257.506866 
	C31.110994,255.026184 28.376635,252.248703 25.182899,250.186584 
	C20.880043,247.408295 21.946920,245.534393 25.110245,242.552673 
	C49.359787,219.695038 73.465919,196.685165 97.595291,173.700195 
	C142.596588,130.833237 187.583481,87.951180 232.833511,44.831612 
z"/>
<path fill="#84BF0D" opacity="1.000000" stroke="none" 
	d="
M311.000000,449.000214 
	C371.826416,449.000244 432.152954,449.049896 492.478973,448.896790 
	C496.843903,448.885712 498.129486,449.867981 497.993683,454.356659 
	C497.641022,466.011322 497.670288,477.689209 497.981293,489.346222 
	C498.097382,493.697174 497.011963,494.925415 492.513123,494.911438 
	C438.019897,494.741791 383.525940,494.801483 329.032196,494.801453 
	C315.033813,494.801453 301.034302,494.707550 287.037811,494.869934 
	C283.736053,494.908234 282.796906,493.902649 282.844666,490.622406 
	C283.026520,478.126495 283.022217,465.624878 282.846802,453.128784 
	C282.801300,449.885712 283.691345,448.828491 287.004974,448.926392 
	C294.830536,449.157654 302.667603,449.000366 311.000000,449.000214 
z"/>
<path fill="#D0D2D6" opacity="1.000000" stroke="none" 
	d="
M439.896301,268.560120 
	C438.316345,268.979950 437.456268,267.910858 436.501526,266.988068 
	C426.450287,257.273346 416.415985,247.541031 406.339935,237.852112 
	C389.671173,221.823746 373.121765,205.667175 356.245636,189.859756 
	C341.919556,176.440903 327.794983,162.818573 313.606018,149.259048 
	C298.453705,134.778946 283.079651,120.531914 268.200104,105.764740 
	C265.376923,102.962875 262.138885,100.576035 259.348755,97.744873 
	C257.384369,95.751610 256.171143,96.325653 254.433609,97.992836 
	C240.633224,111.234352 226.731781,124.370430 212.912735,137.592590 
	C195.963364,153.809875 179.196243,170.220169 162.100891,186.281540 
	C148.281738,199.264877 134.492050,212.271103 120.910164,225.504684 
	C106.257744,239.781357 91.348175,253.794174 76.533844,267.904297 
	C76.069489,268.346588 75.417618,268.591980 74.521523,268.976135 
	C74.126442,263.698486 74.246140,258.362793 73.926125,253.053650 
	C73.753151,250.183990 75.601967,248.907333 77.238327,247.344406 
	C116.985382,209.381744 156.743103,171.430283 196.497818,133.475647 
	C215.652481,115.188301 234.857666,96.953163 253.894882,78.544342 
	C256.417542,76.104950 257.673035,76.229134 260.140320,78.590714 
	C318.496918,134.447128 376.919525,190.234726 435.435547,245.924057 
	C438.685303,249.016830 440.608093,251.979431 440.086029,256.614594 
	C439.659912,260.398102 439.988525,264.266571 439.896301,268.560120 
z"/>
<path fill="#83BE0D" opacity="1.000000" stroke="none" 
	d="
M46.000000,448.997192 
	C56.987072,448.997345 67.475967,449.106415 77.960091,448.930634 
	C81.073792,448.878418 81.903702,449.897583 81.868309,452.914551 
	C81.719902,465.563873 81.726089,478.216797 81.862007,490.866394 
	C81.895004,493.937500 80.859695,494.875427 77.833809,494.858887 
	C58.524864,494.753326 39.214588,494.737946 19.905993,494.872192 
	C16.690273,494.894562 16.039066,493.681396 16.067574,490.782074 
	C16.191936,478.132233 16.217943,465.479187 16.052351,452.830292 
	C16.011436,449.704926 17.027845,448.872742 20.032688,448.935516 
	C28.518517,449.112823 37.010464,448.997314 46.000000,448.997192 
z"/>
<path fill="#010101" opacity="1.000000" stroke="none" 
	d="
M426.013916,331.000000 
	C426.013855,356.663330 426.019989,381.826660 426.010376,406.989990 
	C426.007080,415.591248 423.653473,417.943909 415.021973,417.945526 
	C369.528015,417.954010 324.034027,417.954163 278.540070,417.944977 
	C270.146301,417.943298 267.752319,415.624207 267.748230,407.370148 
	C267.728424,367.375458 267.727600,327.380737 267.749237,287.386047 
	C267.753601,279.338898 270.127441,276.994110 278.157501,276.992096 
	C323.984772,276.980652 369.812012,276.979675 415.639282,276.993103 
	C423.569885,276.995422 425.997955,279.473328 426.008301,287.505859 
	C426.026794,301.837219 426.013763,316.168610 426.013916,331.000000 
z"/>
<path fill="#030303" opacity="1.000000" stroke="none" 
	d="
M283.002594,153.952988 
	C297.851990,166.357620 302.770142,183.114655 297.082672,201.161880 
	C292.060791,217.097031 277.232117,228.383865 259.368286,229.868210 
	C234.474915,231.936661 212.627960,209.531372 214.812866,184.269562 
	C216.282364,167.279404 225.034821,155.144150 240.329041,148.476212 
	C255.121643,142.026978 269.568085,144.066376 283.002594,153.952988 
z"/>
<path fill="#030201" opacity="1.000000" stroke="none" 
	d="
M210.801666,400.229614 
	C205.519241,400.216461 200.711151,400.249329 195.904663,400.176361 
	C191.364777,400.107422 188.821793,397.537445 188.225845,393.237122 
	C187.689087,389.363647 190.972870,385.478210 195.388321,385.235474 
	C201.666748,384.890350 207.995483,384.861450 214.269501,385.243347 
	C218.544891,385.503571 221.246399,388.164703 221.335861,392.741577 
	C221.417862,396.937378 218.817108,399.603729 214.256729,400.134613 
	C213.273041,400.249146 212.270538,400.202057 210.801666,400.229614 
z"/>
<path fill="#9ED7EF" opacity="1.000000" stroke="none" 
	d="
M282.906891,363.000000 
	C282.906921,353.176636 283.012756,343.851379 282.846680,334.530975 
	C282.792206,331.472748 283.342102,330.198059 286.862549,330.209656 
	C326.819397,330.341400 366.776886,330.325958 406.733917,330.231049 
	C409.923096,330.223480 410.992340,330.987671 410.967560,334.369476 
	C410.809998,355.845367 410.804626,377.323608 410.970490,398.799377 
	C410.997528,402.297852 409.714264,402.841400 406.644470,402.834778 
	C366.853882,402.748993 327.062897,402.734192 287.272491,402.854767 
	C283.810364,402.865265 282.755707,401.996735 282.823181,398.460999 
	C283.045532,386.811035 282.906891,375.154205 282.906891,363.000000 
z"/>
<path fill="#C77423" opacity="1.000000" stroke="none" 
	d="
M312.000000,292.103760 
	C343.654388,292.103790 374.809143,292.170532 405.962769,292.018768 
	C409.833191,291.999908 411.297546,292.911713 410.980347,296.964355 
	C410.617401,301.600769 410.711914,306.297211 410.958832,310.948944 
	C411.131866,314.209106 410.087128,315.216156 406.773529,315.176605 
	C392.447876,315.005524 378.119049,315.103882 363.791351,315.103912 
	C338.467987,315.104004 313.144073,315.022400 287.821838,315.190430 
	C283.958313,315.216064 282.512207,314.302948 282.830841,310.263672 
	C283.196533,305.627686 283.104309,300.930481 282.851807,296.279388 
	C282.675476,293.031036 283.675507,291.939850 287.011597,292.031189 
	C295.168945,292.254425 303.336548,292.103821 312.000000,292.103760 
z"/>
<path fill="#403740" opacity="1.000000" stroke="none" 
	d="
M270.098022,211.301865 
	C256.741028,217.649704 243.090881,214.404175 234.753403,203.184586 
	C227.348129,193.219452 228.202515,178.883072 237.225189,168.743561 
	C243.357407,161.852325 254.725067,157.705185 266.461426,161.935638 
	C275.990479,165.370422 283.518677,175.473419 284.072693,185.214554 
	C284.725983,196.701569 279.802460,205.022171 270.098022,211.301865 
z"/>
</svg>