<svg version="1.1" id="Layer_1" xmlns="http://www.w3.org/2000/svg" xmlns:xlink="http://www.w3.org/1999/xlink" x="0px" y="0px"
	 width="100%" viewBox="0 0 512 512" enable-background="new 0 0 512 512" xml:space="preserve">
<path fill="#010101" opacity="1.000000" stroke="none" 
	d="
M1.230557,400.340302 
	C1.000000,398.611115 1.000000,397.222198 1.000000,395.416656 
	C1.590665,383.279907 7.385628,375.372925 18.533731,371.703949 
	C24.171289,369.848572 30.062733,370.436401 35.839703,371.164154 
	C40.105080,371.701416 44.405151,371.725830 49.426666,372.927551 
	C45.881329,365.092468 41.808075,358.527802 38.169373,351.751221 
	C30.385725,337.255341 21.781414,323.187164 14.768519,308.294067 
	C8.307697,294.573364 3.188072,280.364075 1.709147,265.082672 
	C1.467627,262.587128 1.696119,260.101898 1.226938,257.310913 
	C1.000000,245.979111 1.000000,234.958206 1.000000,223.468658 
	C1.855801,219.464859 1.819964,215.840454 2.048903,212.245438 
	C2.428675,206.281937 6.409247,201.591354 12.325518,202.052399 
	C19.371065,205.066574 21.170668,207.891632 19.998224,214.924011 
	C18.628668,223.138672 17.478333,231.406479 17.440668,239.691284 
	C17.339954,261.843811 22.461653,282.921600 32.377499,302.695404 
	C39.967041,317.830170 48.607994,332.414398 56.762989,347.592712 
	C59.766075,335.669983 66.780640,328.387238 79.153084,326.266235 
	C90.761024,325.102448 99.429344,329.553589 105.087006,339.089630 
	C113.096458,352.589630 124.128334,362.849365 137.321213,371.022858 
	C138.593628,371.811157 139.883438,372.565155 141.216675,373.244324 
	C145.972580,375.667114 146.584305,375.506378 149.770111,371.090332 
	C156.667755,361.529083 165.094925,353.663452 175.473740,347.974792 
	C177.656876,346.778198 179.821518,345.524628 182.308762,345.023010 
	C186.568863,344.163818 189.759476,345.815002 192.396164,349.547028 
	C194.301224,355.683350 190.858505,359.006073 186.601837,361.703552 
	C180.840561,365.354492 175.063309,368.877777 170.284927,373.904694 
	C163.157333,381.403107 157.888062,389.899719 154.898346,400.219543 
	C144.891708,438.689301 167.853149,473.906189 206.730545,480.211975 
	C211.854156,481.042999 217.032684,480.435577 222.179688,480.648224 
	C225.322632,480.778076 226.645447,479.282013 227.056122,476.314514 
	C227.990311,469.563934 228.273163,462.736328 229.511932,455.600403 
	C229.476944,450.519257 230.306091,445.934204 230.901901,441.349335 
	C231.660629,435.510742 235.741501,432.297394 241.104401,432.707214 
	C245.688995,433.057526 248.101654,436.242279 248.448502,442.251190 
	C248.698883,446.588654 248.023102,450.842041 247.429657,455.545410 
	C246.583679,462.577301 245.913666,469.190674 245.146484,475.791656 
	C244.783630,478.913727 245.475067,480.545685 248.918976,480.526489 
	C256.899963,480.481964 264.881653,480.519775 272.863159,480.509033 
	C275.953918,480.504883 277.255188,479.081116 277.568054,476.028107 
	C278.211670,469.747559 278.795044,463.453888 279.924103,456.789978 
	C281.524475,452.607239 283.849976,449.808929 288.259308,449.753632 
	C292.471527,449.700806 295.445221,451.646393 297.102112,456.070251 
	C298.045685,462.547546 296.492462,468.428894 295.971222,474.375824 
	C295.508911,479.650787 295.909119,480.409607 301.023987,480.431122 
	C320.998932,480.515167 340.974426,480.433167 360.949371,480.497467 
	C364.573029,480.509155 366.360352,479.356567 366.689117,475.457550 
	C367.219879,469.163757 368.066315,462.890228 368.815491,456.161865 
	C370.086975,452.132385 371.812225,449.010895 375.857086,448.025208 
	C380.357086,446.928589 383.837128,449.068298 386.210571,454.721191 
	C387.000458,462.030426 385.645538,468.774872 384.860107,475.539917 
	C384.457642,479.005981 385.521851,480.534088 389.050873,480.530151 
	C412.542389,480.503876 436.051697,481.130371 459.520142,480.303284 
	C479.549255,479.597351 492.470520,466.793671 494.581299,446.950409 
	C494.532135,428.480774 484.806458,415.877594 467.363586,411.270294 
	C465.915771,410.887878 464.460632,410.533539 463.008148,410.169067 
	C454.465790,408.025299 454.398132,408.018219 453.535126,416.572418 
	C452.266937,429.142731 450.798706,441.690002 449.351868,454.655975 
	C449.196533,457.262726 448.488007,459.259399 447.102081,460.957031 
	C444.920868,463.628845 442.338013,465.568268 438.618195,464.645752 
	C433.974274,463.494049 431.954926,460.226929 431.640198,455.239288 
	C432.493927,440.359253 434.603790,426.031921 436.135040,411.645081 
	C436.862152,404.813293 436.688873,404.260010 430.133514,402.747040 
	C398.175415,395.371002 366.181396,388.151733 334.212097,380.824493 
	C333.238190,380.601288 332.239594,380.478455 331.276733,380.223389 
	C328.216431,379.412842 326.570343,380.321747 326.256805,383.699738 
	C325.965027,386.843414 325.545837,389.982056 325.184540,393.123352 
	C324.766632,396.756683 323.293121,399.863220 319.908752,401.701050 
	C314.613647,404.576447 308.423523,401.281921 307.740356,395.101807 
	C307.244507,390.615936 307.758667,386.145691 308.342834,381.667786 
	C309.085999,375.970886 308.345093,375.008850 302.834259,373.695435 
	C283.399384,369.063446 263.883392,364.784515 244.400650,360.360931 
	C239.364090,359.217377 238.950958,359.545624 238.306747,364.523499 
	C237.174683,373.270905 236.245590,382.041931 235.363159,390.817383 
	C235.145813,392.978912 234.851456,395.126190 234.225494,397.200043 
	C232.705643,402.235443 228.658493,404.942413 224.123367,404.043396 
	C219.564865,403.139740 216.417450,399.148407 216.850464,394.136627 
	C217.423141,387.508087 218.219025,380.894623 219.014435,374.286499 
	C219.531540,369.990417 219.979492,365.686127 220.457550,361.387085 
	C221.060883,355.961578 220.861282,355.874573 215.494095,355.352600 
	C210.751724,354.891449 206.697205,353.381165 204.931702,347.930908 
	C205.169815,340.826508 208.066498,338.037231 214.730820,337.642090 
	C223.342987,337.131470 231.642227,338.988068 239.915619,340.871613 
	C252.258301,343.681549 264.631348,346.365845 276.927704,349.370636 
	C280.350494,350.207031 282.631775,349.583099 284.327393,346.311249 
	C291.376709,332.709076 299.171356,319.512207 306.137360,305.855316 
	C314.555084,289.352295 320.562653,272.095825 322.255554,253.656372 
	C324.570465,228.441666 320.536896,204.191147 309.274902,181.315704 
	C300.586578,163.667953 288.316315,149.045090 270.903137,139.789658 
	C243.071213,124.996452 215.170074,124.673462 187.968140,141.986435 
	C186.141617,143.148941 184.356873,144.377197 182.532959,145.545090 
	C174.026718,150.991760 165.492950,150.922241 157.312241,145.104660 
	C147.105789,137.846481 136.094574,132.631393 123.703957,130.480820 
	C108.930252,127.916603 94.512749,129.310455 80.061050,134.487183 
	C62.436787,140.881668 49.545204,152.616180 39.035774,167.259216 
	C35.144405,172.681152 32.055180,178.596863 29.048429,184.557434 
	C26.133417,190.336121 23.218277,191.553055 16.490742,189.977020 
	C11.331725,186.493057 10.309898,182.089920 13.125449,175.873413 
	C17.337910,166.572662 22.580826,157.844330 29.112673,150.014160 
	C45.310581,130.596603 65.261543,117.237076 90.531525,112.573502 
	C113.310608,108.369629 134.937317,111.523468 155.457962,122.257942 
	C160.478897,124.884422 160.672806,124.842117 160.604004,119.374779 
	C160.564606,116.242783 161.912308,112.425217 159.866776,110.140503 
	C157.529877,107.530357 153.892227,110.072334 150.875046,110.366768 
	C119.669441,113.412041 95.758842,99.706825 75.607758,77.606201 
	C64.764832,65.714256 56.489780,52.011024 49.041122,37.803135 
	C48.576359,36.916622 48.165661,36.006691 47.776730,35.085026 
	C43.237938,24.329176 46.181156,19.161190 57.812195,17.460493 
	C78.296684,14.465246 98.648933,13.835849 118.465363,21.249298 
	C136.355988,27.942291 150.698776,39.054783 160.660507,55.480698 
	C160.683258,48.479500 160.427414,41.369274 160.753357,34.273609 
	C161.039062,28.054214 163.899887,24.593761 168.873367,23.879290 
	C174.124527,23.124931 178.483475,26.376982 179.207687,31.638302 
	C179.458084,33.457283 179.354965,35.299053 179.355225,37.131248 
	C179.359070,64.291817 179.350708,91.452400 179.373444,118.612946 
	C179.374969,120.420975 179.061981,122.264214 179.906677,124.708038 
	C200.369537,113.068451 222.138870,108.355995 245.524292,111.831886 
	C268.993652,115.320267 288.499207,126.366501 305.973877,143.424011 
	C307.614166,137.238083 308.437988,131.796524 308.667786,126.195435 
	C309.124725,115.057434 309.251892,103.848625 311.962433,92.962830 
	C317.726624,69.813232 328.947083,50.288109 350.162323,37.876194 
	C373.583313,24.173801 403.016113,28.187141 422.597656,47.098915 
	C440.158844,64.059402 448.579681,84.851952 450.502319,108.890419 
	C451.429047,120.477493 451.278534,132.145966 453.757904,143.650558 
	C458.703674,166.599777 469.687073,185.947571 485.435547,203.320221 
	C502.226227,221.842636 511.984222,243.858765 512.770020,269.673431 
	C513.000000,280.687561 513.000000,291.375122 513.000000,302.531342 
	C512.148071,314.963165 510.232391,326.681610 505.984833,337.997101 
	C499.236389,355.974976 489.967224,372.384277 476.856354,386.515076 
	C475.834656,387.616241 474.706451,388.601746 473.551056,389.560516 
	C472.555328,390.386749 471.368530,391.041595 470.591949,392.538361 
	C472.800201,394.044159 475.285736,394.416626 477.566101,395.221497 
	C493.899139,400.986145 505.497498,411.923920 510.251587,428.490692 
	C521.852234,468.916138 492.042603,498.876068 460.225464,498.446747 
	C394.769958,497.563568 329.325958,500.013885 263.867767,499.411743 
	C248.708618,499.272278 233.547043,499.363983 218.386688,499.397186 
	C192.457764,499.453979 170.601608,490.271851 153.338791,470.723389 
	C148.006073,464.684662 143.901260,457.835602 140.689224,450.458771 
	C138.254364,444.866821 138.041321,444.569366 132.095871,446.459198 
	C116.988358,451.261261 103.078499,458.085876 92.228416,470.171814 
	C86.372688,476.694550 79.050674,479.817932 70.009949,479.453888 
	C50.425690,478.665253 38.267715,457.225006 48.014904,440.174957 
	C50.585289,435.678741 54.044010,431.854858 58.122791,427.715942 
	C48.363159,426.099945 38.971840,425.432159 29.636477,424.355133 
	C23.660467,423.665710 17.710066,422.959747 12.471627,419.593781 
	C5.568664,415.158264 1.384583,409.166382 1.230557,400.340302 
z"/>
<path fill="#FFFFFF" opacity="1.000000" stroke="none" 
	d="
M13.294454,202.803101 
	C8.125731,203.233292 4.722696,204.696869 3.783855,210.336105 
	C3.099001,214.449753 2.275530,218.552719 1.391723,222.853867 
	C1.000000,150.365021 1.024509,77.730003 0.918677,5.095181 
	C0.913993,1.880691 1.281598,0.891674 4.901525,0.894292 
	C172.994766,1.015847 341.088135,1.017824 509.181366,0.886323 
	C512.971252,0.883358 513.070007,2.135617 513.067139,5.178028 
	C512.984009,93.139519 513.000000,181.101105 513.000000,269.531342 
	C511.667267,263.626617 510.574005,257.191711 508.956421,250.891495 
	C504.310028,232.794998 496.263000,216.439194 483.273010,202.791351 
	C466.560760,185.232712 456.086151,164.598999 451.943634,140.680435 
	C450.678955,133.378265 450.137115,126.089722 449.929443,118.692001 
	C449.290131,95.922920 444.322662,74.296562 429.553986,56.290314 
	C419.139008,43.592194 406.204346,34.341080 389.208771,31.951054 
	C361.375000,28.036884 341.341309,40.511017 326.406769,62.402683 
	C316.211273,77.347702 311.517944,94.301491 310.762085,112.615532 
	C310.309448,123.582794 310.913727,134.880020 306.757782,145.608704 
	C268.219788,109.188278 225.613358,101.116364 178.002396,127.078171 
	C178.002396,96.307312 178.003082,65.175629 178.001785,34.043949 
	C178.001556,28.272316 175.467453,25.085136 170.820145,24.997631 
	C165.007858,24.888195 162.100616,27.803087 162.021957,34.152950 
	C161.921585,42.256863 161.997635,50.362965 161.997635,59.517799 
	C154.079529,47.304482 145.463776,37.148499 133.633530,30.095598 
	C123.286934,23.927206 112.248291,19.930786 100.354790,17.925014 
	C90.274323,16.224997 80.176041,17.032125 70.109474,17.160769 
	C64.203873,17.236235 58.156498,18.385857 52.471226,20.063374 
	C46.947678,21.693172 45.584900,25.955721 47.698273,31.222931 
	C50.458263,38.101727 54.198570,44.454334 57.951206,50.820534 
	C65.096283,62.941887 73.308723,74.254509 83.525177,83.945358 
	C97.023705,96.749428 112.625641,105.985481 131.229004,108.844574 
	C140.350906,110.246498 149.735550,109.806999 158.747940,107.486282 
	C162.004608,106.647690 162.047897,107.644890 162.018448,110.071907 
	C161.951813,115.565628 161.997498,121.060722 161.997498,126.646408 
	C159.036926,127.305656 157.543640,124.848625 155.557846,123.815979 
	C144.131638,117.874191 132.208420,114.236397 119.280991,112.846535 
	C91.622498,109.872887 67.242241,117.697044 46.008438,134.780304 
	C31.767351,146.237717 20.841274,160.824905 13.748392,177.880615 
	C12.126488,181.780685 11.679213,186.173523 16.737122,189.129761 
	C17.977049,194.300674 16.015734,198.536957 13.294454,202.803101 
z"/>
<path fill="#FFFFFF" opacity="1.000000" stroke="none" 
	d="
M1.000000,400.468658 
	C2.689836,403.000732 3.052951,406.451569 4.788663,409.552063 
	C9.037204,417.141388 15.324971,421.010956 23.718510,422.006348 
	C36.307404,423.499298 48.893852,425.012878 62.040783,426.584564 
	C57.118534,430.309113 53.041035,434.595093 49.898449,439.650665 
	C44.438206,448.434692 44.511974,457.404205 49.737282,466.200409 
	C54.309391,473.897003 61.324886,477.461761 70.257912,478.083832 
	C79.035484,478.695068 85.840523,475.298523 91.453644,469.013336 
	C103.704262,455.296082 119.773392,448.546173 136.901123,443.486847 
	C140.029373,442.562805 140.026596,444.864258 140.452957,446.063873 
	C143.123795,453.578644 147.052078,460.304840 151.917587,466.606140 
	C160.774033,478.076202 171.812546,486.571106 185.239380,491.993744 
	C196.570038,496.569824 208.376312,498.079102 220.537857,498.045837 
	C262.032501,497.932373 303.543457,498.716156 345.018066,497.798157 
	C385.107574,496.910767 425.190735,497.628143 465.262573,496.838867 
	C480.066132,496.547272 491.743225,488.544952 500.878052,477.293091 
	C507.966614,468.561707 511.961517,458.143372 511.859680,446.939911 
	C511.642883,423.090485 499.604279,402.864563 472.792084,395.017517 
	C471.007477,394.495239 469.195892,394.065247 467.343567,393.578339 
	C494.106415,369.322021 508.374084,338.900696 512.604858,303.150696 
	C513.000000,371.630676 512.974976,440.261353 513.079285,508.891876 
	C513.084167,512.078125 512.758972,513.109802 509.112091,513.107117 
	C341.033691,512.983887 172.955170,512.983521 4.876777,513.108154 
	C1.207161,513.110840 0.909707,512.044739 0.920691,508.880615 
	C1.045588,472.899841 1.000000,436.918518 1.000000,400.468658 
z"/>
<path fill="#FFFFFF" opacity="1.000000" stroke="none" 
	d="
M1.000000,257.468658 
	C1.998550,261.963470 3.020374,266.922394 3.991462,271.891235 
	C7.475798,289.719849 14.320807,306.210938 23.345856,321.927826 
	C30.144255,333.767029 36.446133,345.891052 42.992161,357.875641 
	C45.890121,363.181274 48.845291,368.455688 51.939350,374.041901 
	C43.100296,373.942169 34.876629,372.268951 26.521856,371.822357 
	C14.843843,371.198181 1.998309,381.617676 1.383650,394.864014 
	C1.000000,349.312439 1.000000,303.624878 1.000000,257.468658 
z"/>
<path fill="#F44545" opacity="1.000000" stroke="none" 
	d="
M78.676353,134.203217 
	C92.020607,127.771362 105.845093,126.895157 119.890991,128.483810 
	C133.906525,130.069016 146.428879,135.497360 157.813049,143.860107 
	C166.216431,150.033188 174.309814,150.206589 182.699432,143.797272 
	C220.124832,115.205864 274.221558,125.678757 301.858063,166.211990 
	C321.628601,195.208557 327.634338,227.400375 322.493744,261.851440 
	C319.785706,280.000031 312.959656,296.734589 304.284637,312.760468 
	C297.792053,324.754547 291.066650,336.622589 284.567871,348.613403 
	C283.205017,351.127960 282.008881,351.988037 278.821716,351.268890 
	C261.475403,347.354797 244.261230,342.840576 226.748352,339.653931 
	C222.762543,338.928650 218.793198,338.986359 214.817673,338.868866 
	C209.235306,338.703918 207.315979,340.428894 205.917770,346.531372 
	C201.661087,349.584137 196.840179,349.817657 191.723846,350.290161 
	C187.200653,345.068604 184.520096,344.565521 178.884720,347.521637 
	C166.700592,353.913116 156.559372,362.599182 149.132004,374.226440 
	C147.268967,377.142944 145.725754,377.288025 142.789230,375.664948 
	C126.770218,366.810699 112.930244,355.771332 103.849876,339.422729 
	C98.918388,330.543915 90.728264,327.098572 80.430099,327.062439 
	C74.986427,319.649902 72.214294,311.245087 69.100250,303.062012 
	C58.730000,275.810974 54.376099,247.478149 55.681454,218.413147 
	C56.925060,190.723007 63.022655,164.099228 75.446724,139.126831 
	C76.261581,137.488983 77.136665,135.877823 78.676353,134.203217 
z"/>
<path fill="#35E197" opacity="1.000000" stroke="none" 
	d="
M454.459106,281.564667 
	C460.795135,278.145142 461.706482,276.192780 460.109009,269.679199 
	C451.269104,233.635956 418.637848,208.427017 381.441528,208.924591 
	C378.278717,208.966888 375.117493,209.125580 371.487671,209.212158 
	C368.791168,206.149612 368.289124,202.433823 367.290100,198.968170 
	C360.998688,177.143173 349.870636,158.370377 332.891937,143.132492 
	C330.438110,140.930267 327.013428,139.832031 325.269958,136.303528 
	C326.378204,117.476723 325.629272,98.687576 333.880219,81.235794 
	C340.271515,67.717369 349.017334,56.497375 362.941498,50.288815 
	C381.299896,42.103107 402.327179,47.985489 416.127655,64.922119 
	C427.929352,79.405716 433.415497,96.335518 433.895020,114.747246 
	C434.464417,136.609711 437.832855,157.747543 447.046997,177.753998 
	C452.670410,189.964020 460.201752,200.844223 469.380768,210.628525 
	C494.281769,237.171463 500.957001,269.161804 496.589966,304.102570 
	C493.404572,329.589355 483.887085,352.561768 466.713745,372.013367 
	C461.402679,378.029022 455.384460,383.257355 448.693359,387.722321 
	C446.890106,388.925629 445.164185,389.278137 443.068726,388.795776 
	C405.653198,380.183258 368.229553,371.605835 330.421997,362.926300 
	C327.812195,359.068298 330.196777,356.482574 332.715881,353.649506 
	C343.800964,360.628998 355.199432,365.887665 367.990173,368.519623 
	C408.732361,376.903320 453.284027,347.186798 460.813141,306.205109 
	C461.681915,301.476288 460.066620,298.083588 455.133972,296.157013 
	C452.574493,291.402374 453.261932,286.682983 454.459106,281.564667 
z"/>
<path fill="#FEB42D" opacity="1.000000" stroke="none" 
	d="
M191.370636,350.532928 
	C195.752243,348.467194 200.306320,347.354401 205.439270,346.931732 
	C207.086700,352.263672 210.916245,353.797119 215.891068,353.955261 
	C222.504593,354.165405 222.628448,354.270325 221.949036,360.947845 
	C220.871445,371.538696 219.634445,382.113739 218.406570,392.688690 
	C217.741058,398.420349 219.986847,402.301666 224.516968,402.997498 
	C229.160507,403.710754 232.512405,400.858215 233.242249,395.038818 
	C234.628998,383.981232 235.946838,372.909180 236.940582,361.811523 
	C237.261841,358.223907 238.330902,357.306946 241.801010,358.115662 
	C263.484406,363.169037 285.190308,368.127167 306.914246,373.003448 
	C309.715790,373.632324 310.748871,374.671661 310.261627,377.694580 
	C309.495270,382.449341 309.135254,387.278198 308.783142,392.088898 
	C308.376892,397.638672 310.856781,401.123077 315.288177,401.571442 
	C319.617401,402.009430 322.923004,398.969330 323.706421,393.578430 
	C324.256378,389.794312 324.852783,385.975281 324.877838,382.168213 
	C324.903229,378.312164 326.088593,377.347748 329.926910,378.245300 
	C359.533142,385.168488 389.178680,391.923401 418.815125,398.717102 
	C423.835968,399.868042 428.846680,401.089508 433.909180,402.023010 
	C437.176056,402.625397 438.612823,403.688324 438.127167,407.528442 
	C436.165222,423.040131 434.601562,438.602173 432.774292,454.573273 
	C431.427521,456.368805 429.744568,456.507782 428.100189,456.524628 
	C415.386749,456.654938 402.672760,456.647064 389.959137,456.533386 
	C388.633301,456.521515 387.323547,456.322174 385.768188,455.334381 
	C384.168884,451.454834 381.921967,449.043396 377.955292,449.065796 
	C374.264465,449.086639 371.896271,451.089600 370.651917,454.907654 
	C365.643372,457.334045 360.440643,457.459412 355.361877,457.527283 
	C337.793030,457.762146 320.219940,457.629517 302.648468,457.603546 
	C300.665863,457.600616 298.651520,457.659882 296.456635,456.290833 
	C291.326721,448.893738 285.953308,448.745880 281.462341,455.825073 
	C280.666870,456.436157 280.105652,456.976593 279.490173,457.018250 
	C268.613800,457.754517 257.732910,458.490631 246.508621,456.301300 
	C246.519989,451.511658 247.025940,447.052704 247.268433,442.579437 
	C247.543793,437.500092 245.237045,434.390625 241.091736,433.840179 
	C236.574615,433.240387 233.302643,435.654175 232.457474,440.758087 
	C231.671112,445.506805 231.360321,450.334229 230.702835,455.547302 
	C229.151459,457.539886 227.229980,457.301514 225.438492,457.295654 
	C192.696594,457.188751 165.973129,438.399902 154.562088,408.378021 
	C153.588623,405.816803 153.372101,403.214142 153.735428,400.167786 
	C158.671844,382.399506 169.414139,369.796082 185.093887,361.228210 
	C189.237457,358.964020 192.903656,356.571381 191.370636,350.532928 
z"/>
<path fill="#AD583E" opacity="1.000000" stroke="none" 
	d="
M454.368530,281.123077 
	C454.784485,285.804718 454.826691,290.433319 454.843262,295.524841 
	C449.767120,296.098358 447.158112,298.727142 445.860168,303.599091 
	C438.657410,330.636017 421.349274,347.750946 393.990265,353.360046 
	C374.515350,357.352722 356.474976,352.762238 340.823273,339.413177 
	C341.910858,333.837463 345.253235,329.590363 347.787292,324.968262 
	C357.718811,306.853424 367.198090,288.571136 370.874725,267.947479 
	C373.183838,254.994522 374.701416,241.979080 372.928619,228.800781 
	C372.771515,227.632797 372.824554,226.476044 373.594666,225.040924 
	C390.374298,222.036545 405.418793,226.263870 419.133728,235.477661 
	C432.352386,244.358063 440.925751,256.693573 445.083405,272.096771 
	C446.334290,276.731171 447.847565,281.236908 454.368530,281.123077 
z"/>
<path fill="#C32D2D" opacity="1.000000" stroke="none" 
	d="
M78.563446,133.885483 
	C78.421783,138.624695 75.443779,142.383652 73.572128,146.549271 
	C65.959183,163.492905 61.410069,181.196960 58.920612,199.544373 
	C57.443695,210.429337 56.764606,221.324097 56.995975,232.292618 
	C57.605152,261.172607 63.796188,288.796021 75.550537,315.185059 
	C77.165291,318.810242 78.528816,322.547333 80.007866,326.612610 
	C75.489464,328.539093 70.789062,329.589294 66.940247,332.749023 
	C61.355618,337.333832 58.507374,343.279114 57.591686,351.705902 
	C53.700649,344.657318 50.313053,338.655304 47.050941,332.585907 
	C37.614929,315.029510 26.981716,298.080322 21.539684,278.581940 
	C15.755757,257.858551 14.561728,237.024567 18.472036,215.886597 
	C19.799271,208.711945 19.051220,206.835342 13.148551,203.193039 
	C14.261706,198.641220 15.605467,194.351669 17.011847,189.697968 
	C23.879780,190.139069 25.678621,189.296494 28.736137,182.828171 
	C36.194401,167.049850 46.356499,153.482346 60.670044,143.286850 
	C66.094154,139.423264 71.821846,136.041489 78.563446,133.885483 
z"/>
<path fill="#1AB774" opacity="1.000000" stroke="none" 
	d="
M62.849361,391.095459 
	C70.567688,391.976593 77.828194,392.879974 85.102989,393.648041 
	C88.504105,394.007111 91.340584,392.921967 93.041588,389.703522 
	C94.754585,386.462341 94.024635,383.496643 91.726151,380.951935 
	C85.463829,374.018646 79.549385,366.847229 75.034760,358.608704 
	C73.381958,355.592560 72.210983,352.489655 73.450630,349.094849 
	C74.810173,345.371704 77.555542,342.904144 81.524628,342.527161 
	C85.632843,342.136993 89.003937,343.851593 91.143181,347.515411 
	C96.813431,357.226562 103.738853,365.858734 112.366890,373.148254 
	C119.784454,379.415070 127.788971,384.769409 136.459549,389.064789 
	C139.676025,390.658203 140.199783,392.353638 139.088623,395.676208 
	C136.098969,404.615845 135.384583,413.906433 136.047440,423.275146 
	C136.255295,426.212891 135.562668,427.584106 132.394806,428.438385 
	C112.131264,433.902954 93.919350,442.999908 79.416634,458.716522 
	C74.545746,463.995026 68.638794,464.107086 64.460480,459.865570 
	C60.594658,455.941284 60.942612,450.020355 65.381065,445.125763 
	C71.108498,438.809784 77.444397,433.190094 84.584076,428.499634 
	C88.087807,426.197845 91.111984,423.503937 89.781174,418.751068 
	C88.477913,414.096588 84.671997,413.310181 80.415779,412.864777 
	C62.556335,410.995758 44.713020,408.966858 26.876659,406.886292 
	C20.554554,406.148804 16.374598,401.268341 17.076162,395.854034 
	C17.827091,390.058807 23.054396,386.647583 29.678974,387.423798 
	C40.577583,388.700867 51.490509,389.855804 62.849361,391.095459 
z"/>
<path fill="#7C3F2C" opacity="1.000000" stroke="none" 
	d="
M373.349182,224.696732 
	C377.430817,253.158386 372.008911,279.956573 359.322174,305.585205 
	C353.725372,316.891418 347.762054,327.961212 340.979065,338.948242 
	C331.733032,333.169586 326.342590,324.502136 322.067963,314.994049 
	C321.318024,313.325928 322.075714,311.765533 322.817108,310.228729 
	C333.067841,288.980225 339.426147,266.777283 339.150726,242.976120 
	C339.125244,240.776581 339.892059,239.147186 341.622620,237.831192 
	C350.929626,230.753555 361.071289,225.691025 373.349182,224.696732 
z"/>
<path fill="#FCA70B" opacity="1.000000" stroke="none" 
	d="
M385.358826,455.457184 
	C400.859558,455.000336 416.312561,455.000336 432.211670,455.000610 
	C432.782104,459.659363 434.696136,463.009430 439.610107,463.728241 
	C443.642914,464.318146 446.373474,461.550537 448.032166,455.367859 
	C449.742401,453.471588 451.786407,453.609070 453.764343,453.586029 
	C458.076630,453.535828 462.393951,453.444885 466.701263,453.594269 
	C475.226166,453.889893 483.156525,452.023315 490.461914,447.572021 
	C491.873199,446.712128 493.295349,445.818939 495.454102,445.892395 
	C496.500214,462.664246 482.668091,478.875397 465.812103,481.072632 
	C462.027893,481.565918 458.184906,481.800079 454.367584,481.815948 
	C432.043793,481.908844 409.718536,481.797028 387.396545,482.025665 
	C383.460083,482.066010 382.600647,480.974426 383.106750,477.257690 
	C384.071289,470.174438 384.600922,463.031921 385.358826,455.457184 
z"/>
<path fill="#FDA80B" opacity="1.000000" stroke="none" 
	d="
M153.621277,400.086853 
	C155.524017,410.987366 160.781235,420.623535 167.783295,429.097137 
	C178.768646,442.391327 192.717636,451.339722 209.948227,454.428345 
	C216.455170,455.594696 223.038483,456.404175 230.129608,455.973328 
	C229.730896,463.732697 228.818176,471.490692 228.113861,479.267609 
	C227.926178,481.340057 227.297058,482.058624 225.150787,482.164764 
	C204.583389,483.182159 185.681580,479.073486 170.566589,464.006836 
	C152.665451,446.162872 147.303970,424.770996 153.621277,400.086853 
z"/>
<path fill="#1AB874" opacity="1.000000" stroke="none" 
	d="
M324.961975,136.373718 
	C347.385925,151.079895 360.666534,172.457428 368.129211,197.866684 
	C369.150665,201.344620 370.928833,204.620392 371.014893,208.775757 
	C359.761871,211.463287 348.802948,214.561035 338.529541,221.471207 
	C337.341095,215.636353 336.395172,210.354614 335.177002,205.136398 
	C332.099609,191.953751 327.359772,179.382751 320.646332,167.614746 
	C319.116730,164.933472 318.846649,162.551437 319.843079,159.615799 
	C322.359802,152.201065 323.584045,144.470245 324.961975,136.373718 
z"/>
<path fill="#FEA80B" opacity="1.000000" stroke="none" 
	d="
M296.034546,456.430176 
	C315.948944,455.979706 335.825043,455.958466 355.701019,456.001526 
	C360.325989,456.011536 364.826691,454.328827 369.976929,455.138428 
	C369.629852,462.958252 368.651276,470.718781 368.042969,478.508179 
	C367.815582,481.419525 366.645477,482.009277 364.000885,482.001831 
	C341.863678,481.939667 319.725739,481.941833 297.589142,482.093811 
	C294.501312,482.114990 293.579407,481.391541 293.927246,478.216309 
	C294.704926,471.116699 296.086884,464.067413 296.034546,456.430176 
z"/>
<path fill="#FDB42D" opacity="1.000000" stroke="none" 
	d="
M495.951172,445.574524 
	C483.688324,455.484222 469.444580,455.598389 455.040466,455.021057 
	C453.048553,454.941223 451.050751,455.009979 448.595947,455.009491 
	C449.773438,439.644714 451.420074,424.281372 453.032135,408.914429 
	C453.179291,407.511444 453.679993,406.672638 455.203003,407.001099 
	C466.895660,409.522919 478.816162,411.451355 487.201385,421.428955 
	C492.996674,428.324707 496.116425,436.110779 495.951172,445.574524 
z"/>
<path fill="#1AB774" opacity="1.000000" stroke="none" 
	d="
M154.873199,82.741745 
	C159.385818,93.847580 159.169464,91.897736 149.661118,93.375473 
	C134.699066,95.700806 120.966721,91.638954 108.409470,83.558044 
	C89.364845,71.302322 76.958717,53.397366 66.107697,33.509254 
	C72.370903,32.266491 78.226288,31.972309 84.577042,32.137409 
	C92.079498,41.246506 98.550690,50.721821 106.910614,58.701694 
	C120.004387,71.200211 134.761963,80.192673 153.203217,81.960144 
	C153.698364,82.007599 154.149918,82.257431 154.873199,82.741745 
z"/>
<path fill="#1ED487" opacity="1.000000" stroke="none" 
	d="
M155.134888,82.577728 
	C139.783646,83.101715 126.963074,76.374321 115.115250,67.517891 
	C103.157921,58.579597 94.086189,46.896709 85.539001,34.808311 
	C85.186317,34.309494 85.193550,33.556190 85.033966,32.568367 
	C117.816360,32.114048 144.424728,51.097656 155.134888,82.577728 
z"/>
<path fill="#FDA80B" opacity="1.000000" stroke="none" 
	d="
M246.018768,456.381592 
	C257.504517,455.992004 268.878632,456.007050 280.736053,456.045044 
	C280.441498,463.506836 279.579468,470.938354 278.931641,478.388458 
	C278.705414,480.990051 277.954651,482.170441 275.044220,482.119690 
	C265.564789,481.954315 256.079071,481.992767 246.598572,482.137299 
	C243.842834,482.179291 242.777603,481.612091 243.230148,478.559082 
	C244.302002,471.328094 245.036346,464.047058 246.018768,456.381592 
z"/>
<path fill="#1AB573" opacity="1.000000" stroke="none" 
	d="
M332.911224,353.217468 
	C332.363556,356.443909 329.700806,358.723969 330.008484,362.450623 
	C319.558716,360.470490 309.081116,358.109222 297.950378,355.600769 
	C302.700500,346.939117 307.271484,338.604095 312.259216,329.509216 
	C317.979370,338.939240 324.829346,346.431976 332.911224,353.217468 
z"/>
</svg>