<svg version="1.1" id="Layer_1" xmlns="http://www.w3.org/2000/svg" xmlns:xlink="http://www.w3.org/1999/xlink" x="0px" y="0px"
	 width="100%" viewBox="0 0 512 512" enable-background="new 0 0 512 512" xml:space="preserve">
<path fill="#000000" opacity="1.000000" stroke="none" 
	d="
M513.000000,186.000000 
	C513.000000,293.807129 512.980225,401.114319 513.085266,508.421326 
	C513.088806,512.022339 512.510254,513.108765 508.580688,513.105896 
	C340.788422,512.982788 172.996033,512.983582 5.203763,513.106201 
	C1.473707,513.108887 0.911167,512.187927 0.913228,508.705688 
	C1.012553,340.913391 1.010976,173.121017 0.921952,5.328697 
	C0.920158,1.945997 1.341007,0.883552 5.169359,0.886548 
	C173.128250,1.017979 341.087280,1.014587 509.046204,0.899937 
	C512.561401,0.897538 513.096802,1.719025 513.089966,5.044486 
	C512.966431,65.196129 513.000000,125.348099 513.000000,186.000000 
z"/>
<path fill="#172282" opacity="1.000000" stroke="none" 
	d="
M10.006866,254.000000 
	C10.006911,235.669205 9.973923,217.838318 10.017124,200.007629 
	C10.053684,184.918243 18.472801,174.190796 32.945602,170.447174 
	C35.111221,169.887009 37.237167,170.026657 39.378311,170.026093 
	C126.699249,170.003281 214.020187,170.006454 301.341125,170.006348 
	C303.165802,170.006348 304.990479,170.006348 307.632111,170.006348 
	C305.002350,165.634598 302.583618,161.833542 300.379822,157.911697 
	C291.135193,141.460251 288.544434,123.887405 290.704071,105.212738 
	C292.432220,90.269562 297.915497,76.998993 306.983978,65.338638 
	C320.596283,47.835793 338.189545,36.429508 360.443695,32.999691 
	C384.163513,29.343988 405.890686,34.195774 425.213745,48.625698 
	C440.351105,59.929821 450.747162,74.492386 456.200256,92.806198 
	C462.512421,114.005280 460.052826,134.257416 451.336884,154.105530 
	C449.338196,158.657013 446.558655,162.807266 443.641724,166.840851 
	C443.094849,167.597122 441.898499,168.205032 442.587036,169.337601 
	C443.185120,170.321365 444.379059,169.983582 445.326782,169.986206 
	C454.992004,170.013092 464.657623,170.052261 474.322571,169.995911 
	C491.005920,169.898651 503.831482,181.767303 503.894379,198.755920 
	C504.134369,263.579163 504.091766,328.404114 503.923645,393.227783 
	C503.879150,410.380951 489.530579,422.066467 474.164551,422.044098 
	C397.508911,421.932587 320.852936,422.043854 244.197540,421.872803 
	C239.383759,421.862061 237.797150,423.287628 236.731384,427.907532 
	C232.174454,447.661102 222.284302,464.674164 207.194519,478.076477 
	C190.887115,492.560272 171.774155,501.051788 149.644119,503.191711 
	C129.472717,505.142242 110.723480,501.371796 93.180107,491.947113 
	C71.360443,480.225189 56.026352,462.463623 47.165298,439.241852 
	C46.930271,438.625885 46.918114,437.913940 46.631783,437.330261 
	C44.414074,432.809235 45.186100,426.672638 42.331371,423.361786 
	C39.492439,420.069244 32.995747,421.970673 28.432192,419.983887 
	C18.200350,415.529388 10.023833,406.333008 10.016218,391.980652 
	C9.991904,346.153778 10.006989,300.326874 10.006866,254.000000 
z"/>
<path fill="#151F81" opacity="1.000000" stroke="none" 
	d="
M236.839203,89.595245 
	C241.433304,89.971802 245.761490,90.058434 250.086655,89.979324 
	C253.958893,89.908501 257.308167,90.538895 259.214752,94.515770 
	C261.178925,98.612801 259.581238,102.152840 257.234344,105.134544 
	C244.209396,121.682579 230.999359,138.085083 217.826813,154.516663 
	C214.436218,158.746124 207.825623,159.022446 204.362793,154.764664 
	C194.472214,142.603638 184.783051,130.278870 175.007416,118.024292 
	C171.611542,113.767296 168.342041,109.396797 164.740143,105.320862 
	C161.885605,102.090660 161.199097,98.655167 162.707748,94.782715 
	C164.285278,90.733498 167.674881,89.846573 171.631134,89.978096 
	C174.955917,90.088623 178.303726,89.792610 181.611450,90.054237 
	C185.225708,90.340111 186.081680,88.805313 186.060410,85.437859 
	C185.935272,65.634087 185.999512,45.829124 186.000031,26.024561 
	C186.000061,24.693163 185.981171,23.361420 186.004532,22.030424 
	C186.102676,16.437679 188.836136,12.095353 192.862015,11.112421 
	C196.622055,10.194394 200.360397,12.820426 202.991089,18.539009 
	C203.933060,20.907982 204.110428,23.026802 204.107452,25.215740 
	C204.076279,48.186779 204.123611,71.157921 204.071823,94.128929 
	C204.051102,103.321686 202.735748,105.158539 193.885727,108.005966 
	C191.600174,108.741318 191.750519,109.759277 192.906464,111.185432 
	C198.245255,117.772194 203.460770,124.457520 208.807755,131.036987 
	C210.331696,132.912186 212.006058,132.595398 213.397873,130.837936 
	C218.559113,124.320747 223.721161,117.804771 228.995804,111.378441 
	C230.756866,109.232887 229.865921,108.490433 227.471375,107.744621 
	C220.826385,105.674995 219.014923,103.070389 218.941422,96.088074 
	C218.867859,89.097794 218.719040,82.100677 219.012665,75.116997 
	C219.275589,68.863525 222.730850,65.802803 228.681122,66.650177 
	C233.514542,67.196526 235.983810,69.492462 236.041290,74.530128 
	C237.047256,79.660835 236.176788,84.469460 236.839203,89.595245 
z"/>
<path fill="#161F81" opacity="1.000000" stroke="none" 
	d="
M116.720963,49.861568 
	C122.632248,51.170200 125.063911,54.649036 125.035995,60.273438 
	C124.997932,67.939186 125.109962,67.939751 133.222366,68.001251 
	C140.335617,68.055183 142.828934,70.997192 142.041275,77.896088 
	C141.778824,80.194901 140.167755,81.412994 138.979660,82.867523 
	C129.885117,94.001549 120.815765,105.166145 111.364159,115.994415 
	C106.408302,121.672112 102.560112,121.692543 97.646355,115.987663 
	C89.454491,106.476921 81.749374,96.544487 73.920807,86.724640 
	C71.306694,83.445602 67.643112,80.793922 67.944237,75.750870 
	C68.265884,70.364227 70.136482,68.200096 75.469742,68.004494 
	C85.000923,67.654930 85.000847,67.654930 85.000977,58.078274 
	C85.001137,45.579800 84.982399,33.081284 85.010132,20.582872 
	C85.022995,14.789068 87.506172,11.659455 92.409714,11.089072 
	C96.432373,10.621155 99.486221,13.155643 101.078278,18.617353 
	C102.906509,20.606241 103.071136,22.731762 103.072418,24.943201 
	C103.081749,41.072567 103.100204,57.201885 103.062103,73.331284 
	C103.053444,76.999557 102.075394,80.293747 99.314690,82.769112 
	C97.214325,84.652374 96.597176,86.393738 98.726280,88.618797 
	C100.720383,90.702759 101.859200,94.793716 104.977356,94.275795 
	C108.425903,93.702995 109.841148,89.617004 111.884331,86.858681 
	C113.033188,85.307732 111.831436,84.026939 110.749809,82.962067 
	C107.671562,79.931488 106.806351,76.183556 106.906006,72.018936 
	C107.009415,67.698250 106.708153,63.361938 107.043739,59.053387 
	C107.518509,52.957840 110.837898,49.765015 116.720963,49.861568 
z"/>
<path fill="#33C89F" opacity="1.000000" stroke="none" 
	d="
M229.000793,66.423111 
	C222.376801,68.268066 220.848999,70.034256 220.798782,76.614548 
	C220.749176,83.113747 220.754715,89.613808 220.795410,96.113121 
	C220.841690,103.506271 223.195007,105.804420 230.741104,105.960655 
	C231.739929,105.981331 232.740845,105.990067 233.735382,106.070755 
	C234.012024,106.093193 234.269333,106.354019 235.177124,106.870590 
	C231.836182,111.054047 228.566528,115.154007 225.290512,119.248894 
	C221.231033,124.323074 217.136566,129.369705 213.120804,134.478210 
	C211.811996,136.143158 210.863754,137.202591 209.025024,134.857544 
	C201.742371,125.569550 194.313553,116.396164 186.741821,106.933990 
	C189.053085,105.382889 191.239090,106.062950 193.267166,105.980560 
	C199.473373,105.728455 202.084534,103.055511 202.094772,96.475769 
	C202.131577,72.810715 202.102112,49.145573 202.127594,25.480490 
	C202.129730,23.494869 202.354996,21.509491 202.760620,19.205963 
	C208.366348,18.919250 213.688080,18.950573 219.472137,18.948326 
	C222.940704,19.201250 222.870544,21.573175 223.020111,23.655165 
	C223.245285,26.789600 223.426651,29.977016 223.054489,33.072296 
	C222.342682,38.992519 224.130936,43.680702 228.960693,47.671310 
	C229.022888,54.050621 229.013504,60.008152 229.000793,66.423111 
z"/>
<path fill="#F0867E" opacity="1.000000" stroke="none" 
	d="
M117.057648,49.511566 
	C110.520340,51.731655 108.285736,56.159073 108.950653,62.697716 
	C109.302719,66.159920 108.998672,69.687439 109.016541,73.185341 
	C109.050430,79.819405 110.275520,81.530655 117.299660,84.016418 
	C113.370506,88.751175 109.590553,93.267975 105.860519,97.825638 
	C104.823486,99.092766 104.065460,98.858749 103.152481,97.703018 
	C100.055946,93.783127 96.914230,89.898895 93.787308,86.003029 
	C92.784241,84.753288 92.346703,83.694489 94.494286,83.200729 
	C100.072830,81.918167 100.942596,77.780090 100.927803,72.888252 
	C100.874405,55.232384 100.939178,37.576160 101.043030,19.455814 
	C103.416832,18.992958 105.706924,18.994362 108.427887,18.999638 
	C111.156517,20.284601 111.204544,22.565012 111.024933,24.669601 
	C110.465652,31.222824 111.423164,37.117836 117.147675,41.663212 
	C117.057167,44.404648 117.036980,46.740334 117.057648,49.511566 
z"/>
<path fill="#152081" opacity="1.000000" stroke="none" 
	d="
M229.398224,48.052597 
	C221.423630,45.484337 220.844955,44.600735 220.770142,36.340317 
	C220.719635,30.762245 220.532913,25.185404 220.170792,19.261385 
	C222.486893,11.847513 225.813950,9.873242 231.398026,11.971986 
	C234.765930,13.237793 236.387115,15.504940 236.042694,19.519485 
	C236.989151,26.326681 236.313522,32.767647 236.254547,39.637558 
	C236.152649,44.464382 233.807785,46.913052 229.398224,48.052597 
z"/>
<path fill="#161F81" opacity="1.000000" stroke="none" 
	d="
M117.450294,42.041176 
	C109.703194,39.109871 109.022827,38.078728 109.013351,29.886547 
	C109.009514,26.569126 108.994270,23.251717 108.921494,19.468906 
	C109.473488,13.896300 112.481201,10.983540 117.065285,11.056087 
	C120.825745,11.115601 124.707916,14.863853 124.916878,19.181669 
	C125.164185,24.291471 125.188225,29.433386 124.916130,34.540447 
	C124.688477,38.813179 122.230026,41.460091 117.450294,42.041176 
z"/>
<path fill="#000080" opacity="1.000000" stroke="none" 
	d="
M236.359558,39.777130 
	C236.051453,33.676861 236.038757,27.271278 236.045105,20.391518 
	C237.924194,26.385248 236.860550,32.941494 236.359558,39.777130 
z"/>
<path fill="#000080" opacity="1.000000" stroke="none" 
	d="
M237.070435,89.496895 
	C234.811401,85.406403 236.515823,80.549049 236.045181,75.388885 
	C238.027237,79.511444 236.512238,84.343971 237.070435,89.496895 
z"/>
<path fill="#FEFEFF" opacity="1.000000" stroke="none" 
	d="
M73.451569,329.297577 
	C69.309700,327.939240 65.583511,326.307800 61.692257,325.643951 
	C57.874142,324.992615 56.686623,323.597626 56.766754,319.595062 
	C57.063580,304.769104 56.943043,289.933228 56.832745,275.102142 
	C56.812397,272.365448 57.389652,271.343567 60.408764,270.631165 
	C84.928551,264.845123 100.162964,249.525299 105.830826,224.958252 
	C106.411484,222.441422 107.184029,221.478149 109.623283,221.741028 
	C110.446922,221.829803 111.288261,221.753952 112.121513,221.753952 
	C208.778870,221.753891 305.436249,221.775803 402.093475,221.673737 
	C405.962280,221.669647 407.563141,222.401596 408.607697,226.618912 
	C414.526154,250.513580 429.947174,265.109772 453.804413,270.696198 
	C456.561401,271.341797 457.183594,272.241730 457.166107,274.823608 
	C457.062256,290.154755 457.059296,305.487396 457.166321,320.818481 
	C457.185486,323.565887 456.597595,324.579468 453.565948,325.288452 
	C429.447571,330.928986 414.221497,345.949280 408.385468,370.006134 
	C407.475769,373.756012 406.112732,374.245972 402.876190,374.235718 
	C372.212799,374.138580 341.548950,374.177856 310.885254,374.177887 
	C286.887573,374.177887 262.889526,374.117432 238.892578,374.248932 
	C235.630432,374.266785 234.108459,373.496796 232.838135,370.181244 
	C222.130783,342.235229 202.763062,322.731079 174.795288,311.945435 
	C172.136078,310.919922 171.367905,310.236298 172.491348,307.146301 
	C176.831268,295.209686 174.377213,284.365082 165.363922,275.502167 
	C156.508194,266.794189 145.727921,264.416656 134.038864,268.724915 
	C122.159805,273.103180 115.795898,282.148468 114.209000,294.604523 
	C113.738213,298.299927 114.347954,301.945526 115.531998,305.430267 
	C116.256523,307.562592 116.223320,308.618896 113.667969,309.323273 
	C99.840446,313.134918 87.440582,319.733063 76.479568,328.999817 
	C75.635735,329.713226 74.823196,330.091003 73.451569,329.297577 
z"/>
<path fill="#2AABF5" opacity="1.000000" stroke="none" 
	d="
M71.771637,249.864197 
	C65.221321,253.844299 58.518089,255.957016 51.168423,256.299438 
	C43.783203,256.643463 41.360115,259.263336 41.338810,266.624084 
	C41.278042,287.620026 41.271545,308.616394 41.345020,329.612274 
	C41.369167,336.512207 43.659309,338.806824 50.491982,339.577271 
	C53.461853,339.912140 56.410240,340.433167 59.375103,340.817871 
	C63.268017,341.322998 63.048214,342.817932 60.958080,345.588409 
	C52.200485,357.196594 46.463043,370.211731 43.458443,384.439728 
	C42.215240,390.326752 41.576061,396.301086 41.452946,402.286041 
	C41.375668,406.042847 39.556156,406.335449 36.675953,405.783936 
	C30.925373,404.682739 26.694220,400.021057 26.114973,394.004242 
	C25.987692,392.682129 26.052534,391.340210 26.052483,390.007416 
	C26.050112,327.352295 26.047573,264.697174 26.052784,202.042068 
	C26.053745,190.480728 30.544994,185.901764 41.943043,185.900681 
	C134.759262,185.891846 227.575470,185.899002 320.391693,185.878815 
	C323.079132,185.878220 325.683441,185.932587 328.121948,187.317596 
	C329.467560,188.081879 331.154694,188.320053 332.473755,187.580307 
	C336.683838,185.219284 341.219879,185.926758 345.663849,185.915955 
	C365.326752,185.868118 384.989899,185.877411 404.652863,185.909714 
	C408.772888,185.916489 412.989624,185.278549 416.842285,187.560760 
	C417.490753,187.944901 418.562836,188.066513 419.274139,187.824432 
	C430.820679,183.894821 442.717834,186.605194 454.431335,185.961868 
	C461.076477,185.596924 467.759857,185.819290 474.423553,185.928665 
	C482.658905,186.063858 487.899323,191.147888 487.907593,199.419693 
	C487.971832,263.741089 487.974365,328.062622 487.907379,392.384003 
	C487.898254,401.151459 482.403076,405.981995 472.950226,405.985260 
	C422.126282,406.002716 371.302307,405.993866 320.478363,405.993958 
	C294.983063,405.994019 269.487274,405.916595 243.992981,406.076263 
	C240.136871,406.100403 238.345139,405.132324 238.993851,401.118896 
	C239.072479,400.632446 238.947891,400.115814 239.000015,399.621887 
	C239.329056,396.504272 236.879425,392.604553 238.895370,390.552063 
	C241.090439,388.317108 245.242950,389.776886 248.525970,389.773712 
	C302.349335,389.721375 356.172760,389.738190 409.996155,389.735016 
	C420.031860,389.734436 421.562012,388.380737 422.641602,378.622498 
	C425.094177,356.454132 440.226196,341.667511 462.501831,339.672028 
	C470.590881,338.947388 472.660126,336.765289 472.673676,328.624268 
	C472.707794,308.128113 472.712219,287.631805 472.670715,267.135681 
	C472.654480,259.124695 470.365570,256.783966 462.346252,256.226593 
	C440.864960,254.733566 424.827698,239.124115 422.691833,217.629990 
	C421.691376,207.561813 420.173065,206.207703 409.842438,206.207596 
	C307.861237,206.206482 205.880051,206.206345 103.898865,206.207825 
	C93.917572,206.207977 92.208618,207.646698 91.344086,217.390793 
	C90.111595,231.282028 83.474945,241.879715 71.771637,249.864197 
z"/>
<path fill="#FDC309" opacity="1.000000" stroke="none" 
	d="
M94.019684,334.984375 
	C139.790665,305.572052 199.900620,324.728485 218.152725,375.107971 
	C229.498398,406.424225 224.477905,435.956726 201.595993,460.722626 
	C178.716080,485.486389 149.799805,493.743195 117.431953,484.507507 
	C85.079781,475.276306 64.575775,453.009430 58.484715,419.933289 
	C52.005802,384.750946 64.703209,356.249908 94.019684,334.984375 
z"/>
<path fill="#F1867E" opacity="1.000000" stroke="none" 
	d="
M305.798279,118.927582 
	C305.587128,81.899086 331.640015,51.600616 366.293152,48.077068 
	C402.797729,44.365269 435.199219,67.518929 442.405396,103.331436 
	C447.501770,128.658920 439.515137,150.257996 421.203339,168.237488 
	C419.504852,169.905197 417.630981,170.425446 415.358490,170.422867 
	C388.373413,170.392166 361.388214,170.376663 334.403259,170.444290 
	C331.693237,170.451080 329.684326,169.567810 327.774567,167.690506 
	C314.254456,154.400070 306.491730,138.526031 305.798279,118.927582 
z"/>
<path fill="#33C89F" opacity="1.000000" stroke="none" 
	d="
M153.523438,285.385620 
	C159.544342,291.635834 160.663010,298.112213 157.094879,304.068207 
	C156.069839,305.779236 154.993835,306.814117 152.735306,306.455719 
	C147.142654,305.568207 141.475479,305.638550 135.846237,305.920288 
	C132.961166,306.064667 131.675522,304.803802 130.703247,302.371368 
	C128.378235,296.554749 129.987595,289.817078 134.872345,285.648834 
	C140.215820,281.089142 146.263000,280.926300 153.523438,285.385620 
z"/>
<path fill="#192383" opacity="1.000000" stroke="none" 
	d="
M288.115295,267.051819 
	C286.944641,272.939423 284.777924,274.906189 279.359589,274.945129 
	C268.527130,275.023010 257.693604,274.944641 246.860718,274.982269 
	C241.959869,274.999298 239.209503,277.339050 239.080765,281.430878 
	C238.958145,285.327850 242.358521,288.971405 246.731155,289.095093 
	C253.559067,289.288147 260.397156,289.085510 267.228699,289.193390 
	C280.341339,289.400482 289.622711,297.903931 290.137756,310.060822 
	C290.671722,322.664093 281.410278,333.125763 268.473053,334.072388 
	C265.288055,334.305420 264.486786,335.387329 264.731903,338.283813 
	C265.005341,341.515228 264.587891,344.654083 261.788483,346.882843 
	C259.350342,348.823975 256.617340,349.197021 253.821136,347.900665 
	C250.607422,346.410706 248.873795,343.555420 249.340439,340.213623 
	C250.107483,334.720581 247.609833,333.711365 242.916702,334.193390 
	C239.618744,334.532104 236.253189,334.348969 232.924622,334.221283 
	C227.854263,334.026733 224.860184,331.129913 224.858810,326.623474 
	C224.857437,322.127625 227.919098,319.050568 232.925720,318.997803 
	C243.757690,318.883636 254.592194,318.899689 265.424530,318.993774 
	C268.645325,319.021759 271.346863,318.237488 273.303833,315.592041 
	C274.890594,313.447052 275.412903,311.191620 274.263885,308.575012 
	C273.117310,305.964020 271.267578,304.726746 268.464783,304.724823 
	C261.298615,304.719940 254.127747,304.846252 246.967361,304.632233 
	C236.463852,304.318207 227.937256,297.872070 224.819260,288.209747 
	C221.956100,279.337128 225.117264,269.584259 232.712418,263.692017 
	C236.140549,261.032501 240.055496,259.707886 244.316422,259.785339 
	C247.986145,259.852020 249.939621,258.821198 249.269470,254.731384 
	C248.942368,252.735107 249.342117,250.671921 250.481232,248.969543 
	C252.396423,246.107346 255.096344,244.593582 258.604095,245.448135 
	C262.486908,246.394073 265.078827,249.221191 264.583496,252.991577 
	C263.732178,259.471344 266.991455,260.072815 271.965363,259.594208 
	C274.606506,259.340118 277.296234,259.498932 279.959869,259.591461 
	C284.539551,259.750519 287.522827,261.838287 288.115295,267.051819 
z"/>
<path fill="#182283" opacity="1.000000" stroke="none" 
	d="
M359.037598,325.155060 
	C345.824951,319.222900 338.566162,307.915161 339.525208,295.223785 
	C340.541870,281.769928 349.119781,271.260559 361.902771,267.807709 
	C374.008148,264.537842 386.757019,269.079559 394.109894,279.281342 
	C401.582001,289.648407 401.785370,303.303192 394.625366,313.892578 
	C387.645264,324.215820 374.862488,329.179169 362.747528,326.252960 
	C361.623047,325.981354 360.524170,325.603729 359.037598,325.155060 
z"/>
<path fill="#19227F" opacity="1.000000" stroke="none" 
	d="
M113.868011,404.103516 
	C107.745766,396.604584 106.220665,388.646423 110.059158,380.050354 
	C113.808067,371.654877 120.495995,367.302399 129.687881,367.114075 
	C132.236282,367.061859 132.840027,365.988495 132.658386,363.779205 
	C132.563309,362.622803 132.599869,361.443085 132.702744,360.285065 
	C133.119385,355.595154 136.068848,352.783447 140.425995,352.859711 
	C144.459625,352.930298 147.455750,355.804443 147.945862,360.073456 
	C148.744675,367.031311 148.744690,367.031128 155.613663,367.031433 
	C158.278961,367.031555 160.945572,366.979004 163.609283,367.044434 
	C168.975433,367.176270 172.309937,370.031586 172.446518,374.528259 
	C172.590042,379.253235 169.292511,382.342957 163.564713,382.409241 
	C153.248642,382.528717 142.930252,382.436188 132.612885,382.457153 
	C126.262695,382.470062 123.472359,384.473480 123.388916,389.006226 
	C123.306328,393.492340 127.319839,396.796173 133.072067,396.856201 
	C138.735214,396.915283 144.400253,396.810883 150.063049,396.885254 
	C161.983429,397.041748 170.577927,404.384796 172.173706,415.688690 
	C173.714539,426.603455 166.698410,437.550812 156.045685,440.831696 
	C155.411743,441.026917 154.742233,441.236755 154.092026,441.228333 
	C149.263000,441.165863 147.410904,443.143127 147.808090,448.269592 
	C148.180023,453.070190 144.476791,456.192993 140.020264,456.064697 
	C135.755585,455.941895 132.409027,452.966766 132.810913,448.244141 
	C133.314484,442.327026 130.820480,441.221344 125.732185,441.804626 
	C122.279526,442.200439 118.740417,441.984009 115.247253,441.850677 
	C110.309807,441.662170 107.077789,438.600220 107.007706,434.269714 
	C106.937653,429.941650 110.076111,426.629730 115.035858,426.510925 
	C124.352852,426.287781 133.677628,426.398071 142.999008,426.343536 
	C145.657700,426.328003 148.403229,426.622589 150.954208,426.065979 
	C154.980362,425.187439 157.344528,422.385803 156.958374,418.124054 
	C156.584961,414.003204 154.001587,412.034790 149.831329,412.072937 
	C144.334625,412.123230 138.829315,411.896423 133.341797,412.125824 
	C125.694969,412.445435 119.330887,409.900970 113.868011,404.103516 
z"/>
<path fill="#182181" opacity="1.000000" stroke="none" 
	d="
M356.332764,134.690338 
	C364.282928,134.678848 371.770508,134.659561 379.257965,134.678970 
	C382.593414,134.687607 386.164429,134.503738 386.231842,130.198425 
	C386.300323,125.822021 383.066315,124.360100 379.098358,124.333885 
	C375.432495,124.309654 371.762787,124.413284 368.101074,124.283180 
	C357.755463,123.915573 349.666992,117.357643 348.044525,108.133232 
	C346.304413,98.239677 351.996033,88.387650 361.853638,84.783623 
	C364.588562,83.783691 366.202118,82.953384 366.204559,79.489449 
	C366.207703,75.091080 369.175568,72.528061 373.579041,72.195267 
	C377.457611,71.902130 380.969971,74.904358 381.135803,79.213135 
	C381.278625,82.924019 382.874084,83.647079 386.072723,83.449089 
	C389.224426,83.253990 392.418610,83.251534 395.561707,83.530426 
	C399.969208,83.921524 402.568146,86.521332 402.874329,90.961205 
	C403.155548,95.039436 399.910492,98.814133 395.415771,98.721458 
	C386.812073,98.544052 378.237366,99.859230 369.636078,98.999062 
	C366.040009,98.639435 363.603516,100.596230 363.205658,103.864197 
	C362.746521,107.635010 365.419159,109.043350 368.953278,109.004219 
	C372.618866,108.963623 376.286041,108.951218 379.951233,109.008705 
	C391.373413,109.187866 400.754120,117.491974 401.816956,128.320435 
	C402.819397,138.533615 395.729828,147.386780 384.345337,149.724289 
	C382.071838,150.191116 381.416626,150.926819 381.273773,153.177063 
	C380.875916,159.444687 378.356018,162.210770 373.609741,162.146942 
	C368.933685,162.084061 366.434784,159.273666 366.104370,152.959076 
	C365.972412,150.436829 365.045898,149.833405 362.815735,149.978516 
	C360.824585,150.108078 358.817657,150.034058 356.818665,149.996887 
	C351.202698,149.892502 348.036438,147.354645 347.790314,142.797531 
	C347.539001,138.143951 350.119324,135.557465 356.332764,134.690338 
z"/>
<path fill="#34C8A0" opacity="1.000000" stroke="none" 
	d="
M375.990997,310.292450 
	C366.015076,313.393921 357.771912,309.514252 355.369110,300.921722 
	C353.137909,292.942902 357.721863,284.922272 365.820129,282.635345 
	C372.777344,280.670685 380.138062,284.198914 383.123871,290.929596 
	C386.321808,298.138367 383.811188,305.230713 375.990997,310.292450 
z"/>
</svg>