<svg version="1.1" id="Layer_1" xmlns="http://www.w3.org/2000/svg" xmlns:xlink="http://www.w3.org/1999/xlink" x="0px" y="0px"
	 width="100%" viewBox="0 0 512 512" enable-background="new 0 0 512 512" xml:space="preserve">
<path fill="#010101" opacity="1.000000" stroke="none" 
	d="
M287.000000,513.000000 
	C191.356552,513.000000 96.213104,513.000000 1.034826,513.000000 
	C1.034826,342.398193 1.034826,171.796371 1.034826,1.097280 
	C171.560135,1.097280 342.120331,1.097280 512.840271,1.097280 
	C512.840271,171.666550 512.840271,342.333252 512.840271,513.000000 
	C437.796356,513.000000 362.648163,513.000000 287.000000,513.000000 
M25.924562,272.761169 
	C25.924562,272.761169 25.617464,272.776184 25.617464,272.776184 
	C25.617464,272.776184 25.950459,273.039154 25.973301,273.786774 
	C31.860033,288.051971 40.781376,300.104736 52.416672,310.338379 
	C49.912231,300.413086 46.593365,290.938232 43.154587,281.507111 
	C42.856583,280.689819 41.875336,279.923309 41.027493,279.537445 
	C36.060204,277.276733 31.038155,275.136292 25.924562,272.761169 
M261.885468,128.301270 
	C261.433868,128.280823 260.982269,128.260376 260.530670,128.239944 
	C260.834137,128.692917 261.137604,129.145905 261.785828,130.175461 
	C274.391632,147.333694 283.182220,166.276810 288.097260,188.434708 
	C296.129974,180.872864 303.281433,174.140625 310.830719,167.033875 
	C294.022217,153.829849 278.096191,141.319031 261.885468,128.301270 
M487.912567,163.160721 
	C490.655151,162.836288 493.397705,162.511856 496.720551,162.118790 
	C489.403564,131.825684 474.338501,107.187111 451.356903,86.592926 
	C422.394043,122.879730 393.649445,158.893082 364.657959,195.215744 
	C373.517548,202.283249 382.033997,209.077042 390.285614,215.659561 
	C397.799957,208.787308 404.696289,202.025696 412.071106,195.834045 
	C425.729523,184.366837 441.537201,176.589828 458.835999,170.096481 
	C468.239410,167.761444 477.642822,165.426407 487.912567,163.160721 
M356.017822,92.806267 
	C352.484833,119.227859 342.677521,143.158188 326.888489,165.072922 
	C336.443573,172.702911 345.773132,180.152802 355.497986,187.918350 
	C384.469971,151.621414 413.212097,115.612442 442.222290,79.267632 
	C416.393494,60.578751 388.027466,51.417332 355.996643,51.220333 
	C356.407440,54.502834 356.751465,57.251991 356.997925,60.934021 
	C356.740906,71.287926 356.483856,81.641823 356.017822,92.806267 
M272.961334,256.432770 
	C233.397018,245.436737 194.297195,247.068115 155.549286,260.490143 
	C151.445862,261.911560 149.914658,263.774994 149.944824,268.257202 
	C150.153503,299.251556 149.999603,330.248230 150.121017,361.243500 
	C150.137085,365.345642 151.193054,369.433014 151.521301,373.546906 
	C152.152420,381.456818 153.247192,389.403229 152.970993,397.293243 
	C152.636032,406.862488 151.190002,416.402557 150.005920,425.928040 
	C149.469437,430.243896 151.423386,432.014191 155.253494,433.418793 
	C194.030807,447.639496 233.265656,448.983795 273.086639,438.323395 
	C277.359344,437.179535 278.930054,435.537323 278.916840,430.956818 
	C278.755676,375.131561 278.764374,319.305573 278.910370,263.480225 
	C278.921112,259.379944 277.822601,257.168060 272.961334,256.432770 
M431.035675,196.486420 
	C419.563171,204.017212 409.144012,212.739761 400.114960,223.537903 
	C424.490021,242.993317 448.659637,262.284760 473.210846,281.880768 
	C496.517365,249.081100 504.931732,213.413635 499.601654,173.795334 
	C474.682556,175.491486 452.292908,183.097473 431.035675,196.486420 
M152.030258,112.532974 
	C148.708160,112.715004 145.316757,112.557953 142.092224,113.217194 
	C140.392197,113.564743 138.175110,115.012306 137.571167,116.516953 
	C132.813019,128.371689 128.301620,140.329086 123.976227,152.349136 
	C123.467621,153.762527 123.964813,156.279083 124.977661,157.384796 
	C135.877701,169.284134 146.914886,181.060608 158.101944,192.690414 
	C159.359146,193.997375 161.851517,194.971680 163.632385,194.784012 
	C177.848740,193.285797 192.043121,191.554581 206.208405,189.630997 
	C207.756607,189.420761 209.819534,187.835205 210.387634,186.392838 
	C214.825867,175.124359 219.049179,163.767334 223.064911,152.341370 
	C223.563461,150.922821 223.029739,148.408707 222.003983,147.300034 
	C211.157379,135.576614 200.156891,123.993782 189.056839,112.509430 
	C187.970093,111.385071 185.911621,110.572365 184.347443,110.638481 
	C173.877930,111.081032 163.420151,111.801201 152.030258,112.532974 
M338.588562,117.014061 
	C345.221832,95.808273 347.631378,74.272476 344.149109,51.704445 
	C304.977875,55.697239 272.913483,72.061249 246.804901,101.180428 
	C270.665527,120.218246 293.952332,138.798248 317.565704,157.638779 
	C326.847382,145.302597 333.503815,132.020309 338.588562,117.014061 
M483.072113,412.391998 
	C488.734070,384.268066 473.990997,358.645538 458.133331,349.796265 
	C458.054993,351.575592 457.743164,353.209045 457.952820,354.772552 
	C459.407684,365.622955 460.537445,376.542938 462.620697,387.275787 
	C464.725220,398.118042 464.146667,407.960175 456.895966,416.944183 
	C440.135040,437.711731 400.748016,436.965790 385.078552,415.339813 
	C380.765015,409.386566 378.419189,402.581940 379.306122,395.154053 
	C380.151947,388.070587 381.783630,381.081543 382.647705,373.999451 
	C383.579773,366.360046 384.022034,358.660919 384.795074,349.617889 
	C382.467560,351.228363 381.483459,351.765717 380.669617,352.493530 
	C362.808868,368.465576 355.888428,388.440094 360.065430,411.870148 
	C365.379425,441.677948 392.454773,464.437469 424.416443,462.567291 
	C454.715088,460.794312 475.256500,442.692230 483.072113,412.391998 
M375.864899,310.671875 
	C380.012512,318.011200 384.160095,325.350525 388.112854,332.345123 
	C396.063904,330.302643 404.275024,327.226044 412.719788,326.314941 
	C420.137604,325.514679 426.519226,323.371735 432.646851,319.437531 
	C444.876129,311.585907 456.024017,302.537140 465.799927,290.971375 
	C441.341095,271.438477 417.201416,252.160431 392.902649,232.755356 
	C392.101501,233.670929 391.514038,234.230927 391.056091,234.881989 
	C380.007019,250.590576 372.701111,267.909393 367.949921,286.502655 
	C365.931427,294.401825 366.093842,300.997620 372.729004,306.518066 
	C373.848114,307.449158 374.545166,308.887543 375.864899,310.671875 
M323.398804,319.500366 
	C323.398834,308.508911 323.000885,297.497253 323.557220,286.534027 
	C323.861481,280.538605 322.116455,277.056976 316.595184,274.614502 
	C308.025330,270.823425 299.735199,266.400024 290.567566,261.869659 
	C290.567566,319.383514 290.567566,375.533997 290.567566,433.079620 
	C300.611084,428.060699 309.852112,423.322998 319.210815,418.830536 
	C322.524384,417.239960 323.505981,415.070160 323.487244,411.429199 
	C323.331451,381.120239 323.398712,350.810150 323.398804,319.500366 
M72.172218,238.491486 
	C88.379395,241.242401 104.592644,243.958389 120.788277,246.775681 
	C123.784767,247.296921 125.688019,246.651993 127.282478,243.771698 
	C134.374207,230.960953 141.795792,218.332153 148.817322,205.484116 
	C149.577805,204.092590 149.249496,201.048309 148.195831,199.887192 
	C138.024689,188.678864 127.545692,177.750671 117.267960,166.637634 
	C115.220039,164.423279 113.487122,164.203583 110.774872,165.525009 
	C97.605278,171.941467 84.310593,178.100540 71.099815,184.433380 
	C64.435150,187.628204 64.224594,188.364456 65.142509,195.570068 
	C66.526390,206.433380 67.649406,217.330368 69.084694,228.186401 
	C69.527939,231.538956 70.627281,234.804749 72.172218,238.491486 
M115.908371,140.390503 
	C119.641563,130.497360 123.374756,120.604210 127.190308,110.492805 
	C117.476570,105.440331 108.006554,100.662605 98.702209,95.581528 
	C96.040451,94.127953 93.979767,94.280525 91.340591,95.482269 
	C74.305855,103.238983 59.450031,113.949982 46.962952,127.884758 
	C38.190586,137.674164 30.786205,148.384903 25.314735,160.736801 
	C35.201233,165.786789 44.709885,170.874313 54.460781,175.445084 
	C56.610329,176.452698 60.001781,176.481003 62.168556,175.507401 
	C75.030739,169.728180 87.490028,163.009460 100.513268,157.647293 
	C108.552521,154.337219 113.906708,149.670883 115.908371,140.390503 
M97.417824,330.952423 
	C78.664223,325.477539 61.111500,327.943390 44.337257,338.658813 
	C46.974644,341.821686 49.283939,344.591095 51.745022,347.542542 
	C54.258961,345.947174 56.592342,344.466370 59.157169,342.838715 
	C61.361713,346.077911 63.389252,349.057037 65.591240,352.292511 
	C62.857300,354.213135 60.444454,355.908203 57.890411,357.702454 
	C59.497898,361.825470 61.046364,365.797089 62.716179,370.079987 
	C65.474930,369.539368 68.167862,369.011627 71.291412,368.399536 
	C72.198418,372.212128 73.029343,375.704956 73.912460,379.417145 
	C70.852127,380.272064 68.022163,381.062653 65.411911,381.791840 
	C65.411911,386.252563 65.411911,390.377441 65.411911,394.459290 
	C68.553055,395.382538 71.347786,396.203979 74.341156,397.083801 
	C73.381378,401.033356 72.537460,404.506134 71.700195,407.951508 
	C68.840790,407.405151 66.468422,406.951874 64.187958,406.516144 
	C62.363461,411.948517 60.734699,416.798096 59.033573,421.863129 
	C61.197857,423.513947 63.379421,425.177948 65.760078,426.993805 
	C63.548107,430.270935 61.545494,433.237885 59.432514,436.368347 
	C57.124393,434.874573 55.227821,433.647156 53.189423,432.327942 
	C50.210827,436.037354 47.451164,439.474091 44.687927,442.915314 
	C63.625290,457.167084 97.029381,457.033295 113.220276,442.708618 
	C110.818893,439.826569 108.414375,436.940796 106.020828,434.068146 
	C104.336021,434.949829 102.922997,435.689270 101.335007,436.520264 
	C99.213150,433.367401 97.210503,430.391632 95.151245,427.331757 
	C96.919495,425.913239 98.437866,424.695160 99.747528,423.644531 
	C97.819611,418.231750 95.999474,413.121582 94.154266,407.941010 
	C92.341667,408.187744 90.754654,408.403748 88.777878,408.672821 
	C87.914207,405.003662 87.094414,401.520874 86.225449,397.829193 
	C88.555290,397.085236 90.553665,396.447113 92.758911,395.742950 
	C92.758911,390.473694 92.758911,385.355194 92.758911,380.305786 
	C90.720177,379.705109 88.831512,379.148651 86.633766,378.501160 
	C87.518127,374.793762 88.356232,371.280304 89.215691,367.677338 
	C91.613785,368.032654 93.691048,368.340454 95.714325,368.640228 
	C97.501427,364.291107 99.182899,360.199036 100.857018,356.124847 
	C98.870178,354.569275 97.092003,353.177094 95.267281,351.748444 
	C97.474266,348.518280 99.437309,345.645142 101.555557,342.544861 
	C103.572472,343.749390 105.397720,344.839447 107.427299,346.051544 
	C109.477417,343.628143 111.477867,341.263489 114.054352,338.217865 
	C108.412651,335.702911 103.303574,333.425385 97.417824,330.952423 
M431.302185,338.002441 
	C420.373688,336.063538 409.750092,337.445679 399.487732,341.373444 
	C397.970154,341.954285 396.010162,344.336853 396.115143,345.747314 
	C397.315704,361.875916 394.088989,377.556824 391.546234,393.281403 
	C390.131775,402.028320 392.861450,408.849915 399.973114,413.592773 
	C413.068604,422.326477 426.980927,422.345978 440.660675,415.322662 
	C450.085693,410.483673 452.962952,403.075439 451.196503,392.374176 
	C448.476227,375.894867 443.911377,359.594147 446.867859,342.100861 
	C441.713196,340.694031 436.939514,339.391174 431.302185,338.002441 
M26.909849,174.608017 
	C24.919973,173.598267 22.930096,172.588516 20.901592,171.559174 
	C11.336741,195.533127 10.087229,229.892700 17.797831,253.140839 
	C18.266569,254.554092 19.332823,256.236481 20.583286,256.847168 
	C28.599854,260.762146 36.745651,264.412506 44.987381,268.213654 
	C49.630856,259.179443 54.137604,250.514542 58.496857,241.776047 
	C58.951321,240.865051 58.633121,239.506439 58.502659,238.375183 
	C56.691086,222.667099 54.932755,206.951660 52.899094,191.272049 
	C52.672318,189.523590 51.213215,187.315033 49.686981,186.460602 
	C42.440796,182.403946 34.973263,178.742706 26.909849,174.608017 
M271.655945,226.163498 
	C277.946594,224.956268 279.538330,221.049377 279.085052,214.971649 
	C278.068848,201.346970 276.461273,187.871536 272.041138,174.880203 
	C271.550049,173.436737 270.525818,171.639938 269.268921,171.075272 
	C257.920898,165.977280 246.465790,161.117706 235.254471,156.279861 
	C234.618942,156.751694 234.216507,156.890411 234.119980,157.145096 
	C229.643906,168.956375 225.149094,180.761185 220.824997,192.628189 
	C220.464600,193.617279 220.961670,195.235321 221.592178,196.220917 
	C229.478806,208.549194 237.536636,220.768417 245.365158,233.133011 
	C247.039413,235.777374 248.542419,235.653473 251.076035,234.546371 
	C257.624817,231.684738 264.314880,229.146484 271.655945,226.163498 
M150.353210,226.829529 
	C145.206848,235.986435 140.060486,245.143356 134.914124,254.300262 
	C135.210693,254.754135 135.507263,255.208008 135.803848,255.661896 
	C167.194061,242.326019 199.785095,235.718643 234.656555,238.057129 
	C226.703278,225.747101 219.458572,214.421814 212.031662,203.217300 
	C211.314499,202.135361 209.386887,201.091446 208.156830,201.230438 
	C193.619919,202.873215 179.097717,204.664215 164.606567,206.668686 
	C162.982986,206.893265 161.053345,208.344696 160.158310,209.782776 
	C156.826263,215.136429 153.866791,220.721970 150.353210,226.829529 
M335.050964,341.500000 
	C335.050964,363.407166 335.050964,385.314331 335.050964,408.408844 
	C341.146698,403.464600 347.080109,400.837585 347.742859,392.190430 
	C349.157227,373.735809 357.457703,358.170044 370.962738,345.452728 
	C377.754181,339.057404 377.757965,339.060822 374.065552,330.580688 
	C373.866455,330.123474 373.664429,329.666626 373.440643,329.221191 
	C364.858826,312.138062 351.686646,299.143829 336.567047,287.897430 
	C336.291290,287.692322 335.699860,287.911560 335.051025,287.942566 
	C335.051025,305.552643 335.051025,323.026306 335.050964,341.500000 
M356.157104,286.103516 
	C361.015717,264.077606 370.001587,243.872116 383.519562,225.291779 
	C374.697632,218.241791 366.181244,211.435959 357.337891,204.368835 
	C342.558075,222.898102 328.102234,241.021210 314.362213,258.246918 
	C327.960297,268.027039 341.015839,277.429779 354.110901,286.777161 
	C354.530914,287.076965 355.355988,286.809235 356.157104,286.103516 
M330.146606,219.643936 
	C336.043701,212.264587 341.940796,204.885239 348.170868,197.089203 
	C338.526947,189.380630 329.210632,181.933929 320.381897,174.876968 
	C311.119812,182.950424 302.399872,190.874084 293.279144,198.305832 
	C290.524353,200.550491 289.967163,202.627991 290.086395,205.883316 
	C290.365509,213.503906 290.459259,221.159973 290.036774,228.768860 
	C289.672028,235.338089 288.491364,241.862045 287.666473,248.445251 
	C291.531128,249.981018 295.161713,251.185028 298.567139,252.849640 
	C301.497864,254.282196 303.190948,253.687012 305.186371,251.104492 
	C313.225983,240.699432 321.520599,230.491440 330.146606,219.643936 
M48.057270,395.723297 
	C48.506393,394.173218 48.955513,392.623138 49.413666,391.041870 
	C50.968098,391.293427 52.241306,391.499481 53.529957,391.708038 
	C53.529957,389.416718 53.529957,387.312195 53.529957,384.955261 
	C51.773441,384.955261 50.348423,384.955261 48.715538,384.955261 
	C47.863712,381.391327 47.058144,378.020966 46.232460,374.566406 
	C47.877712,373.861420 49.463020,373.182129 51.158863,372.455475 
	C50.096661,369.705383 49.164333,367.291565 48.105160,364.549316 
	C46.488239,365.447205 45.430935,366.034302 44.176662,366.730804 
	C41.928047,363.418182 39.915047,360.452667 37.842781,357.399841 
	C39.358677,356.163055 40.566395,355.177704 42.063725,353.956055 
	C39.584354,351.210693 37.419434,348.813507 35.255707,346.417664 
	C7.723636,372.023865 12.406394,416.571167 35.715282,435.319855 
	C38.264977,432.146210 40.812279,428.975555 43.370319,425.791534 
	C41.325272,424.193329 39.775845,422.982452 38.140118,421.704132 
	C40.325363,418.511871 42.357891,415.542694 44.408768,412.546722 
	C46.144962,413.432495 47.499065,414.123352 49.271603,415.027679 
	C50.427551,410.952057 51.433277,407.406067 52.438309,403.862549 
	C50.101704,403.108521 48.576077,402.616211 46.743122,402.024750 
	C47.176788,400.033386 47.558064,398.282593 48.057270,395.723297 
M119.863335,349.476349 
	C119.045937,350.491455 118.228539,351.506561 117.316376,352.639343 
	C119.207336,354.182098 120.960091,355.612122 122.851700,357.155396 
	C120.653099,360.373138 118.632477,363.330383 116.532959,366.403076 
	C114.477814,365.104218 112.841301,364.069916 110.724121,362.731842 
	C109.497643,365.839539 108.436478,368.528412 107.319191,371.359436 
	C109.923882,372.164124 112.047775,372.820251 114.355515,373.533203 
	C113.375229,377.468109 112.516235,380.916138 111.652367,384.383728 
	C109.046928,383.963928 107.004051,383.634735 104.530106,383.236115 
	C104.530106,386.759308 104.530106,389.798615 104.530106,393.098755 
	C106.968506,392.690552 109.032219,392.345062 111.338860,391.958893 
	C112.215973,395.760437 113.017311,399.233551 113.847244,402.830597 
	C110.988045,403.700897 108.509308,404.455383 105.683449,405.315552 
	C107.065536,409.358093 108.322060,413.033386 109.681160,417.008698 
	C112.287056,415.371124 114.223175,414.154419 116.461296,412.747955 
	C118.607040,416.022980 120.638405,419.123444 122.687454,422.250885 
	C120.107315,424.161591 118.012123,425.713196 115.654549,427.459076 
	C118.180244,430.325989 120.438034,432.888794 122.695473,435.451202 
	C145.781357,414.336029 149.172516,374.020752 125.009865,348.197540 
	C122.767921,345.801544 121.706055,347.323578 119.863335,349.476349 
M117.410614,258.050446 
	C100.724098,255.246765 84.037582,252.443100 67.374168,249.643311 
	C63.171665,258.174500 59.185711,266.205536 55.279011,274.274933 
	C54.801708,275.260834 54.271564,276.610321 54.573387,277.524811 
	C58.123028,288.279572 61.826889,298.983459 65.738312,310.426880 
	C81.877144,288.526398 102.362404,273.106201 126.566681,259.956238 
	C122.680946,259.115234 120.463791,258.635376 117.410614,258.050446 
M138.384491,290.500214 
	C138.384491,283.112427 138.384491,275.724640 138.384491,266.556030 
	C127.058563,273.564880 117.018105,279.659760 107.160980,286.037994 
	C106.014214,286.780029 105.392006,289.080963 105.361244,290.675262 
	C105.191048,299.496796 105.415039,308.326508 105.204178,317.146271 
	C105.132454,320.146667 106.355858,321.306519 108.854187,322.699432 
	C115.360382,326.326965 121.741295,330.254883 127.795395,334.589264 
	C131.450562,337.206116 134.402405,340.805328 138.384583,344.653412 
	C138.384583,326.337128 138.384583,308.918671 138.384491,290.500214 
M210.459854,118.041374 
	C215.947296,123.831627 221.861588,129.280136 226.830307,135.485718 
	C236.190948,147.176529 250.647385,148.744675 262.863403,154.868179 
	C249.240158,128.561172 229.037384,109.328278 202.193939,96.382385 
	C200.380478,98.945862 198.775085,101.215202 196.946548,103.799995 
	C201.305923,108.392525 205.640427,112.958847 210.459854,118.041374 
M179.316025,88.049713 
	C156.849289,82.539490 134.430557,82.209023 110.675949,88.641014 
	C119.818169,93.381866 127.841614,97.583931 135.924164,101.669052 
	C136.720886,102.071747 137.884354,101.829704 138.869781,101.766022 
	C152.942825,100.856544 167.004791,99.668022 181.091660,99.136032 
	C186.271759,98.940414 188.454544,96.483032 190.087631,91.630676 
	C186.610260,90.443634 183.362457,89.334961 179.316025,88.049713 
M93.805107,315.711151 
	C93.805107,309.824951 93.805107,303.938751 93.805107,298.052582 
	C93.398369,297.841827 92.991623,297.631104 92.584885,297.420349 
	C87.274826,303.247345 81.964760,309.074310 76.654701,314.901306 
	C76.903946,315.442596 77.153191,315.983856 77.402435,316.525146 
	C82.825294,316.525146 88.248161,316.525146 93.805107,315.711151 
M322.953827,43.242115 
	C327.508270,42.393616 332.062714,41.545116 336.999786,40.625336 
	C326.776459,38.319229 309.249176,41.989342 304.936646,47.880569 
	C311.181366,46.272259 316.659576,44.861366 322.953827,43.242115 
M267.158325,242.964478 
	C269.991730,243.637970 272.825104,244.311478 275.983795,245.062286 
	C276.451935,242.154221 276.852295,239.666992 277.363373,236.492142 
	C273.133850,238.187119 269.756378,239.503983 266.438171,240.956299 
	C266.226227,241.049072 266.473724,242.191528 267.158325,242.964478 
M53.509243,312.437439 
	C53.509243,312.437439 53.538082,312.499786 53.509243,312.437439 
z"/>
<path fill="#7B5E52" opacity="1.000000" stroke="none" 
	d="
M273.345551,256.574097 
	C277.822601,257.168060 278.921112,259.379944 278.910370,263.480225 
	C278.764374,319.305573 278.755676,375.131561 278.916840,430.956818 
	C278.930054,435.537323 277.359344,437.179535 273.086639,438.323395 
	C233.265656,448.983795 194.030807,447.639496 155.253494,433.418793 
	C151.423386,432.014191 149.469437,430.243896 150.005920,425.928040 
	C151.190002,416.402557 152.636032,406.862488 152.970993,397.293243 
	C153.247192,389.403229 152.152420,381.456818 151.521301,373.546906 
	C151.193054,369.433014 150.137085,365.345642 150.121017,361.243500 
	C149.999603,330.248230 150.153503,299.251556 149.944824,268.257202 
	C149.914658,263.774994 151.445862,261.911560 155.549286,260.490143 
	C194.297195,247.068115 233.397018,245.436737 273.345551,256.574097 
M239.023071,338.359985 
	C239.146408,342.208252 236.197723,341.694519 234.158432,341.232574 
	C232.961990,340.961548 231.592346,339.171722 231.270340,337.832001 
	C230.716827,335.529114 230.921555,333.043945 230.813660,330.755371 
	C220.680511,329.378662 220.771683,329.393951 219.261398,338.392456 
	C219.070953,339.527191 217.434769,341.046722 216.267014,341.254120 
	C214.104553,341.638214 211.793167,341.183807 209.367996,341.070374 
	C209.156998,337.277588 208.976501,334.033203 208.802002,330.896454 
	C198.622971,329.051056 198.356430,329.314178 197.165802,338.098785 
	C197.000351,339.319489 195.280228,340.911713 193.989319,341.262268 
	C192.015701,341.798218 189.789185,341.402863 187.283112,341.402863 
	C187.083450,337.459442 186.911987,334.072845 186.732285,330.523438 
	C182.944077,330.523438 178.329956,329.210938 176.702820,330.854919 
	C174.658798,332.920074 175.060867,337.406311 174.372665,341.030396 
	C172.017120,341.310089 169.607254,341.596252 167.081604,341.896149 
	C167.081604,345.668976 167.081604,349.084290 167.081604,352.762115 
	C169.775055,353.037292 172.181534,353.283173 174.879257,353.558807 
	C175.081329,357.020721 175.269852,360.250549 175.461594,363.535461 
	C179.502838,363.535461 183.056427,363.535461 186.756027,363.535461 
	C186.955414,359.923431 187.133728,356.693298 187.334137,353.062714 
	C190.681580,353.232910 194.966858,352.345001 195.925018,353.740875 
	C197.659760,356.268158 197.410263,360.157410 197.993439,363.502441 
	C201.647141,363.502441 205.196793,363.502441 208.870789,363.502441 
	C209.030640,359.976868 209.171539,356.869537 209.322998,353.528900 
	C212.747925,353.528900 215.794281,353.528900 219.049500,353.528900 
	C219.324509,357.122589 219.571960,360.356079 219.818375,363.576111 
	C223.780655,363.576111 227.196609,363.576111 230.840240,363.576111 
	C231.064133,360.010345 231.267151,356.776855 231.469772,353.549713 
	C234.188171,353.549713 236.411316,353.549713 238.775421,353.549713 
	C238.986893,357.165833 239.175781,360.395813 239.354431,363.450684 
	C243.495071,363.450684 247.037521,363.450684 250.647888,363.450684 
	C250.837585,359.880707 251.002197,356.782593 251.179672,353.442200 
	C254.443619,353.218170 257.328522,353.020172 260.739075,352.786072 
	C260.558502,348.996765 261.488312,344.961548 259.899048,342.684570 
	C258.650604,340.895935 254.290115,341.279449 251.149017,340.666168 
	C250.954330,337.265320 250.768600,334.021149 250.574417,330.629272 
	C246.587708,330.629272 243.034836,330.629272 239.035309,330.629272 
	C239.035309,333.152618 239.035309,335.289398 239.023071,338.359985 
z"/>
<path fill="#C25A26" opacity="1.000000" stroke="none" 
	d="
M357.095490,60.001152 
	C356.751465,57.251991 356.407440,54.502834 355.996643,51.220333 
	C388.027466,51.417332 416.393494,60.578751 442.222290,79.267632 
	C413.212097,115.612442 384.469971,151.621414 355.497986,187.918350 
	C345.773132,180.152802 336.443573,172.702911 326.888489,165.072922 
	C342.677521,143.158188 352.484833,119.227859 356.449402,92.264969 
	C360.728638,82.934395 360.604706,73.766426 359.275543,64.542671 
	C359.047028,62.957047 357.846832,61.511440 357.095490,60.001152 
z"/>
<path fill="#C25A26" opacity="1.000000" stroke="none" 
	d="
M458.049103,170.147888 
	C441.537201,176.589828 425.729523,184.366837 412.071106,195.834045 
	C404.696289,202.025696 397.799957,208.787308 390.285614,215.659561 
	C382.033997,209.077042 373.517548,202.283249 364.657959,195.215744 
	C393.649445,158.893082 422.394043,122.879730 451.356903,86.592926 
	C474.338501,107.187111 489.403564,131.825684 496.720551,162.118790 
	C493.397705,162.511856 490.655151,162.836288 487.162048,162.864792 
	C480.615387,163.208771 474.691528,163.317688 469.067169,164.671249 
	C465.180237,165.606674 461.707123,168.261429 458.049103,170.147888 
z"/>
<path fill="#D55E2B" opacity="1.000000" stroke="none" 
	d="
M431.337921,196.285370 
	C452.292908,183.097473 474.682556,175.491486 499.601654,173.795334 
	C504.931732,213.413635 496.517365,249.081100 473.210846,281.880768 
	C448.659637,262.284760 424.490021,242.993317 400.114960,223.537903 
	C409.144012,212.739761 419.563171,204.017212 431.337921,196.285370 
z"/>
<path fill="#C5CCC8" opacity="1.000000" stroke="none" 
	d="
M152.494415,112.482132 
	C163.420151,111.801201 173.877930,111.081032 184.347443,110.638481 
	C185.911621,110.572365 187.970093,111.385071 189.056839,112.509430 
	C200.156891,123.993782 211.157379,135.576614 222.003983,147.300034 
	C223.029739,148.408707 223.563461,150.922821 223.064911,152.341370 
	C219.049179,163.767334 214.825867,175.124359 210.387634,186.392838 
	C209.819534,187.835205 207.756607,189.420761 206.208405,189.630997 
	C192.043121,191.554581 177.848740,193.285797 163.632385,194.784012 
	C161.851517,194.971680 159.359146,193.997375 158.101944,192.690414 
	C146.914886,181.060608 135.877701,169.284134 124.977661,157.384796 
	C123.964813,156.279083 123.467621,153.762527 123.976227,152.349136 
	C128.301620,140.329086 132.813019,128.371689 137.571167,116.516953 
	C138.175110,115.012306 140.392197,113.564743 142.092224,113.217194 
	C145.316757,112.557953 148.708160,112.715004 152.494415,112.482132 
z"/>
<path fill="#D55E2B" opacity="1.000000" stroke="none" 
	d="
M338.435425,117.379089 
	C333.503815,132.020309 326.847382,145.302597 317.565704,157.638779 
	C293.952332,138.798248 270.665527,120.218246 246.804901,101.180428 
	C272.913483,72.061249 304.977875,55.697239 344.149109,51.704445 
	C347.631378,74.272476 345.221832,95.808273 338.435425,117.379089 
z"/>
<path fill="#5F7116" opacity="1.000000" stroke="none" 
	d="
M483.014343,412.815918 
	C475.256500,442.692230 454.715088,460.794312 424.416443,462.567291 
	C392.454773,464.437469 365.379425,441.677948 360.065430,411.870148 
	C355.888428,388.440094 362.808868,368.465576 380.669617,352.493530 
	C381.483459,351.765717 382.467560,351.228363 384.795074,349.617889 
	C384.022034,358.660919 383.579773,366.360046 382.647705,373.999451 
	C381.783630,381.081543 380.151947,388.070587 379.306122,395.154053 
	C378.419189,402.581940 380.765015,409.386566 385.078552,415.339813 
	C400.748016,436.965790 440.135040,437.711731 456.895966,416.944183 
	C464.146667,407.960175 464.725220,398.118042 462.620697,387.275787 
	C460.537445,376.542938 459.407684,365.622955 457.952820,354.772552 
	C457.743164,353.209045 458.054993,351.575592 458.133331,349.796265 
	C473.990997,358.645538 488.734070,384.268066 483.014343,412.815918 
z"/>
<path fill="#D55E2B" opacity="1.000000" stroke="none" 
	d="
M375.651062,310.381714 
	C374.545166,308.887543 373.848114,307.449158 372.729004,306.518066 
	C366.093842,300.997620 365.931427,294.401825 367.949921,286.502655 
	C372.701111,267.909393 380.007019,250.590576 391.056091,234.881989 
	C391.514038,234.230927 392.101501,233.670929 392.902649,232.755356 
	C417.201416,252.160431 441.341095,271.438477 465.799927,290.971375 
	C456.024017,302.537140 444.876129,311.585907 432.646851,319.437531 
	C426.519226,323.371735 420.137604,325.514679 412.719788,326.314941 
	C404.275024,327.226044 396.063904,330.302643 388.112854,332.345123 
	C384.160095,325.350525 380.012512,318.011200 375.651062,310.381714 
z"/>
<path fill="#B8A593" opacity="1.000000" stroke="none" 
	d="
M323.398682,320.000366 
	C323.398712,350.810150 323.331451,381.120239 323.487244,411.429199 
	C323.505981,415.070160 322.524384,417.239960 319.210815,418.830536 
	C309.852112,423.322998 300.611084,428.060699 290.567566,433.079620 
	C290.567566,375.533997 290.567566,319.383514 290.567566,261.869659 
	C299.735199,266.400024 308.025330,270.823425 316.595184,274.614502 
	C322.116455,277.056976 323.861481,280.538605 323.557220,286.534027 
	C323.000885,297.497253 323.398834,308.508911 323.398682,320.000366 
z"/>
<path fill="#231F20" opacity="1.000000" stroke="none" 
	d="
M71.799217,238.300873 
	C70.627281,234.804749 69.527939,231.538956 69.084694,228.186401 
	C67.649406,217.330368 66.526390,206.433380 65.142509,195.570068 
	C64.224594,188.364456 64.435150,187.628204 71.099815,184.433380 
	C84.310593,178.100540 97.605278,171.941467 110.774872,165.525009 
	C113.487122,164.203583 115.220039,164.423279 117.267960,166.637634 
	C127.545692,177.750671 138.024689,188.678864 148.195831,199.887192 
	C149.249496,201.048309 149.577805,204.092590 148.817322,205.484116 
	C141.795792,218.332153 134.374207,230.960953 127.282478,243.771698 
	C125.688019,246.651993 123.784767,247.296921 120.788277,246.775681 
	C104.592644,243.958389 88.379395,241.242401 71.799217,238.300873 
z"/>
<path fill="#C5CCC8" opacity="1.000000" stroke="none" 
	d="
M115.769623,140.753815 
	C113.906708,149.670883 108.552521,154.337219 100.513268,157.647293 
	C87.490028,163.009460 75.030739,169.728180 62.168556,175.507401 
	C60.001781,176.481003 56.610329,176.452698 54.460781,175.445084 
	C44.709885,170.874313 35.201233,165.786789 25.314735,160.736801 
	C30.786205,148.384903 38.190586,137.674164 46.962952,127.884758 
	C59.450031,113.949982 74.305855,103.238983 91.340591,95.482269 
	C93.979767,94.280525 96.040451,94.127953 98.702209,95.581528 
	C108.006554,100.662605 117.476570,105.440331 127.190308,110.492805 
	C123.374756,120.604210 119.641563,130.497360 115.769623,140.753815 
z"/>
<path fill="#C3CAC6" opacity="1.000000" stroke="none" 
	d="
M97.806168,331.050140 
	C103.303574,333.425385 108.412651,335.702911 114.054352,338.217865 
	C111.477867,341.263489 109.477417,343.628143 107.427299,346.051544 
	C105.397720,344.839447 103.572472,343.749390 101.555557,342.544861 
	C99.437309,345.645142 97.474266,348.518280 95.267281,351.748444 
	C97.092003,353.177094 98.870178,354.569275 100.857018,356.124847 
	C99.182899,360.199036 97.501427,364.291107 95.714325,368.640228 
	C93.691048,368.340454 91.613785,368.032654 89.215691,367.677338 
	C88.356232,371.280304 87.518127,374.793762 86.633766,378.501160 
	C88.831512,379.148651 90.720177,379.705109 92.758911,380.305786 
	C92.758911,385.355194 92.758911,390.473694 92.758911,395.742950 
	C90.553665,396.447113 88.555290,397.085236 86.225449,397.829193 
	C87.094414,401.520874 87.914207,405.003662 88.777878,408.672821 
	C90.754654,408.403748 92.341667,408.187744 94.154266,407.941010 
	C95.999474,413.121582 97.819611,418.231750 99.747528,423.644531 
	C98.437866,424.695160 96.919495,425.913239 95.151245,427.331757 
	C97.210503,430.391632 99.213150,433.367401 101.335007,436.520264 
	C102.922997,435.689270 104.336021,434.949829 106.020828,434.068146 
	C108.414375,436.940796 110.818893,439.826569 113.220276,442.708618 
	C97.029381,457.033295 63.625290,457.167084 44.687927,442.915314 
	C47.451164,439.474091 50.210827,436.037354 53.189423,432.327942 
	C55.227821,433.647156 57.124393,434.874573 59.432514,436.368347 
	C61.545494,433.237885 63.548107,430.270935 65.760078,426.993805 
	C63.379421,425.177948 61.197857,423.513947 59.033573,421.863129 
	C60.734699,416.798096 62.363461,411.948517 64.187958,406.516144 
	C66.468422,406.951874 68.840790,407.405151 71.700195,407.951508 
	C72.537460,404.506134 73.381378,401.033356 74.341156,397.083801 
	C71.347786,396.203979 68.553055,395.382538 65.411911,394.459290 
	C65.411911,390.377441 65.411911,386.252563 65.411911,381.791840 
	C68.022163,381.062653 70.852127,380.272064 73.912460,379.417145 
	C73.029343,375.704956 72.198418,372.212128 71.291412,368.399536 
	C68.167862,369.011627 65.474930,369.539368 62.716179,370.079987 
	C61.046364,365.797089 59.497898,361.825470 57.890411,357.702454 
	C60.444454,355.908203 62.857300,354.213135 65.591240,352.292511 
	C63.389252,349.057037 61.361713,346.077911 59.157169,342.838715 
	C56.592342,344.466370 54.258961,345.947174 51.745022,347.542542 
	C49.283939,344.591095 46.974644,341.821686 44.337257,338.658813 
	C61.111500,327.943390 78.664223,325.477539 97.806168,331.050140 
z"/>
<path fill="#4B6512" opacity="1.000000" stroke="none" 
	d="
M431.734009,338.045380 
	C436.939514,339.391174 441.713196,340.694031 446.867859,342.100861 
	C443.911377,359.594147 448.476227,375.894867 451.196503,392.374176 
	C452.962952,403.075439 450.085693,410.483673 440.660675,415.322662 
	C426.980927,422.345978 413.068604,422.326477 399.973114,413.592773 
	C392.861450,408.849915 390.131775,402.028320 391.546234,393.281403 
	C394.088989,377.556824 397.315704,361.875916 396.115143,345.747314 
	C396.010162,344.336853 397.970154,341.954285 399.487732,341.373444 
	C409.750092,337.445679 420.373688,336.063538 431.734009,338.045380 
z"/>
<path fill="#C4CBC7" opacity="1.000000" stroke="none" 
	d="
M27.247198,174.774353 
	C34.973263,178.742706 42.440796,182.403946 49.686981,186.460602 
	C51.213215,187.315033 52.672318,189.523590 52.899094,191.272049 
	C54.932755,206.951660 56.691086,222.667099 58.502659,238.375183 
	C58.633121,239.506439 58.951321,240.865051 58.496857,241.776047 
	C54.137604,250.514542 49.630856,259.179443 44.987381,268.213654 
	C36.745651,264.412506 28.599854,260.762146 20.583286,256.847168 
	C19.332823,256.236481 18.266569,254.554092 17.797831,253.140839 
	C10.087229,229.892700 11.336741,195.533127 20.901592,171.559174 
	C22.930096,172.588516 24.919973,173.598267 27.247198,174.774353 
z"/>
<path fill="#231F20" opacity="1.000000" stroke="none" 
	d="
M271.302246,226.321289 
	C264.314880,229.146484 257.624817,231.684738 251.076035,234.546371 
	C248.542419,235.653473 247.039413,235.777374 245.365158,233.133011 
	C237.536636,220.768417 229.478806,208.549194 221.592178,196.220917 
	C220.961670,195.235321 220.464600,193.617279 220.824997,192.628189 
	C225.149094,180.761185 229.643906,168.956375 234.119980,157.145096 
	C234.216507,156.890411 234.618942,156.751694 235.254471,156.279861 
	C246.465790,161.117706 257.920898,165.977280 269.268921,171.075272 
	C270.525818,171.639938 271.550049,173.436737 272.041138,174.880203 
	C276.461273,187.871536 278.068848,201.346970 279.085052,214.971649 
	C279.538330,221.049377 277.946594,224.956268 271.302246,226.321289 
z"/>
<path fill="#C4CAC7" opacity="1.000000" stroke="none" 
	d="
M150.560333,226.524994 
	C153.866791,220.721970 156.826263,215.136429 160.158310,209.782776 
	C161.053345,208.344696 162.982986,206.893265 164.606567,206.668686 
	C179.097717,204.664215 193.619919,202.873215 208.156830,201.230438 
	C209.386887,201.091446 211.314499,202.135361 212.031662,203.217300 
	C219.458572,214.421814 226.703278,225.747101 234.656555,238.057129 
	C199.785095,235.718643 167.194061,242.326019 135.803848,255.661896 
	C135.507263,255.208008 135.210693,254.754135 134.914124,254.300262 
	C140.060486,245.143356 145.206848,235.986435 150.560333,226.524994 
z"/>
<path fill="#7B5E52" opacity="1.000000" stroke="none" 
	d="
M335.050995,341.000000 
	C335.051025,323.026306 335.051025,305.552643 335.051025,287.942566 
	C335.699860,287.911560 336.291290,287.692322 336.567047,287.897430 
	C351.686646,299.143829 364.858826,312.138062 373.440643,329.221191 
	C373.664429,329.666626 373.866455,330.123474 374.065552,330.580688 
	C377.757965,339.060822 377.754181,339.057404 370.962738,345.452728 
	C357.457703,358.170044 349.157227,373.735809 347.742859,392.190430 
	C347.080109,400.837585 341.146698,403.464600 335.050964,408.408844 
	C335.050964,385.314331 335.050964,363.407166 335.050995,341.000000 
z"/>
<path fill="#C15A26" opacity="1.000000" stroke="none" 
	d="
M356.074677,286.454773 
	C355.355988,286.809235 354.530914,287.076965 354.110901,286.777161 
	C341.015839,277.429779 327.960297,268.027039 314.362213,258.246918 
	C328.102234,241.021210 342.558075,222.898102 357.337891,204.368835 
	C366.181244,211.435959 374.697632,218.241791 383.519562,225.291779 
	C370.001587,243.872116 361.015717,264.077606 356.074677,286.454773 
z"/>
<path fill="#C15A26" opacity="1.000000" stroke="none" 
	d="
M329.933838,219.927292 
	C321.520599,230.491440 313.225983,240.699432 305.186371,251.104492 
	C303.190948,253.687012 301.497864,254.282196 298.567139,252.849640 
	C295.161713,251.185028 291.531128,249.981018 287.666473,248.445251 
	C288.491364,241.862045 289.672028,235.338089 290.036774,228.768860 
	C290.459259,221.159973 290.365509,213.503906 290.086395,205.883316 
	C289.967163,202.627991 290.524353,200.550491 293.279144,198.305832 
	C302.399872,190.874084 311.119812,182.950424 320.381897,174.876968 
	C329.210632,181.933929 338.526947,189.380630 348.170868,197.089203 
	C341.940796,204.885239 336.043701,212.264587 329.933838,219.927292 
z"/>
<path fill="#D2C4BE" opacity="1.000000" stroke="none" 
	d="
M47.998306,396.127563 
	C47.558064,398.282593 47.176788,400.033386 46.743122,402.024750 
	C48.576077,402.616211 50.101704,403.108521 52.438309,403.862549 
	C51.433277,407.406067 50.427551,410.952057 49.271603,415.027679 
	C47.499065,414.123352 46.144962,413.432495 44.408768,412.546722 
	C42.357891,415.542694 40.325363,418.511871 38.140118,421.704132 
	C39.775845,422.982452 41.325272,424.193329 43.370319,425.791534 
	C40.812279,428.975555 38.264977,432.146210 35.715282,435.319855 
	C12.406394,416.571167 7.723636,372.023865 35.255707,346.417664 
	C37.419434,348.813507 39.584354,351.210693 42.063725,353.956055 
	C40.566395,355.177704 39.358677,356.163055 37.842781,357.399841 
	C39.915047,360.452667 41.928047,363.418182 44.176662,366.730804 
	C45.430935,366.034302 46.488239,365.447205 48.105160,364.549316 
	C49.164333,367.291565 50.096661,369.705383 51.158863,372.455475 
	C49.463020,373.182129 47.877712,373.861420 46.232460,374.566406 
	C47.058144,378.020966 47.863712,381.391327 48.715538,384.955261 
	C50.348423,384.955261 51.773441,384.955261 53.529957,384.955261 
	C53.529957,387.312195 53.529957,389.416718 53.529957,391.708038 
	C52.241306,391.499481 50.968098,391.293427 49.413666,391.041870 
	C48.955513,392.623138 48.506393,394.173218 47.998306,396.127563 
z"/>
<path fill="#D1C4BE" opacity="1.000000" stroke="none" 
	d="
M120.110252,349.179688 
	C121.706055,347.323578 122.767921,345.801544 125.009865,348.197540 
	C149.172516,374.020752 145.781357,414.336029 122.695473,435.451202 
	C120.438034,432.888794 118.180244,430.325989 115.654549,427.459076 
	C118.012123,425.713196 120.107315,424.161591 122.687454,422.250885 
	C120.638405,419.123444 118.607040,416.022980 116.461296,412.747955 
	C114.223175,414.154419 112.287056,415.371124 109.681160,417.008698 
	C108.322060,413.033386 107.065536,409.358093 105.683449,405.315552 
	C108.509308,404.455383 110.988045,403.700897 113.847244,402.830597 
	C113.017311,399.233551 112.215973,395.760437 111.338860,391.958893 
	C109.032219,392.345062 106.968506,392.690552 104.530106,393.098755 
	C104.530106,389.798615 104.530106,386.759308 104.530106,383.236115 
	C107.004051,383.634735 109.046928,383.963928 111.652367,384.383728 
	C112.516235,380.916138 113.375229,377.468109 114.355515,373.533203 
	C112.047775,372.820251 109.923882,372.164124 107.319191,371.359436 
	C108.436478,368.528412 109.497643,365.839539 110.724121,362.731842 
	C112.841301,364.069916 114.477814,365.104218 116.532959,366.403076 
	C118.632477,363.330383 120.653099,360.373138 122.851700,357.155396 
	C120.960091,355.612122 119.207336,354.182098 117.316376,352.639343 
	C118.228539,351.506561 119.045937,350.491455 120.110252,349.179688 
z"/>
<path fill="#C4CBC7" opacity="1.000000" stroke="none" 
	d="
M117.828629,258.102966 
	C120.463791,258.635376 122.680946,259.115234 126.566681,259.956238 
	C102.362404,273.106201 81.877144,288.526398 65.738312,310.426880 
	C61.826889,298.983459 58.123028,288.279572 54.573387,277.524811 
	C54.271564,276.610321 54.801708,275.260834 55.279011,274.274933 
	C59.185711,266.205536 63.171665,258.174500 67.374168,249.643311 
	C84.037582,252.443100 100.724098,255.246765 117.828629,258.102966 
z"/>
<path fill="#B9A593" opacity="1.000000" stroke="none" 
	d="
M138.384537,291.000244 
	C138.384583,308.918671 138.384583,326.337128 138.384583,344.653412 
	C134.402405,340.805328 131.450562,337.206116 127.795395,334.589264 
	C121.741295,330.254883 115.360382,326.326965 108.854187,322.699432 
	C106.355858,321.306519 105.132454,320.146667 105.204178,317.146271 
	C105.415039,308.326508 105.191048,299.496796 105.361244,290.675262 
	C105.392006,289.080963 106.014214,286.780029 107.160980,286.037994 
	C117.018105,279.659760 127.058563,273.564880 138.384491,266.556030 
	C138.384491,275.724640 138.384491,283.112427 138.384537,291.000244 
z"/>
<path fill="#C3C9C5" opacity="1.000000" stroke="none" 
	d="
M210.217392,117.783264 
	C205.640427,112.958847 201.305923,108.392525 196.946548,103.799995 
	C198.775085,101.215202 200.380478,98.945862 202.193939,96.382385 
	C229.037384,109.328278 249.240158,128.561172 262.863403,154.868179 
	C250.647385,148.744675 236.190948,147.176529 226.830307,135.485718 
	C221.861588,129.280136 215.947296,123.831627 210.217392,117.783264 
z"/>
<path fill="#221E1F" opacity="1.000000" stroke="none" 
	d="
M179.715332,88.138000 
	C183.362457,89.334961 186.610260,90.443634 190.087631,91.630676 
	C188.454544,96.483032 186.271759,98.940414 181.091660,99.136032 
	C167.004791,99.668022 152.942825,100.856544 138.869781,101.766022 
	C137.884354,101.829704 136.720886,102.071747 135.924164,101.669052 
	C127.841614,97.583931 119.818169,93.381866 110.675949,88.641014 
	C134.430557,82.209023 156.849289,82.539490 179.715332,88.138000 
z"/>
<path fill="#D15D2A" opacity="1.000000" stroke="none" 
	d="
M262.170166,128.808212 
	C278.096191,141.319031 294.022217,153.829849 310.830719,167.033875 
	C303.281433,174.140625 296.129974,180.872864 288.097260,188.434708 
	C283.182220,166.276810 274.391632,147.333694 261.798462,129.692047 
	C261.930786,129.075180 262.050476,128.941696 262.170166,128.808212 
z"/>
<path fill="#221E1F" opacity="1.000000" stroke="none" 
	d="
M26.034582,272.955292 
	C31.038155,275.136292 36.060204,277.276733 41.027493,279.537445 
	C41.875336,279.923309 42.856583,280.689819 43.154587,281.507111 
	C46.593365,290.938232 49.912231,300.413086 52.416672,310.338379 
	C40.781376,300.104736 31.860033,288.051971 25.984116,273.393188 
	C25.994928,272.999634 26.034582,272.955292 26.034582,272.955292 
z"/>
<path fill="#755A4E" opacity="1.000000" stroke="none" 
	d="
M93.738068,316.118164 
	C88.248161,316.525146 82.825294,316.525146 77.402435,316.525146 
	C77.153191,315.983856 76.903946,315.442596 76.654701,314.901306 
	C81.964760,309.074310 87.274826,303.247345 92.584885,297.420349 
	C92.991623,297.631104 93.398369,297.841827 93.805107,298.052582 
	C93.805107,303.938751 93.805107,309.824951 93.738068,316.118164 
z"/>
<path fill="#CA5A28" opacity="1.000000" stroke="none" 
	d="
M322.545807,43.346294 
	C316.659576,44.861366 311.181366,46.272259 304.936646,47.880569 
	C309.249176,41.989342 326.776459,38.319229 336.999786,40.625336 
	C332.062714,41.545116 327.508270,42.393616 322.545807,43.346294 
z"/>
<path fill="#C45827" opacity="1.000000" stroke="none" 
	d="
M357.046692,60.467587 
	C357.846832,61.511440 359.047028,62.957047 359.275543,64.542671 
	C360.604706,73.766426 360.728638,82.934395 356.553894,91.859703 
	C356.483856,81.641823 356.740906,71.287926 357.046692,60.467587 
z"/>
<path fill="#C95928" opacity="1.000000" stroke="none" 
	d="
M458.442566,170.122192 
	C461.707123,168.261429 465.180237,165.606674 469.067169,164.671249 
	C474.691528,163.317688 480.615387,163.208771 486.728882,162.830109 
	C477.642822,165.426407 468.239410,167.761444 458.442566,170.122192 
z"/>
<path fill="#B6BDB9" opacity="1.000000" stroke="none" 
	d="
M266.832916,242.905090 
	C266.473724,242.191528 266.226227,241.049072 266.438171,240.956299 
	C269.756378,239.503983 273.133850,238.187119 277.363373,236.492142 
	C276.852295,239.666992 276.451935,242.154221 275.983795,245.062286 
	C272.825104,244.311478 269.991730,243.637970 266.832916,242.905090 
z"/>
<path fill="#D15D2A" opacity="1.000000" stroke="none" 
	d="
M261.626099,129.403763 
	C261.137604,129.145905 260.834137,128.692917 260.530670,128.239944 
	C260.982269,128.260376 261.433868,128.280823 262.027832,128.554749 
	C262.050476,128.941696 261.930786,129.075180 261.626099,129.403763 
z"/>
<path fill="#221E1F" opacity="1.000000" stroke="none" 
	d="
M53.523663,312.468628 
	C53.538082,312.499786 53.509243,312.437439 53.523663,312.468628 
z"/>
<path fill="#221E1F" opacity="1.000000" stroke="none" 
	d="
M25.972694,273.019409 
	C25.950459,273.039154 25.617464,272.776184 25.617464,272.776184 
	C25.617464,272.776184 25.924562,272.761169 25.979572,272.858215 
	C26.034582,272.955292 25.994928,272.999634 25.972694,273.019409 
z"/>
<path fill="#030202" opacity="1.000000" stroke="none" 
	d="
M239.029190,337.893066 
	C239.035309,335.289398 239.035309,333.152618 239.035309,330.629272 
	C243.034836,330.629272 246.587708,330.629272 250.574417,330.629272 
	C250.768600,334.021149 250.954330,337.265320 251.149017,340.666168 
	C254.290115,341.279449 258.650604,340.895935 259.899048,342.684570 
	C261.488312,344.961548 260.558502,348.996765 260.739075,352.786072 
	C257.328522,353.020172 254.443619,353.218170 251.179672,353.442200 
	C251.002197,356.782593 250.837585,359.880707 250.647888,363.450684 
	C247.037521,363.450684 243.495071,363.450684 239.354431,363.450684 
	C239.175781,360.395813 238.986893,357.165833 238.775421,353.549713 
	C236.411316,353.549713 234.188171,353.549713 231.469772,353.549713 
	C231.267151,356.776855 231.064133,360.010345 230.840240,363.576111 
	C227.196609,363.576111 223.780655,363.576111 219.818375,363.576111 
	C219.571960,360.356079 219.324509,357.122589 219.049500,353.528900 
	C215.794281,353.528900 212.747925,353.528900 209.322998,353.528900 
	C209.171539,356.869537 209.030640,359.976868 208.870789,363.502441 
	C205.196793,363.502441 201.647141,363.502441 197.993439,363.502441 
	C197.410263,360.157410 197.659760,356.268158 195.925018,353.740875 
	C194.966858,352.345001 190.681580,353.232910 187.334137,353.062714 
	C187.133728,356.693298 186.955414,359.923431 186.756027,363.535461 
	C183.056427,363.535461 179.502838,363.535461 175.461594,363.535461 
	C175.269852,360.250549 175.081329,357.020721 174.879257,353.558807 
	C172.181534,353.283173 169.775055,353.037292 167.081604,352.762115 
	C167.081604,349.084290 167.081604,345.668976 167.081604,341.896149 
	C169.607254,341.596252 172.017120,341.310089 174.372665,341.030396 
	C175.060867,337.406311 174.658798,332.920074 176.702820,330.854919 
	C178.329956,329.210938 182.944077,330.523438 186.732285,330.523438 
	C186.911987,334.072845 187.083450,337.459442 187.283112,341.402863 
	C189.789185,341.402863 192.015701,341.798218 193.989319,341.262268 
	C195.280228,340.911713 197.000351,339.319489 197.165802,338.098785 
	C198.356430,329.314178 198.622971,329.051056 208.802002,330.896454 
	C208.976501,334.033203 209.156998,337.277588 209.367996,341.070374 
	C211.793167,341.183807 214.104553,341.638214 216.267014,341.254120 
	C217.434769,341.046722 219.070953,339.527191 219.261398,338.392456 
	C220.771683,329.393951 220.680511,329.378662 230.813660,330.755371 
	C230.921555,333.043945 230.716827,335.529114 231.270340,337.832001 
	C231.592346,339.171722 232.961990,340.961548 234.158432,341.232574 
	C236.197723,341.694519 239.146408,342.208252 239.029190,337.893066 
z"/>
</svg>