<svg version="1.1" id="Layer_1" xmlns="http://www.w3.org/2000/svg" xmlns:xlink="http://www.w3.org/1999/xlink" x="0px" y="0px"
	 width="100%" viewBox="0 0 512 512" enable-background="new 0 0 512 512" xml:space="preserve">
<path fill="#010000" opacity="1.000000" stroke="none" 
	d="
M1.000000,188.000000 
	C1.000000,126.666664 1.036713,65.833252 0.903129,5.000213 
	C0.895608,1.575360 1.576367,0.903139 5.000061,0.905342 
	C172.999985,1.013444 341.000000,1.013444 508.999939,0.905342 
	C512.423645,0.903139 513.096802,1.576367 513.094604,5.000061 
	C512.986511,172.999985 512.986511,341.000000 513.094604,508.999939 
	C513.096802,512.423645 512.423645,513.096802 508.999939,513.094604 
	C341.000000,512.986511 172.999985,512.986511 5.000061,513.094604 
	C1.576367,513.096802 0.900858,512.423950 0.904591,508.999908 
	C1.021065,402.166687 1.000000,295.333344 1.000000,188.000000 
z"/>
<path fill="#FC4755" opacity="1.000000" stroke="none" 
	d="
M484.912476,233.823059 
	C485.508514,233.983139 485.749634,234.118134 485.965027,234.598328 
	C486.874969,236.066528 486.989532,237.816971 488.823669,238.788208 
	C489.113647,238.952301 489.041565,238.959991 489.048584,238.924438 
	C489.607880,239.768280 489.897125,240.801086 490.873108,241.767426 
	C491.122223,241.956131 491.049561,241.962036 491.052246,241.925690 
	C491.608337,242.767990 491.896912,243.801163 492.872986,244.767273 
	C493.122070,244.955963 493.049866,244.963684 493.053101,244.927521 
	C493.624115,245.965118 493.702698,247.206436 494.108704,248.641052 
	C490.174377,252.249313 489.925018,255.913040 491.672333,260.592102 
	C504.315582,294.448517 498.373962,324.933075 473.156586,350.736023 
	C439.420746,385.255280 404.998596,419.103943 370.856689,453.226105 
	C362.241547,461.836182 351.955078,465.957947 339.334045,464.399414 
	C336.037292,462.475250 334.006805,459.914886 332.223785,457.059540 
	C306.817657,416.373444 281.402985,375.692719 255.963928,335.027191 
	C234.288452,300.377838 238.324280,258.315765 261.091125,229.174088 
	C265.414124,223.640610 270.543915,218.867218 275.759369,214.200195 
	C277.631409,212.524994 279.750763,211.177368 282.742126,210.849426 
	C300.663605,212.533615 315.471710,220.177811 328.334198,231.919357 
	C331.526520,234.833496 334.467529,238.021027 337.586792,241.017609 
	C342.048981,245.304291 345.694946,245.336304 350.148407,241.085983 
	C354.959869,236.493958 359.400177,231.512466 364.652893,227.384720 
	C396.118347,202.657913 440.027435,203.869873 470.187042,230.402283 
	C473.797089,233.578140 477.266266,236.065460 482.506653,232.971130 
	C483.512390,233.027634 484.048523,233.397110 484.912476,233.823059 
z"/>
<path fill="#FD92BA" opacity="1.000000" stroke="none" 
	d="
M113.579063,64.512108 
	C120.260422,64.335770 126.548584,64.119591 132.831375,64.224594 
	C137.617477,64.304573 140.818619,62.571762 142.032471,57.359951 
	C143.194946,55.613071 144.723801,54.959793 146.312256,54.457565 
	C152.169647,52.605614 155.247101,48.576843 156.054108,42.539814 
	C156.824600,36.776226 159.526627,31.865089 163.295776,27.512508 
	C165.418777,25.060904 167.918976,23.242426 171.662292,22.942490 
	C185.425842,23.277609 197.303528,34.382915 197.879807,47.931503 
	C198.396393,60.076862 197.986588,72.259850 198.110703,84.424950 
	C198.141220,87.415527 196.952057,87.263458 194.801437,86.364723 
	C182.916687,81.398163 176.501328,72.419571 175.187820,59.722607 
	C174.521576,53.282589 171.930161,50.223038 167.142487,50.559177 
	C162.248489,50.902782 159.672668,54.908096 160.249298,61.277843 
	C162.050385,81.173164 175.171646,96.756996 194.662338,101.941826 
	C196.844894,102.522408 198.136597,102.999649 198.130020,105.704933 
	C198.042969,141.515137 198.071976,177.325623 198.071976,213.760773 
	C195.188263,211.880630 192.798965,210.226501 190.318405,208.722946 
	C181.577103,203.424438 171.957458,202.047974 161.964539,202.680222 
	C157.738754,202.947586 155.220306,205.346161 154.931946,209.666656 
	C154.653366,213.840744 157.266968,216.865051 161.739685,217.379044 
	C164.875565,217.739410 168.074097,217.545410 171.213547,217.885880 
	C180.370041,218.878860 187.405533,223.496017 192.805115,230.831894 
	C194.039627,232.509094 194.105911,233.810684 192.822266,235.680832 
	C173.434494,263.927032 169.882706,294.262238 181.108093,326.480194 
	C181.326630,327.107391 181.970840,327.895752 181.777222,328.310516 
	C179.042465,334.168274 176.443527,340.113495 173.272278,345.733124 
	C171.723526,348.477661 168.129578,348.362122 165.301712,349.161285 
	C161.554077,350.220398 157.723236,350.159454 153.434906,349.939331 
	C145.971954,347.880310 141.556778,342.672821 137.727249,337.039825 
	C132.415680,329.226837 129.193619,320.514130 129.044479,310.987457 
	C128.902878,301.941803 125.657173,294.929382 117.447067,290.594055 
	C116.566811,290.129272 115.781059,289.508514 115.057724,288.312958 
	C114.221329,285.786407 114.249344,283.337341 112.352768,281.634399 
	C110.235489,279.733215 107.875717,278.890289 105.056831,279.742828 
	C102.089256,280.640350 100.110542,282.539124 99.842690,285.667511 
	C99.575096,288.792908 99.337822,291.987488 99.688286,295.083679 
	C100.217346,299.757568 98.836906,301.984680 93.443138,300.856201 
	C88.788918,299.571747 85.927849,296.730927 83.584572,293.150452 
	C74.803452,279.732941 73.322792,265.820160 80.540619,251.250763 
	C81.602058,249.108231 82.933113,247.276443 85.655136,246.250702 
	C96.153091,246.029083 106.331108,245.523056 116.445663,246.110306 
	C135.164108,247.197052 151.198761,264.171967 151.952835,283.126373 
	C152.184341,288.945679 151.985214,294.780975 152.062714,300.607880 
	C152.135071,306.048187 154.954575,309.414978 159.398148,309.530914 
	C164.051437,309.652313 167.093094,306.219208 167.012497,300.471558 
	C166.875290,290.687103 167.757401,280.872925 165.129684,271.189880 
	C158.904968,248.251831 138.276657,231.598282 114.441574,230.975281 
	C101.295654,230.631668 88.135780,230.822113 74.527435,230.674271 
	C64.986092,225.953094 63.774330,217.311783 63.573135,208.643555 
	C63.377666,200.222031 66.396935,192.770569 73.525620,187.018936 
	C76.228638,185.642487 78.766716,185.940781 81.245949,185.933075 
	C96.903984,185.884369 112.563728,186.061386 128.219910,185.868408 
	C149.293396,185.608643 167.273773,171.895477 173.161270,151.861206 
	C181.192505,124.532074 162.364731,96.127701 134.140182,93.013733 
	C131.342514,92.705063 128.595947,91.760040 125.723793,92.309380 
	C122.507477,92.924538 119.814949,94.380241 119.858154,98.004723 
	C119.899879,101.504173 122.575615,102.498466 125.671532,102.945541 
	C131.565796,103.796738 137.567841,103.939896 143.145538,106.633850 
	C157.619583,113.624664 165.944855,128.311447 163.889038,143.716339 
	C161.842667,159.050629 150.418549,170.923676 134.816055,174.092743 
	C131.527374,174.760696 128.252151,175.095474 124.908180,175.091629 
	C110.749260,175.075363 96.590263,175.100311 82.431358,175.069870 
	C80.112343,175.064880 77.752571,175.288055 75.155197,174.139389 
	C63.893044,164.786942 64.142921,148.578171 69.138680,140.006958 
	C70.405388,137.833694 71.665382,135.722916 74.679482,134.822311 
	C86.354614,134.566589 97.634895,134.450394 108.915154,134.331223 
	C110.741463,134.311935 112.578636,134.397903 114.391670,134.229431 
	C118.662476,133.832596 121.085762,131.401337 121.225815,127.128571 
	C121.366638,122.832573 119.013664,120.215973 114.833412,119.595436 
	C112.225471,119.208290 109.535698,119.372467 106.450447,119.180031 
	C102.779770,118.572868 101.421951,116.027145 100.134720,113.512939 
	C92.826767,99.239159 95.513458,80.155975 106.354691,68.471687 
	C108.255699,66.422852 110.674232,65.483185 113.579063,64.512108 
z"/>
<path fill="#FB91B9" opacity="1.000000" stroke="none" 
	d="
M245.602631,23.315254 
	C258.914520,25.244045 268.451141,35.815838 269.112915,48.757111 
	C269.904938,64.244308 269.905182,64.192398 285.522675,64.270668 
	C291.508057,64.300659 297.528259,63.714394 303.472839,64.903717 
	C315.443390,67.298637 323.607269,74.344254 327.451294,85.801964 
	C331.240997,97.097839 328.805786,107.444176 321.071869,116.553978 
	C319.320374,118.617065 317.346924,119.501022 314.587555,119.399055 
	C309.262482,119.202263 303.922119,119.240227 298.593140,119.376884 
	C293.011993,119.520004 289.925110,122.332031 289.943329,126.938583 
	C289.961761,131.597275 292.984009,134.276886 298.671387,134.302765 
	C314.001801,134.372513 329.333923,134.209473 344.663239,134.357407 
	C370.575287,134.607452 390.101166,150.646286 394.536926,175.234222 
	C395.035858,177.999649 395.116608,180.869324 395.117828,183.690781 
	C395.123169,195.789474 394.781586,196.195099 383.634003,200.090729 
	C369.574921,205.003799 357.261932,212.744827 346.815948,223.338501 
	C344.600525,225.585220 343.448456,225.721954 341.012848,223.426727 
	C310.111115,194.306305 274.596497,187.646545 234.508911,202.082581 
	C231.420212,201.919464 231.156067,199.857483 230.976547,197.838638 
	C230.711349,194.856216 230.815140,191.859116 230.814972,188.867859 
	C230.813339,160.612061 230.800888,132.356247 230.824493,104.100449 
	C230.826981,101.123695 230.560867,98.080292 232.606537,94.972237 
	C243.709305,85.510788 250.341003,74.252159 250.963318,59.898712 
	C251.214310,54.109604 248.428116,50.650513 243.739059,50.535900 
	C239.251495,50.426216 236.310852,53.592728 236.041656,59.053143 
	C235.884537,62.240257 235.335190,65.309425 233.973450,68.612656 
	C231.854050,68.847916 231.248611,67.306770 231.169434,65.882729 
	C230.477020,53.429909 230.207336,41.021107 237.318939,29.892626 
	C239.240387,26.885870 241.651932,24.484158 245.602631,23.315254 
z"/>
<path fill="#FA2B3A" opacity="1.000000" stroke="none" 
	d="
M282.748901,210.574554 
	C273.434021,218.680115 263.988129,226.854523 257.547485,237.771667 
	C241.119064,265.618530 238.533768,294.481201 252.572891,323.967133 
	C261.236145,342.162292 273.234650,358.456207 283.797211,375.562378 
	C301.961212,404.979126 320.411499,434.219147 338.862000,463.867401 
	C330.518524,463.801544 323.646545,459.832275 317.860687,454.081696 
	C290.437744,426.825989 263.175110,399.408905 235.732620,372.173004 
	C233.360336,369.818604 233.794693,368.011261 235.103928,365.657532 
	C239.784683,357.242584 242.145538,348.425751 239.587784,338.795532 
	C234.760941,320.621857 215.839233,310.460510 198.034332,316.774811 
	C194.560806,318.006622 193.744232,317.248413 192.794998,313.972473 
	C178.241745,263.746674 216.179413,211.417786 268.411957,209.915771 
	C273.060059,209.782104 277.724091,210.204590 282.748901,210.574554 
z"/>
<path fill="#6ED5A2" opacity="1.000000" stroke="none" 
	d="
M152.833862,422.759674 
	C166.164825,395.189941 179.316437,367.948303 192.548721,340.745880 
	C196.869202,331.864014 204.993317,327.975128 213.378952,330.516602 
	C223.803162,333.675995 228.535812,344.724701 223.588882,355.066071 
	C213.619446,375.906799 203.460648,396.656952 193.380920,417.444885 
	C189.392639,425.670197 185.449203,433.917633 181.401794,442.113708 
	C179.439636,446.087158 179.098282,449.759583 182.771103,452.941467 
	C184.320404,454.283691 184.256744,455.623291 183.308945,457.322174 
	C181.804489,460.018860 180.363159,462.770020 179.158600,465.609863 
	C177.649200,469.168457 176.452377,472.412781 171.244843,471.239594 
	C168.797699,470.688263 166.679291,472.934021 165.440720,475.280426 
	C164.432739,477.190063 163.577118,479.179657 162.588287,481.099976 
	C156.027420,493.841156 141.036392,495.246796 132.465958,483.729736 
	C122.133667,469.845032 112.070206,455.760345 101.882515,441.767944 
	C94.437637,431.542725 86.943619,421.353058 79.539101,411.098755 
	C73.018669,402.068787 74.160599,391.918243 82.264168,385.946045 
	C90.293968,380.028168 100.583641,382.018768 107.103645,390.892761 
	C116.267883,403.365723 125.329414,415.914093 134.449631,428.419403 
	C140.547668,436.780884 146.247131,436.325989 150.730347,427.141907 
	C151.386505,425.797729 152.034256,424.449402 152.833862,422.759674 
z"/>
<path fill="#FA75A6" opacity="1.000000" stroke="none" 
	d="
M74.625458,134.534637 
	C64.926262,147.391891 65.840103,160.830154 74.976990,172.328247 
	C73.861855,175.355667 71.322388,174.833969 69.140312,175.043335 
	C65.987602,175.345825 62.921032,176.149002 62.696327,179.799683 
	C62.463848,183.576599 65.350365,185.144577 68.662613,185.805115 
	C70.419403,186.155457 72.288864,186.085159 73.861221,187.777481 
	C64.689796,199.057709 62.570705,210.970779 69.524719,223.944580 
	C70.683609,226.106659 72.425438,227.956314 73.985283,230.263550 
	C60.451733,231.553070 47.262810,231.340576 35.601959,222.304916 
	C19.126354,209.538483 11.959571,188.066681 18.276863,168.330521 
	C24.779394,148.015656 43.031693,134.913879 65.680786,134.341614 
	C68.510544,134.270111 71.344543,134.366776 74.625458,134.534637 
z"/>
<path fill="#FC75A6" opacity="1.000000" stroke="none" 
	d="
M232.506256,94.667168 
	C232.896759,128.042938 232.946564,161.559891 233.032135,195.076767 
	C233.037567,197.205383 232.602905,199.400223 233.870667,201.781372 
	C227.239151,205.725250 220.212418,209.108932 214.103165,213.927658 
	C212.346222,212.896240 213.109879,211.409576 213.108200,210.249054 
	C213.058731,175.942490 213.120239,141.635635 212.987595,107.329514 
	C212.974258,103.882133 213.760910,102.414932 217.362640,101.718933 
	C222.771591,100.673668 227.640884,97.986252 232.506256,94.667168 
z"/>
<path fill="#FC75A7" opacity="1.000000" stroke="none" 
	d="
M85.543518,245.944290 
	C73.940636,262.788849 75.109138,284.381409 92.829391,300.512146 
	C85.035843,300.873383 76.985306,301.884155 69.123405,299.990753 
	C57.696426,297.238708 49.967251,290.036407 46.467308,278.892792 
	C42.887966,267.496368 45.653450,257.221741 53.439152,248.225037 
	C54.969383,246.456787 56.702362,245.729431 59.086716,245.766495 
	C67.750580,245.901230 76.417542,245.836319 85.543518,245.944290 
z"/>
<path fill="#FB75A6" opacity="1.000000" stroke="none" 
	d="
M245.617142,23.003960 
	C232.053452,35.447777 232.174149,51.696888 233.591125,68.604378 
	C230.720764,77.444794 224.677429,82.927330 216.478867,86.365646 
	C213.833145,87.475204 212.995621,87.013161 213.025146,84.076950 
	C213.140411,72.618370 212.822708,61.150249 213.161179,49.700314 
	C213.661453,32.776989 227.959839,21.004097 245.617142,23.003960 
z"/>
<path fill="#FA75A6" opacity="1.000000" stroke="none" 
	d="
M113.571220,64.329575 
	C103.198601,72.761703 97.690086,83.739502 98.056839,97.379959 
	C98.265953,105.157181 100.885010,112.254723 105.851158,118.769516 
	C102.374855,119.161621 98.726822,119.169922 95.089836,119.374588 
	C92.952789,119.494843 91.725945,118.250343 90.486977,116.884895 
	C86.496681,112.487305 83.791290,107.452774 82.739349,101.554916 
	C82.058250,97.736214 80.546822,94.464699 76.139160,93.910797 
	C74.022629,93.644821 73.709358,92.390617 74.068321,90.782021 
	C74.696548,87.966736 75.382790,85.152534 76.264847,82.408638 
	C77.503082,78.556786 78.277786,74.234680 84.391090,76.774590 
	C86.742462,77.751534 89.083138,75.719894 90.893410,73.882088 
	C97.016556,67.665802 104.508659,64.604439 113.571220,64.329575 
z"/>
<path fill="#FC75A7" opacity="1.000000" stroke="none" 
	d="
M114.779694,288.349426 
	C123.871429,289.716156 130.908234,297.955841 130.922714,307.652161 
	C130.949203,325.387939 138.726501,338.893494 152.796219,349.584778 
	C133.751633,348.981201 116.408752,332.481934 114.994537,313.215485 
	C114.398232,305.091766 114.737099,296.899445 114.779694,288.349426 
z"/>
<path fill="#FB75A6" opacity="1.000000" stroke="none" 
	d="
M171.699707,22.755417 
	C163.676697,28.110197 158.864029,35.366734 157.536224,45.345520 
	C156.577621,52.549854 151.135941,56.309910 142.534836,57.001499 
	C141.366135,48.309074 142.341049,40.028465 148.162491,33.008698 
	C154.176804,25.756376 161.896027,22.202053 171.699707,22.755417 
z"/>
<path fill="#FD626C" opacity="1.000000" stroke="none" 
	d="
M488.980042,238.645203 
	C486.977844,238.830994 486.095032,237.563934 486.015015,235.185425 
	C487.709351,235.382858 487.792938,237.249344 488.980042,238.645203 
z"/>
<path fill="#FD626C" opacity="1.000000" stroke="none" 
	d="
M491.067810,241.629211 
	C489.703918,241.813568 489.070862,240.975647 489.047668,239.246735 
	C490.029999,239.432281 490.938904,240.028839 491.067810,241.629211 
z"/>
<path fill="#FD626C" opacity="1.000000" stroke="none" 
	d="
M493.065247,244.630493 
	C491.697449,244.819595 491.072906,243.974869 491.047974,242.247375 
	C492.038208,242.425964 492.908295,243.054169 493.065247,244.630493 
z"/>
<path fill="#FD626C" opacity="1.000000" stroke="none" 
	d="
M494.314270,248.883072 
	C493.670258,247.858582 493.345795,246.731644 493.038818,245.248032 
	C494.113403,245.972321 495.157532,247.058533 494.314270,248.883072 
z"/>
<path fill="#FD626C" opacity="1.000000" stroke="none" 
	d="
M485.074158,233.730240 
	C484.574158,233.767258 483.956970,233.550522 483.114441,233.088852 
	C484.019989,231.611176 484.286743,233.203354 485.074158,233.730240 
z"/>
<path fill="#040203" opacity="1.000000" stroke="none" 
	d="
M74.485596,188.002853 
	C71.725014,187.982147 69.399536,188.048904 67.127815,187.731262 
	C62.957619,187.148117 60.082104,183.772461 60.256691,179.970245 
	C60.437309,176.036697 63.438389,173.146164 67.729317,172.904770 
	C69.867302,172.784500 72.016022,172.854919 74.608887,172.744354 
	C93.383995,172.688354 111.730392,173.280991 130.030487,172.610168 
	C148.374344,171.937729 161.950714,157.252686 162.077637,139.461670 
	C162.205994,121.472595 149.147873,107.308189 130.785919,105.562897 
	C128.799194,105.374069 126.788689,105.448540 124.796257,105.303925 
	C120.197395,104.970146 117.051468,101.829033 117.148750,97.743164 
	C117.245514,93.679306 120.381622,90.538940 125.095520,90.387894 
	C136.736633,90.014900 147.535217,92.741554 157.061005,99.728577 
	C173.984009,112.141342 181.082184,133.396423 174.984955,153.433838 
	C168.839600,173.629379 150.538910,187.371994 128.441360,187.791611 
	C110.614861,188.130127 92.777489,187.896652 74.485596,188.002853 
z"/>
<path fill="#040203" opacity="1.000000" stroke="none" 
	d="
M350.904236,179.298004 
	C350.869843,184.721802 348.113586,187.781830 343.305511,187.749588 
	C320.674896,187.597855 297.965210,189.373215 275.430908,186.937881 
	C251.648041,184.367569 233.707214,162.585052 234.043686,138.306091 
	C234.378433,114.150505 253.191544,93.320679 276.953979,90.869057 
	C280.092773,90.545219 283.278015,90.261086 286.415741,90.433228 
	C291.179047,90.694572 294.069611,93.796158 294.002228,98.018188 
	C293.934906,102.236511 290.977173,105.103119 286.158051,105.291786 
	C282.161713,105.448250 278.162628,105.483627 274.276917,106.535568 
	C258.025604,110.935112 247.200897,126.572098 249.216064,142.686462 
	C251.376480,159.962341 265.077087,172.492950 282.892487,172.775482 
	C302.536865,173.086990 322.190063,172.925995 341.838654,172.824860 
	C346.422668,172.801270 349.573486,174.326538 350.904236,179.298004 
z"/>
</svg>