<svg version="1.1" id="Layer_1" xmlns="http://www.w3.org/2000/svg" xmlns:xlink="http://www.w3.org/1999/xlink" x="0px" y="0px"
	 width="100%" viewBox="0 0 512 512" enable-background="new 0 0 512 512" xml:space="preserve">
<path fill="#000000" opacity="1.000000" stroke="none" 
	d="
M225.000000,513.000000 
	C150.360245,513.000000 75.720490,513.000000 1.040368,513.000000 
	C1.040368,342.421753 1.040368,171.843521 1.040368,1.000000 
	C153.356552,1.000000 305.713257,1.000000 458.786804,1.328786 
	C456.506470,4.231852 455.493805,7.452943 455.946747,11.367947 
	C456.230957,13.824712 455.996033,16.341536 455.558960,18.900978 
	C440.946899,17.986168 426.788635,31.216911 426.944702,47.080849 
	C427.072205,60.037918 426.885803,72.998077 426.380127,85.966309 
	C417.267365,86.034187 408.613098,86.092613 399.496460,86.088409 
	C281.190430,86.018082 163.346725,86.009880 45.503017,86.009827 
	C44.340843,86.009827 43.178669,86.117744 41.552395,86.095688 
	C35.265987,86.002869 29.442730,85.916824 23.621588,85.992828 
	C13.937826,86.119255 5.026769,94.722595 4.605311,104.144424 
	C4.165390,105.050034 4.015108,105.706917 4.014960,106.363823 
	C4.003136,158.745331 3.996644,211.126846 4.042350,263.508331 
	C4.043395,264.705933 4.644683,265.903046 4.976326,267.503357 
	C5.272758,275.688660 14.019285,284.819458 21.669786,284.985260 
	C28.442310,285.132111 35.223125,284.896515 42.465576,284.889313 
	C69.180580,284.965698 95.430305,285.010223 121.679985,284.991028 
	C144.105377,284.974640 166.530701,284.885101 189.422546,284.903015 
	C197.882523,285.009552 205.876022,285.040985 213.926544,285.535370 
	C213.968628,339.975708 213.953659,393.953064 213.613129,447.861572 
	C208.501526,443.006165 203.885056,438.030975 198.858780,433.511597 
	C196.294739,431.206085 192.995255,429.718536 189.834717,427.517090 
	C185.673569,427.110779 181.568130,426.367279 177.768326,427.135498 
	C170.928024,428.518402 166.910568,433.507874 165.461624,440.123505 
	C164.170929,446.016602 164.421158,451.916809 169.113449,456.615906 
	C186.534393,474.062439 203.981812,491.482574 221.400391,508.931427 
	C222.677383,510.210632 223.803650,511.640320 225.000000,513.000000 
z"/>
<path fill="#000000" opacity="1.000000" stroke="none" 
	d="
M470.000000,0.999999 
	C484.324677,1.000000 498.649323,1.000000 512.980469,0.999999 
	C512.987000,171.554703 512.987000,342.109406 512.987000,513.000000 
	C457.312897,513.000000 401.625092,513.000000 345.145081,512.732300 
	C348.323578,509.067505 349.207764,504.763824 349.105103,499.638306 
	C348.808380,484.821869 349.000214,469.995667 349.000214,455.173279 
	C349.000214,425.861603 349.019928,396.549896 348.990356,367.238251 
	C348.978821,355.827698 338.147034,347.478485 327.561249,350.959045 
	C322.149841,351.759003 318.933960,355.065552 316.059570,358.471069 
	C315.678528,355.155548 315.406036,352.272339 314.995514,349.408875 
	C313.525055,339.151917 307.081116,333.721680 296.579315,334.075562 
	C289.692963,334.735931 285.504730,338.761353 282.061920,343.460510 
	C281.939148,336.888702 282.629486,330.730560 279.074402,325.087708 
	C275.572357,319.529083 267.552368,315.960663 261.538330,317.961060 
	C254.539444,318.330902 251.143661,322.888977 248.057907,327.454529 
	C248.047775,313.013702 248.084488,299.034180 248.580811,285.039551 
	C257.033508,284.964264 265.026611,284.904083 273.483154,284.908539 
	C331.066376,284.981812 388.186310,284.941833 445.305939,285.046997 
	C454.795563,285.064484 464.868195,277.303101 464.920227,265.916931 
	C465.083099,230.283279 464.899872,194.648026 464.921051,158.549240 
	C465.025177,150.090256 465.058990,142.095413 465.475342,134.058716 
	C473.052612,132.809952 478.544464,129.170013 480.338043,121.921425 
	C481.345703,117.849037 480.851196,113.404961 481.496948,109.071335 
	C489.621063,109.009644 497.282379,109.065636 504.942047,108.977280 
	C509.461975,108.925140 510.862244,106.675713 508.947968,102.764481 
	C508.380524,101.605110 507.612793,100.543770 506.936768,99.437584 
	C503.241241,93.390587 500.690887,87.127449 500.910126,79.741463 
	C501.250916,68.260582 501.033081,56.761929 500.961456,45.271378 
	C500.951691,43.703178 500.410767,42.139870 500.131348,40.571522 
	C497.917175,28.144110 485.238129,18.030729 472.013306,18.404488 
	C471.336243,12.299232 470.668121,6.649615 470.000000,0.999999 
z"/>
<path fill="#FFB8A9" opacity="1.000000" stroke="none" 
	d="
M296.961792,334.151917 
	C307.081116,333.721680 313.525055,339.151917 314.995514,349.408875 
	C315.406036,352.272339 315.678528,355.155548 316.023865,358.895966 
	C315.693359,361.720490 315.074890,363.676514 315.058990,365.637421 
	C314.964569,377.287659 314.941223,388.939575 315.041199,400.589691 
	C315.081482,405.280334 318.599182,408.834259 322.703705,408.762634 
	C326.857269,408.690216 329.937714,405.578796 329.972382,400.815216 
	C330.083893,385.503265 330.071014,370.189606 329.933350,354.878143 
	C329.921478,353.556488 328.636505,352.246277 327.942902,350.930786 
	C338.147034,347.478485 348.978821,355.827698 348.990356,367.238251 
	C349.019928,396.549896 349.000214,425.861603 349.000214,455.173279 
	C349.000214,469.995667 348.808380,484.821869 349.105103,499.638306 
	C349.207764,504.763824 348.323578,509.067505 344.676392,512.732300 
	C311.645782,513.000000 278.291534,513.000000 244.224670,512.757385 
	C240.669556,510.848602 237.340759,509.677185 235.062149,507.437378 
	C218.085968,490.750305 201.187225,473.978088 184.624161,456.883789 
	C182.113617,454.292725 180.728012,450.019531 180.107422,446.309387 
	C178.699646,437.892914 183.084259,432.063477 190.028198,427.861267 
	C192.995255,429.718536 196.294739,431.206085 198.858780,433.511597 
	C203.885056,438.030975 208.501526,443.006165 213.740891,448.239899 
	C222.568039,452.851166 228.010605,449.820953 228.011536,440.968353 
	C228.017548,384.481628 228.015060,327.994934 228.016434,271.508209 
	C228.016617,263.750458 230.756866,257.548706 238.345612,254.037781 
	C245.011810,257.598236 247.613815,263.205139 247.822357,270.144653 
	C247.971664,275.113159 248.025040,280.084534 248.121216,285.054626 
	C248.084488,299.034180 248.047775,313.013702 248.041321,327.926025 
	C248.037903,352.496460 247.878647,376.135529 248.143860,399.769867 
	C248.173950,402.452271 249.899628,406.141449 252.037720,407.570679 
	C257.228851,411.040741 262.918274,406.781494 262.948639,399.548492 
	C263.057678,373.580414 263.007446,347.611542 262.948730,321.643127 
	C262.945923,320.406250 262.286194,319.170837 261.932404,317.934753 
	C267.552368,315.960663 275.572357,319.529083 279.074402,325.087708 
	C282.629486,330.730560 281.939148,336.888702 282.038879,343.890656 
	C281.734009,363.372498 281.305328,381.967255 281.142365,400.564362 
	C281.104523,404.881531 285.340088,408.874329 289.013092,408.860962 
	C292.688660,408.847565 296.506836,404.858337 296.909454,400.523163 
	C297.032074,399.202850 296.959167,397.863495 296.959320,396.532867 
	C296.961761,375.739227 296.961456,354.945557 296.961792,334.151917 
z"/>
<path fill="#FF9680" opacity="1.000000" stroke="none" 
	d="
M189.834732,427.517090 
	C183.084259,432.063477 178.699646,437.892914 180.107422,446.309387 
	C180.728012,450.019531 182.113617,454.292725 184.624161,456.883789 
	C201.187225,473.978088 218.085968,490.750305 235.062149,507.437378 
	C237.340759,509.677185 240.669556,510.848602 243.756012,512.757385 
	C237.978851,513.000000 231.957703,513.000000 225.468277,513.000000 
	C223.803650,511.640320 222.677383,510.210632 221.400391,508.931427 
	C203.981812,491.482574 186.534393,474.062439 169.113449,456.615906 
	C164.421158,451.916809 164.170929,446.016602 165.461624,440.123505 
	C166.910568,433.507874 170.928024,428.518402 177.768326,427.135498 
	C181.568130,426.367279 185.673569,427.110779 189.834732,427.517090 
z"/>
<path fill="#4A80AA" opacity="1.000000" stroke="none" 
	d="
M469.541931,0.999999 
	C470.668121,6.649615 471.336243,12.299232 471.586121,18.495049 
	C469.417053,19.112957 467.666168,19.184669 465.472626,19.172138 
	C462.017975,19.002401 459.005981,18.916906 455.994019,18.831413 
	C455.996033,16.341536 456.230957,13.824712 455.946747,11.367947 
	C455.493805,7.452943 456.506470,4.231852 459.251831,1.328786 
	C462.361298,1.000000 465.722565,1.000000 469.541931,0.999999 
z"/>
<path fill="#DD646F" opacity="1.000000" stroke="none" 
	d="
M464.850769,159.013397 
	C464.899872,194.648026 465.083099,230.283279 464.920227,265.916931 
	C464.868195,277.303101 454.795563,285.064484 445.305939,285.046997 
	C388.186310,284.941833 331.066376,284.981812 273.478210,284.450195 
	C273.007965,279.265869 272.960175,274.604034 273.013763,269.943329 
	C273.126709,260.122711 270.228302,251.355270 264.337677,243.460464 
	C253.792206,229.326996 234.881027,223.290039 217.991104,228.851974 
	C200.891998,234.482773 189.071075,250.359161 188.977097,267.847473 
	C188.946671,273.507477 188.961777,279.167786 188.956055,284.827942 
	C166.530701,284.885101 144.105377,284.974640 121.679985,284.991028 
	C95.430305,285.010223 69.180580,284.965698 42.196262,284.683807 
	C30.299435,279.995697 26.000696,273.644775 26.000320,261.555786 
	C25.998764,211.455612 26.215242,161.353867 25.847609,111.256393 
	C25.755987,98.771179 30.461515,90.565536 42.016495,86.175285 
	C43.178669,86.117744 44.340843,86.009827 45.503017,86.009827 
	C163.346725,86.009880 281.190430,86.018082 399.352509,86.396805 
	C398.980835,88.097862 398.284393,89.424591 397.601746,90.758400 
	C387.052307,111.371094 399.335571,132.734818 422.365204,134.140884 
	C424.222229,134.254288 426.626160,135.868393 427.651825,137.494293 
	C436.321869,151.237946 448.674347,158.368744 464.850769,159.013397 
M364.087341,155.904480 
	C359.535645,156.745056 357.734558,159.721924 357.734283,164.092148 
	C357.733368,178.404724 357.660492,192.717850 357.771362,207.029572 
	C357.814880,212.645126 360.438812,215.114670 366.161133,215.241089 
	C370.984283,215.347656 375.812775,215.236755 380.638611,215.191422 
	C388.349915,215.118958 394.061066,211.510254 397.642975,204.854721 
	C401.249878,198.152771 400.601105,191.518585 396.802917,184.897629 
	C395.659729,182.904785 395.095428,179.982544 395.566437,177.761856 
	C397.914215,166.692062 390.288055,156.309067 378.961578,155.851791 
	C374.309723,155.663971 369.643799,155.824799 364.087341,155.904480 
M135.770096,181.500168 
	C135.773544,189.981903 135.689957,198.464859 135.811096,206.944916 
	C135.891708,212.587616 138.443314,215.105789 144.110458,215.235962 
	C149.096024,215.350464 154.092194,215.338531 159.075409,215.156113 
	C174.461349,214.592834 182.939896,198.187485 174.905014,185.002121 
	C173.715027,183.049362 173.119232,180.087631 173.589951,177.878525 
	C175.997803,166.577988 168.262054,156.227127 156.640244,155.830246 
	C152.487289,155.688431 148.323685,155.712082 144.168655,155.812881 
	C138.476746,155.950974 135.939621,158.413223 135.808319,164.036423 
	C135.680237,169.521698 135.773605,175.012131 135.770096,181.500168 
M310.428741,211.167068 
	C314.839752,215.651718 319.100403,216.444061 322.554413,213.422028 
	C326.181061,210.248947 325.801270,205.746262 321.502625,200.767105 
	C319.149170,198.041046 316.814148,195.299057 314.315582,192.383133 
	C315.447632,191.485229 316.210663,190.876770 316.977051,190.272568 
	C324.128723,184.634506 326.754150,176.944580 324.196167,169.124695 
	C321.580078,161.127167 314.567017,156.054047 305.638519,155.823441 
	C301.648438,155.720383 297.648468,155.685608 293.661835,155.843277 
	C288.922455,156.030716 286.064484,158.642426 286.021454,163.273834 
	C285.883789,178.079681 285.887054,192.888321 286.016937,207.694290 
	C286.057678,212.339584 289.273804,215.248993 293.587006,215.203339 
	C297.872223,215.158005 300.759125,212.213669 301.021210,207.506210 
	C301.125092,205.640320 301.038269,203.763824 301.038269,200.636124 
	C304.669983,204.710876 307.306702,207.669281 310.428741,211.167068 
M82.552467,200.656906 
	C87.435074,211.635727 97.803612,217.134705 109.367538,214.878326 
	C120.533615,212.699570 127.647408,203.663147 127.719559,191.460129 
	C127.769806,182.962448 127.772018,174.463913 127.714981,165.966309 
	C127.669479,159.187027 125.093887,155.867020 120.032455,155.831619 
	C114.920639,155.795868 112.258942,159.144943 112.225945,165.817825 
	C112.183914,174.315613 112.235672,182.813828 112.207153,191.311707 
	C112.187820,197.072723 109.616364,199.924713 104.445580,200.032425 
	C99.326836,200.139023 96.822350,197.300339 96.801102,191.271271 
	C96.768814,182.106995 96.912529,172.939590 96.711456,163.779434 
	C96.604492,158.906570 93.676880,156.020050 89.428612,155.833328 
	C85.074738,155.641968 81.532890,158.294998 81.514824,163.013062 
	C81.467720,175.312378 81.972359,187.613815 82.552467,200.656906 
M71.661560,166.045944 
	C67.772934,158.223389 54.947643,153.680359 45.040798,156.616226 
	C37.515984,158.846176 32.380253,164.806976 31.908371,171.858353 
	C31.367876,179.935013 34.947018,185.441879 43.016323,188.830414 
	C46.999580,190.503113 51.081036,191.956528 54.989174,193.784683 
	C56.159294,194.332062 56.893986,195.810287 57.828159,196.862061 
	C56.610336,197.866730 55.192551,199.889786 54.209881,199.696823 
	C50.300156,198.929153 46.141357,198.113190 42.795776,196.110611 
	C38.249374,193.389252 34.119595,192.904587 31.186018,196.237244 
	C28.147533,199.689011 28.575687,204.020370 32.596493,207.686768 
	C39.713131,214.176117 48.169533,216.511383 57.565483,214.734146 
	C65.731361,213.189560 72.215378,206.369095 73.059975,199.076920 
	C74.032295,190.682083 70.076027,183.923248 61.652966,179.978485 
	C58.196510,178.359726 54.561367,177.126297 51.040840,175.638687 
	C49.646141,175.049332 48.342018,174.245636 46.474949,173.265701 
	C51.440113,169.419449 55.247807,171.381058 59.062153,173.496017 
	C66.009033,177.347855 71.075035,174.680023 71.661560,166.045944 
M222.185822,163.785461 
	C215.063751,156.381622 206.325043,154.311417 196.629486,156.717041 
	C188.646210,158.697845 183.620682,165.171814 183.251511,172.841568 
	C182.918427,179.762009 187.018234,185.587784 194.576843,188.804596 
	C198.550491,190.495728 202.632751,191.946564 206.529984,193.792938 
	C207.669571,194.332840 208.341537,195.859726 209.227829,196.934204 
	C208.016068,197.927261 206.589127,199.937897 205.630234,199.735123 
	C201.724579,198.909302 197.621170,197.989304 194.230927,196.008255 
	C189.692383,193.356247 185.429337,192.999969 182.613129,196.355286 
	C179.807724,199.697739 180.415543,204.221588 184.359924,207.821472 
	C191.349518,214.200668 199.679642,216.409241 208.872131,214.785004 
	C217.377090,213.282242 223.893311,206.315125 224.848022,198.383270 
	C225.732941,191.031006 221.459442,183.991531 213.533737,180.149658 
	C210.251572,178.558655 206.767944,177.387512 203.406174,175.954559 
	C201.824509,175.280396 200.314285,174.438705 198.044113,173.311737 
	C203.038147,169.486084 206.897980,171.172638 210.564529,173.473648 
	C213.833328,175.525085 217.096451,176.153244 220.323456,173.860397 
	C223.664459,171.486557 223.831772,168.077484 222.185822,163.785461 
M273.277313,160.132217 
	C261.169098,153.576889 248.545197,154.416611 238.720032,162.430939 
	C229.289108,170.123657 225.497742,182.713669 229.086578,194.420486 
	C235.367950,214.910324 262.015900,222.460587 276.085724,207.736938 
	C279.797729,203.852432 280.131683,199.490875 276.964661,196.257538 
	C273.880768,193.109085 269.988983,193.436188 265.797577,196.456100 
	C263.492706,198.116745 260.618988,199.604019 257.865601,199.899246 
	C251.930313,200.535660 246.384232,196.609802 244.118332,191.080811 
	C241.826584,185.488754 243.164017,179.159531 247.516266,175.000458 
	C252.125153,170.596130 258.399719,169.780457 264.619568,172.777054 
	C270.007446,175.372803 273.614044,174.952667 276.147980,171.434036 
	C278.699921,167.890381 277.999481,164.504318 273.277313,160.132217 
M436.758667,201.514450 
	C431.910248,200.799438 427.061829,200.084412 422.199799,199.367401 
	C421.260681,193.398682 421.348907,193.280563 426.882446,193.225769 
	C428.048767,193.214218 429.216583,193.251663 430.381378,193.207062 
	C435.408081,193.014572 438.713654,190.112091 438.781799,185.858383 
	C438.853180,181.403625 435.427368,178.258041 430.194275,178.082794 
	C427.573914,177.995041 424.948181,178.067505 422.019287,178.067505 
	C422.019287,175.593658 422.019287,173.701965 422.019287,171.166443 
	C425.440948,171.166443 428.562592,171.233765 431.680298,171.151276 
	C436.848694,171.014526 439.936737,168.263580 440.020172,163.849564 
	C440.107117,159.250320 436.883484,156.169861 431.557251,156.057495 
	C425.894470,155.937988 420.224121,155.920013 414.562653,156.068741 
	C409.440521,156.203308 406.354523,158.999008 406.286499,164.149429 
	C406.097229,178.476883 406.105011,192.809738 406.272644,207.137680 
	C406.336151,212.565628 409.300690,215.139725 414.929108,215.252274 
	C420.425629,215.362198 425.978638,215.724319 431.402832,215.088516 
	C434.151672,214.766327 437.441010,213.086487 439.105713,210.946640 
	C441.345184,208.067932 440.107910,204.600143 436.758667,201.514450 
M334.101074,161.260544 
	C334.025665,176.412964 333.896881,191.565384 333.903076,206.717773 
	C333.905334,212.228333 336.778839,215.261353 341.502106,215.202316 
	C346.091888,215.144943 348.943848,211.965546 348.972168,206.470764 
	C349.044250,192.480515 348.983734,178.489655 349.003601,164.499069 
	C349.009399,160.418259 347.547546,157.186813 343.401398,156.112350 
	C339.378387,155.069809 336.209503,156.570480 334.101074,161.260544 
z"/>
<path fill="#C63D4F" opacity="1.000000" stroke="none" 
	d="
M41.552395,86.095688 
	C30.461515,90.565536 25.755987,98.771179 25.847609,111.256393 
	C26.215242,161.353867 25.998764,211.455612 26.000320,261.555786 
	C26.000696,273.644775 30.299435,279.995697 41.730968,284.624268 
	C35.223125,284.896515 28.442310,285.132111 21.669786,284.985260 
	C14.019285,284.819458 5.272758,275.688660 4.984980,267.028198 
	C4.977205,212.065292 4.971117,157.980499 4.965030,103.895706 
	C5.026769,94.722595 13.937826,86.119255 23.621588,85.992828 
	C29.442730,85.916824 35.265987,86.002869 41.552395,86.095688 
z"/>
<path fill="#C63D4F" opacity="1.000000" stroke="none" 
	d="
M189.422546,284.903015 
	C188.961777,279.167786 188.946671,273.507477 188.977097,267.847473 
	C189.071075,250.359161 200.891998,234.482773 217.991104,228.851974 
	C234.881027,223.290039 253.792206,229.326996 264.337677,243.460464 
	C270.228302,251.355270 273.126709,260.122711 273.013763,269.943329 
	C272.960175,274.604034 273.007965,279.265869 273.014771,284.385559 
	C265.026611,284.904083 257.033508,284.964264 248.580811,285.039551 
	C248.025040,280.084534 247.971664,275.113159 247.822357,270.144653 
	C247.613815,263.205139 245.011810,257.598236 238.071442,253.780365 
	C225.074753,249.026169 214.077728,256.842102 213.998199,270.085968 
	C213.968216,275.081512 213.913147,280.076935 213.869507,285.072418 
	C205.876022,285.040985 197.882523,285.009552 189.422546,284.903015 
z"/>
<path fill="#FF947E" opacity="1.000000" stroke="none" 
	d="
M213.926544,285.535370 
	C213.913147,280.076935 213.968216,275.081512 213.998199,270.085968 
	C214.077728,256.842102 225.074753,249.026169 237.748474,253.666367 
	C230.756866,257.548706 228.016617,263.750458 228.016434,271.508209 
	C228.015060,327.994934 228.017548,384.481628 228.011536,440.968353 
	C228.010605,449.820953 222.568039,452.851166 214.066437,448.308777 
	C213.953659,393.953064 213.968628,339.975708 213.926544,285.535370 
z"/>
<path fill="#C63E50" opacity="1.000000" stroke="none" 
	d="
M464.921082,158.549240 
	C448.674347,158.368744 436.321869,151.237946 427.651825,137.494293 
	C426.626160,135.868393 424.222229,134.254288 422.365204,134.140884 
	C399.335571,132.734818 387.052307,111.371094 397.601746,90.758400 
	C398.284393,89.424591 398.980835,88.097862 399.814819,86.459427 
	C408.613098,86.092613 417.267365,86.034187 426.415985,86.348549 
	C424.892059,91.372612 422.764587,95.980835 420.906708,100.695297 
	C420.108551,102.720627 418.857880,105.549850 419.663300,106.947311 
	C420.461029,108.331406 423.559509,108.747040 425.701294,108.913933 
	C428.805115,109.155777 431.956177,108.791969 435.541199,108.730690 
	C439.983826,108.849670 443.972321,108.924461 447.959503,109.459778 
	C447.964478,112.406448 447.901031,114.895081 447.989807,117.378273 
	C448.284576,125.624214 453.690094,131.722321 461.832031,133.141663 
	C462.940979,133.334991 464.006958,133.774872 465.092834,134.100586 
	C465.058990,142.095413 465.025177,150.090256 464.921082,158.549240 
z"/>
<path fill="#EBB146" opacity="1.000000" stroke="none" 
	d="
M435.087067,108.686493 
	C431.956177,108.791969 428.805115,109.155777 425.701294,108.913933 
	C423.559509,108.747040 420.461029,108.331406 419.663300,106.947311 
	C418.857880,105.549850 420.108551,102.720627 420.906708,100.695297 
	C422.764587,95.980835 424.892059,91.372612 426.874451,86.339096 
	C426.885803,72.998077 427.072205,60.037918 426.944702,47.080849 
	C426.788635,31.216911 440.946899,17.986168 455.558929,18.900978 
	C459.005981,18.916906 462.017975,19.002401 465.182404,19.362171 
	C450.800629,23.240257 442.112793,34.225327 442.032104,49.212006 
	C441.978302,59.203964 441.660217,69.213615 442.134979,79.183220 
	C442.511292,87.085114 440.015472,93.772293 436.243835,100.444786 
	C434.973572,102.691971 435.423401,105.911423 435.087067,108.686493 
z"/>
<path fill="#D24D5E" opacity="1.000000" stroke="none" 
	d="
M4.605311,104.144424 
	C4.971117,157.980499 4.977205,212.065292 4.974639,266.625244 
	C4.644683,265.903046 4.043395,264.705933 4.042350,263.508331 
	C3.996644,211.126846 4.003136,158.745331 4.014960,106.363823 
	C4.015108,105.706917 4.165390,105.050034 4.605311,104.144424 
z"/>
<path fill="#FFD064" opacity="1.000000" stroke="none" 
	d="
M435.541199,108.730698 
	C435.423401,105.911423 434.973572,102.691971 436.243835,100.444786 
	C440.015472,93.772293 442.511292,87.085114 442.134979,79.183220 
	C441.660217,69.213615 441.978302,59.203964 442.032104,49.212006 
	C442.112793,34.225327 450.800629,23.240257 465.625092,19.446415 
	C467.666168,19.184669 469.417053,19.112957 471.595093,18.950684 
	C485.238129,18.030729 497.917175,28.144110 500.131348,40.571522 
	C500.410767,42.139870 500.951691,43.703178 500.961456,45.271378 
	C501.033081,56.761929 501.250916,68.260582 500.910126,79.741463 
	C500.690887,87.127449 503.241241,93.390587 506.936768,99.437584 
	C507.612793,100.543770 508.380524,101.605110 508.947968,102.764481 
	C510.862244,106.675713 509.461975,108.925140 504.942047,108.977280 
	C497.282379,109.065636 489.621063,109.009644 481.038757,108.956146 
	C469.398346,108.931717 458.679565,108.965485 447.960815,108.999245 
	C443.972321,108.924461 439.983826,108.849670 435.541199,108.730698 
z"/>
<path fill="#FF947E" opacity="1.000000" stroke="none" 
	d="
M261.538330,317.961060 
	C262.286194,319.170837 262.945923,320.406250 262.948730,321.643127 
	C263.007446,347.611542 263.057678,373.580414 262.948639,399.548492 
	C262.918274,406.781494 257.228851,411.040741 252.037720,407.570679 
	C249.899628,406.141449 248.173950,402.452271 248.143860,399.769867 
	C247.878647,376.135529 248.037903,352.496460 248.088165,328.387268 
	C251.143661,322.888977 254.539444,318.330902 261.538330,317.961060 
z"/>
<path fill="#FF9680" opacity="1.000000" stroke="none" 
	d="
M296.579315,334.075562 
	C296.961456,354.945557 296.961761,375.739227 296.959320,396.532867 
	C296.959167,397.863495 297.032074,399.202850 296.909454,400.523163 
	C296.506836,404.858337 292.688660,408.847565 289.013092,408.860962 
	C285.340088,408.874329 281.104523,404.881531 281.142365,400.564362 
	C281.305328,381.967255 281.734009,363.372498 282.088989,344.346741 
	C285.504730,338.761353 289.692963,334.735931 296.579315,334.075562 
z"/>
<path fill="#FF957F" opacity="1.000000" stroke="none" 
	d="
M327.561249,350.959045 
	C328.636505,352.246277 329.921478,353.556488 329.933350,354.878143 
	C330.071014,370.189606 330.083893,385.503265 329.972382,400.815216 
	C329.937714,405.578796 326.857269,408.690216 322.703705,408.762634 
	C318.599182,408.834259 315.081482,405.280334 315.041199,400.589691 
	C314.941223,388.939575 314.964569,377.287659 315.058990,365.637421 
	C315.074890,363.676514 315.693359,361.720490 316.069092,359.337311 
	C318.933960,355.065552 322.149841,351.759003 327.561249,350.959045 
z"/>
<path fill="#4A80AA" opacity="1.000000" stroke="none" 
	d="
M447.959503,109.459778 
	C458.679565,108.965485 469.398346,108.931717 480.575256,109.013153 
	C480.851196,113.404961 481.345703,117.849037 480.338043,121.921425 
	C478.544464,129.170013 473.052612,132.809952 465.475342,134.058716 
	C464.006958,133.774872 462.940979,133.334991 461.832031,133.141663 
	C453.690094,131.722321 448.284576,125.624214 447.989807,117.378273 
	C447.901031,114.895081 447.964478,112.406448 447.959503,109.459778 
z"/>
<path fill="#E8ECF1" opacity="1.000000" stroke="none" 
	d="
M364.535797,155.865768 
	C369.643799,155.824799 374.309723,155.663971 378.961578,155.851791 
	C390.288055,156.309067 397.914215,166.692062 395.566437,177.761856 
	C395.095428,179.982544 395.659729,182.904785 396.802917,184.897629 
	C400.601105,191.518585 401.249878,198.152771 397.642975,204.854721 
	C394.061066,211.510254 388.349915,215.118958 380.638611,215.191422 
	C375.812775,215.236755 370.984283,215.347656 366.161133,215.241089 
	C360.438812,215.114670 357.814880,212.645126 357.771362,207.029572 
	C357.660492,192.717850 357.733368,178.404724 357.734283,164.092148 
	C357.734558,159.721924 359.535645,156.745056 364.535797,155.865768 
M379.044983,191.248901 
	C377.123962,191.248901 375.202972,191.248901 373.260132,191.248901 
	C373.260132,194.589264 373.260132,197.143860 373.260132,200.336655 
	C377.467560,199.077713 382.803101,202.591812 384.556824,196.368286 
	C385.437958,193.241333 382.882538,191.669205 379.044983,191.248901 
M380.521729,174.292313 
	C379.515350,171.211594 375.265503,169.657822 372.950439,171.956543 
	C373.034119,173.035080 373.140228,174.402557 373.304535,176.520172 
	C375.879944,175.934174 377.988770,175.454330 380.521729,174.292313 
z"/>
<path fill="#E8ECF1" opacity="1.000000" stroke="none" 
	d="
M135.769928,181.000244 
	C135.773605,175.012131 135.680237,169.521698 135.808319,164.036423 
	C135.939621,158.413223 138.476746,155.950974 144.168655,155.812881 
	C148.323685,155.712082 152.487289,155.688431 156.640244,155.830246 
	C168.262054,156.227127 175.997803,166.577988 173.589951,177.878525 
	C173.119232,180.087631 173.715027,183.049362 174.905014,185.002121 
	C182.939896,198.187485 174.461349,214.592834 159.075409,215.156113 
	C154.092194,215.338531 149.096024,215.350464 144.110458,215.235962 
	C138.443314,215.105789 135.891708,212.587616 135.811096,206.944916 
	C135.689957,198.464859 135.773544,189.981903 135.769928,181.000244 
M157.167328,200.085892 
	C160.421356,200.146271 162.881470,199.016602 162.719894,195.351700 
	C162.554932,191.609619 158.645004,190.466019 151.218231,191.913361 
	C151.218231,194.401718 151.218231,196.950760 151.218231,199.826004 
	C153.064224,199.922012 154.676361,200.005859 157.167328,200.085892 
M156.819229,171.111252 
	C154.945206,171.111252 153.071182,171.111252 150.822403,171.111252 
	C151.041153,173.133743 151.189499,174.505310 151.329071,175.795792 
	C158.516220,176.360825 159.292114,175.774170 156.819229,171.111252 
z"/>
<path fill="#E8ECF1" opacity="1.000000" stroke="none" 
	d="
M310.186096,210.897385 
	C307.306702,207.669281 304.669983,204.710876 301.038269,200.636124 
	C301.038269,203.763824 301.125092,205.640320 301.021210,207.506210 
	C300.759125,212.213669 297.872223,215.158005 293.587006,215.203339 
	C289.273804,215.248993 286.057678,212.339584 286.016937,207.694290 
	C285.887054,192.888321 285.883789,178.079681 286.021454,163.273834 
	C286.064484,158.642426 288.922455,156.030716 293.661835,155.843277 
	C297.648468,155.685608 301.648438,155.720383 305.638519,155.823441 
	C314.567017,156.054047 321.580078,161.127167 324.196167,169.124695 
	C326.754150,176.944580 324.128723,184.634506 316.977051,190.272568 
	C316.210663,190.876770 315.447632,191.485229 314.315582,192.383133 
	C316.814148,195.299057 319.149170,198.041046 321.502625,200.767105 
	C325.801270,205.746262 326.181061,210.248947 322.554413,213.422028 
	C319.100403,216.444061 314.839752,215.651718 310.186096,210.897385 
M308.724457,177.364151 
	C308.779907,175.741333 309.443085,173.078369 308.777557,172.689484 
	C306.728180,171.491989 304.170776,171.163864 301.478241,170.404114 
	C301.478241,173.898895 301.478241,176.250458 301.478241,179.300308 
	C304.055420,178.738205 306.081787,178.296249 308.724457,177.364151 
z"/>
<path fill="#E8E8EE" opacity="1.000000" stroke="none" 
	d="
M82.404694,200.285645 
	C81.972359,187.613815 81.467720,175.312378 81.514824,163.013062 
	C81.532890,158.294998 85.074738,155.641968 89.428612,155.833328 
	C93.676880,156.020050 96.604492,158.906570 96.711456,163.779434 
	C96.912529,172.939590 96.768814,182.106995 96.801102,191.271271 
	C96.822350,197.300339 99.326836,200.139023 104.445580,200.032425 
	C109.616364,199.924713 112.187820,197.072723 112.207153,191.311707 
	C112.235672,182.813828 112.183914,174.315613 112.225945,165.817825 
	C112.258942,159.144943 114.920639,155.795868 120.032455,155.831619 
	C125.093887,155.867020 127.669479,159.187027 127.714981,165.966309 
	C127.772018,174.463913 127.769806,182.962448 127.719559,191.460129 
	C127.647408,203.663147 120.533615,212.699570 109.367538,214.878326 
	C97.803612,217.134705 87.435074,211.635727 82.404694,200.285645 
z"/>
<path fill="#E8EBF0" opacity="1.000000" stroke="none" 
	d="
M71.741409,166.418747 
	C71.075035,174.680023 66.009033,177.347855 59.062153,173.496017 
	C55.247807,171.381058 51.440113,169.419449 46.474949,173.265701 
	C48.342018,174.245636 49.646141,175.049332 51.040840,175.638687 
	C54.561367,177.126297 58.196510,178.359726 61.652966,179.978485 
	C70.076027,183.923248 74.032295,190.682083 73.059975,199.076920 
	C72.215378,206.369095 65.731361,213.189560 57.565483,214.734146 
	C48.169533,216.511383 39.713131,214.176117 32.596493,207.686768 
	C28.575687,204.020370 28.147533,199.689011 31.186018,196.237244 
	C34.119595,192.904587 38.249374,193.389252 42.795776,196.110611 
	C46.141357,198.113190 50.300156,198.929153 54.209881,199.696823 
	C55.192551,199.889786 56.610336,197.866730 57.828163,196.862061 
	C56.893986,195.810287 56.159294,194.332062 54.989174,193.784683 
	C51.081036,191.956528 46.999580,190.503113 43.016323,188.830414 
	C34.947018,185.441879 31.367876,179.935013 31.908371,171.858353 
	C32.380253,164.806976 37.515984,158.846176 45.040798,156.616226 
	C54.947643,153.680359 67.772934,158.223389 71.741409,166.418747 
z"/>
<path fill="#E8EBF0" opacity="1.000000" stroke="none" 
	d="
M222.402374,164.121231 
	C223.831772,168.077484 223.664459,171.486557 220.323456,173.860397 
	C217.096451,176.153244 213.833328,175.525085 210.564529,173.473648 
	C206.897980,171.172638 203.038147,169.486084 198.044113,173.311737 
	C200.314285,174.438705 201.824509,175.280396 203.406174,175.954559 
	C206.767944,177.387512 210.251572,178.558655 213.533737,180.149658 
	C221.459442,183.991531 225.732941,191.031006 224.848022,198.383270 
	C223.893311,206.315125 217.377090,213.282242 208.872131,214.785004 
	C199.679642,216.409241 191.349518,214.200668 184.359924,207.821472 
	C180.415543,204.221588 179.807724,199.697739 182.613129,196.355286 
	C185.429337,192.999969 189.692383,193.356247 194.230927,196.008255 
	C197.621170,197.989304 201.724579,198.909302 205.630234,199.735123 
	C206.589127,199.937897 208.016068,197.927261 209.227844,196.934204 
	C208.341537,195.859726 207.669571,194.332840 206.529984,193.792938 
	C202.632751,191.946564 198.550491,190.495728 194.576843,188.804596 
	C187.018234,185.587784 182.918427,179.762009 183.251511,172.841568 
	C183.620682,165.171814 188.646210,158.697845 196.629486,156.717041 
	C206.325043,154.311417 215.063751,156.381622 222.402374,164.121231 
z"/>
<path fill="#E8EBF0" opacity="1.000000" stroke="none" 
	d="
M273.586609,160.339737 
	C277.999481,164.504318 278.699921,167.890381 276.147980,171.434036 
	C273.614044,174.952667 270.007446,175.372803 264.619568,172.777054 
	C258.399719,169.780457 252.125153,170.596130 247.516266,175.000458 
	C243.164017,179.159531 241.826584,185.488754 244.118332,191.080811 
	C246.384232,196.609802 251.930313,200.535660 257.865601,199.899246 
	C260.618988,199.604019 263.492706,198.116745 265.797577,196.456100 
	C269.988983,193.436188 273.880768,193.109085 276.964661,196.257538 
	C280.131683,199.490875 279.797729,203.852432 276.085724,207.736938 
	C262.015900,222.460587 235.367950,214.910324 229.086578,194.420486 
	C225.497742,182.713669 229.289108,170.123657 238.720032,162.430939 
	C248.545197,154.416611 261.169098,153.576889 273.586609,160.339737 
z"/>
<path fill="#E8EAEF" opacity="1.000000" stroke="none" 
	d="
M437.076752,201.760025 
	C440.107910,204.600143 441.345184,208.067932 439.105713,210.946640 
	C437.441010,213.086487 434.151672,214.766327 431.402832,215.088516 
	C425.978638,215.724319 420.425629,215.362198 414.929108,215.252274 
	C409.300690,215.139725 406.336151,212.565628 406.272644,207.137680 
	C406.105011,192.809738 406.097229,178.476883 406.286499,164.149429 
	C406.354523,158.999008 409.440521,156.203308 414.562653,156.068741 
	C420.224121,155.920013 425.894470,155.937988 431.557251,156.057495 
	C436.883484,156.169861 440.107117,159.250320 440.020172,163.849564 
	C439.936737,168.263580 436.848694,171.014526 431.680298,171.151276 
	C428.562592,171.233765 425.440948,171.166443 422.019287,171.166443 
	C422.019287,173.701965 422.019287,175.593658 422.019287,178.067505 
	C424.948181,178.067505 427.573914,177.995041 430.194275,178.082794 
	C435.427368,178.258041 438.853180,181.403625 438.781799,185.858383 
	C438.713654,190.112091 435.408081,193.014572 430.381378,193.207062 
	C429.216583,193.251663 428.048767,193.214218 426.882446,193.225769 
	C421.348907,193.280563 421.260681,193.398682 422.199799,199.367401 
	C427.061829,200.084412 431.910248,200.799438 437.076752,201.760025 
z"/>
<path fill="#E8ECF1" opacity="1.000000" stroke="none" 
	d="
M334.231049,160.853668 
	C336.209503,156.570480 339.378387,155.069809 343.401398,156.112350 
	C347.547546,157.186813 349.009399,160.418259 349.003601,164.499069 
	C348.983734,178.489655 349.044250,192.480515 348.972168,206.470764 
	C348.943848,211.965546 346.091888,215.144943 341.502106,215.202316 
	C336.778839,215.261353 333.905334,212.228333 333.903076,206.717773 
	C333.896881,191.565384 334.025665,176.412964 334.231049,160.853668 
z"/>
<path fill="#DE6A75" opacity="1.000000" stroke="none" 
	d="
M379.460602,191.261414 
	C382.882538,191.669205 385.437958,193.241333 384.556824,196.368286 
	C382.803101,202.591812 377.467560,199.077713 373.260132,200.336655 
	C373.260132,197.143860 373.260132,194.589264 373.260132,191.248901 
	C375.202972,191.248901 377.123962,191.248901 379.460602,191.261414 
z"/>
<path fill="#DE6A74" opacity="1.000000" stroke="none" 
	d="
M380.309692,174.633392 
	C377.988770,175.454330 375.879944,175.934174 373.304535,176.520172 
	C373.140228,174.402557 373.034119,173.035080 372.950439,171.956543 
	C375.265503,169.657822 379.515350,171.211594 380.309692,174.633392 
z"/>
<path fill="#DE6A75" opacity="1.000000" stroke="none" 
	d="
M156.727905,200.087799 
	C154.676361,200.005859 153.064224,199.922012 151.218231,199.826004 
	C151.218231,196.950760 151.218231,194.401718 151.218231,191.913361 
	C158.645004,190.466019 162.554932,191.609619 162.719894,195.351700 
	C162.881470,199.016602 160.421356,200.146271 156.727905,200.087799 
z"/>
<path fill="#DE6974" opacity="1.000000" stroke="none" 
	d="
M157.194855,171.275269 
	C159.292114,175.774170 158.516220,176.360825 151.329071,175.795792 
	C151.189499,174.505310 151.041153,173.133743 150.822403,171.111252 
	C153.071182,171.111252 154.945206,171.111252 157.194855,171.275269 
z"/>
<path fill="#DE6C77" opacity="1.000000" stroke="none" 
	d="
M308.416321,177.609222 
	C306.081787,178.296249 304.055420,178.738205 301.478241,179.300308 
	C301.478241,176.250458 301.478241,173.898895 301.478241,170.404114 
	C304.170776,171.163864 306.728180,171.491989 308.777557,172.689484 
	C309.443085,173.078369 308.779907,175.741333 308.416321,177.609222 
z"/>
</svg>